<svg width="40" height="30" viewBox="0 0 40 30" fill="none" xmlns="http://www.w3.org/2000/svg">
<rect width="40" height="30" rx="2.66667" fill="#594AF1"/>
<path d="M9.04066 8.81434H30.9593C31.5319 8.81434 32 8.35011 32 7.78217C32 7.21423 31.5369 6.75 30.9593 6.75L9.04066 6.75C8.46805 6.75 8 7.21423 8 7.78217C8 8.35011 8.46805 8.81434 9.04066 8.81434Z" fill="white"/>
<path d="M30.9593 13.9702H9.04066C8.46805 13.9702 8 14.4344 8 15.0024C8 15.5703 8.46805 16.0346 9.04066 16.0346H30.9593C31.5319 16.0346 32 15.5703 32 15.0024C32 14.4344 31.5319 13.9702 30.9593 13.9702Z" fill="white"/>
<path d="M30.9593 21.1855H9.04066C8.46805 21.1855 8 21.6448 8 22.2177C8 22.7906 8.46805 23.2499 9.04066 23.2499H30.9593C31.5319 23.2499 32 22.7906 32 22.2177C32 21.6448 31.5319 21.1855 30.9593 21.1855Z" fill="white"/>
</svg>
