<svg width="60" height="60" viewBox="0 0 60 60" fill="none" xmlns="http://www.w3.org/2000/svg">
<g clip-path="url(#clip0_5397_11387)">
<circle cx="30" cy="30" r="30" fill="#575757"/>
<path d="M20.586 47.3828C20.4219 47.3828 20.25 47.3672 20.1016 47.3516L16.5938 46.8672C14.9141 46.6406 13.3906 45.1328 13.1328 43.4219L12.6485 39.875C12.4844 38.7422 12.9688 37.2734 13.7813 36.4453L20.8828 29.3438C19.7344 24.75 21.0625 19.8906 24.4453 16.5469C29.6875 11.3203 38.211 11.3047 43.4766 16.5469C46.0156 19.0859 47.4063 22.4688 47.4063 26.0625C47.4063 29.6563 46.0156 33.0391 43.4766 35.5781C40.0781 38.9453 35.2422 40.2734 30.6797 39.1016L23.5625 46.2031C22.8672 46.9141 21.6485 47.3828 20.586 47.3828ZM33.9297 15.0391C31.1016 15.0391 28.2813 16.1094 26.1328 18.2578C23.2188 21.1563 22.1719 25.3906 23.3828 29.3438C23.5156 29.7813 23.3984 30.2344 23.0781 30.5547L15.4688 38.1562C15.1953 38.4297 14.9688 39.1406 15.0156 39.5156L15.5 43.0625C15.5938 43.6797 16.2578 44.375 16.875 44.4531L20.3985 44.9375C20.7891 45 21.5 44.7734 21.7735 44.5L29.4141 36.8828C29.7344 36.5625 30.2031 36.4609 30.625 36.5938C34.5235 37.8203 38.7813 36.7734 41.6953 33.8594C43.7656 31.7891 44.9141 29.0078 44.9141 26.0625C44.9141 23.1016 43.7656 20.3359 41.6953 18.2656C39.5938 16.125 36.7656 15.0391 33.9297 15.0391Z" fill="white"/>
<path d="M25.4531 43.8047C25.1484 43.8047 24.8359 43.6953 24.5938 43.4453L20.875 39.7266C20.4062 39.2578 20.4062 38.4844 20.875 38.0078C21.3438 37.5391 22.1172 37.5391 22.5938 38.0078L26.3125 41.7266C26.7813 42.1953 26.7813 42.9688 26.3125 43.4453C26.0703 43.6953 25.7578 43.8047 25.4531 43.8047ZM34.0469 29.5859C32.0391 29.5859 30.4063 27.9531 30.4063 25.9453C30.4063 23.9375 32.0391 22.3047 34.0469 22.3047C36.0547 22.3047 37.6875 23.9375 37.6875 25.9453C37.6875 27.9531 36.0547 29.5859 34.0469 29.5859ZM34.0469 24.7266C33.3828 24.7266 32.8359 25.2734 32.8359 25.9375C32.8359 26.6016 33.3828 27.1484 34.0469 27.1484C34.7109 27.1484 35.2578 26.6016 35.2578 25.9375C35.2578 25.2734 34.7109 24.7266 34.0469 24.7266Z" fill="white"/>
</g>
<defs>
<clipPath id="clip0_5397_11387">
<rect width="60" height="60" fill="white"/>
</clipPath>
</defs>
</svg>
