<svg width="60" height="60" viewBox="0 0 60 60" fill="none" xmlns="http://www.w3.org/2000/svg">
<g clip-path="url(#clip0_5397_11395)">
<circle cx="30" cy="30" r="30" fill="#575757"/>
<path d="M19.5708 41.591L19.5708 41.5911L19.5732 41.5935C22.872 44.8923 27.1032 46.5 31.4167 46.5C35.7335 46.5 39.9636 44.8067 43.2601 41.5102C43.6911 41.0792 43.6911 40.4209 43.2601 39.9899C42.8291 39.559 42.1709 39.559 41.7399 39.9899C36.0875 45.6423 26.8291 45.6423 21.1768 39.9899L21.1741 39.9873C18.3917 37.2868 16.9167 33.6026 16.9167 29.75C16.9167 25.8975 18.3917 22.2133 21.1741 19.5128L21.1742 19.5128L21.1794 19.5075C23.8799 16.7251 27.5641 15.25 31.4167 15.25C35.3511 15.25 38.954 16.7242 41.7399 19.5102C42.1709 19.9411 42.8291 19.9411 43.2601 19.5102C43.6911 19.0792 43.6911 18.4209 43.2601 17.9899C40.1302 14.8601 35.9001 13.0834 31.4167 13.0834C27.0162 13.0834 22.7876 14.8602 19.659 17.9042L19.6589 17.9041L19.6542 17.909C16.5279 21.1197 14.75 25.2647 14.75 29.75C14.75 34.2331 16.5263 38.462 19.5708 41.591Z" fill="white" stroke="white" stroke-width="0.5"/>
<path d="M24.9877 36.258C26.7077 38.0627 29.1089 38.9167 31.4166 38.9167C33.8112 38.9167 36.1264 38.0605 37.9268 36.2602C38.3577 35.8292 38.3577 35.1709 37.9268 34.7399C37.4958 34.309 36.8375 34.309 36.4065 34.7399C33.6708 37.4756 29.2458 37.4756 26.5101 34.7399C25.2246 33.4545 24.5 31.6852 24.5 29.8334C24.5 27.9816 25.2246 26.2123 26.5101 24.9268C29.2458 22.1911 33.6708 22.1911 36.4065 24.9268C36.8375 25.3578 37.4958 25.3578 37.9268 24.9268C38.3577 24.4959 38.3577 23.8376 37.9268 23.4066C34.3291 19.809 28.5875 19.809 24.9899 23.4066C23.2758 25.1207 22.3333 27.4345 22.3333 29.8334C22.3333 32.2313 23.275 34.5441 24.9877 36.258Z" fill="white" stroke="white" stroke-width="0.5"/>
</g>
<defs>
<clipPath id="clip0_5397_11395">
<rect width="60" height="60" fill="white"/>
</clipPath>
</defs>
</svg>
