<svg width="60" height="60" viewBox="0 0 60 60" fill="none" xmlns="http://www.w3.org/2000/svg">
<g clip-path="url(#clip0_5397_11371)">
<circle cx="30" cy="30" r="30" fill="#575757"/>
<path d="M24.6582 26.0085H19.3079V19.7665C19.3079 18.4076 19.5768 17.1408 20.1146 15.966C20.6525 14.7912 21.3956 13.758 22.3439 12.8662C23.2923 11.9745 24.4105 11.2739 25.6985 10.7643C26.9866 10.2548 28.3949 10 29.9236 10C31.2824 10 32.5916 10.2548 33.8514 10.7643C35.1111 11.2739 36.2293 11.9745 37.2059 12.8662C38.1826 13.758 38.9611 14.7912 39.5414 15.966C40.1217 17.1408 40.4119 18.4076 40.4119 19.7665V26.0085H35.2739V20.9554C35.2739 19.172 34.7785 17.7919 33.7877 16.8153C32.7969 15.8386 31.4522 15.3503 29.7537 15.3503C28.2251 15.3503 26.9936 15.8386 26.0594 16.8153C25.1253 17.7919 24.6582 19.172 24.6582 20.9554V26.0085ZM42.9597 28.5563C43.724 28.5563 44.3822 28.8323 44.9342 29.3843C45.4862 29.9363 45.7622 30.5945 45.7622 31.3588V44.5223C45.7622 45.2866 45.6277 46.0014 45.3588 46.6667C45.0899 47.3319 44.7219 47.9122 44.2548 48.4076C43.7877 48.903 43.2357 49.2923 42.5987 49.5754C41.9618 49.8585 41.2611 50 40.4968 50H19.0531C18.2887 50 17.5952 49.8585 16.9724 49.5754C16.3496 49.2923 15.8188 48.9172 15.38 48.4501C14.9413 47.983 14.6016 47.4381 14.3609 46.8153C14.1203 46.1925 14 45.5272 14 44.8195V31.3588C14 30.5945 14.2689 29.9363 14.8068 29.3843C15.3447 28.8323 15.9958 28.5563 16.7601 28.5563H19.3079H24.6582H35.2739H40.4119H42.9597Z" fill="white"/>
</g>
<defs>
<clipPath id="clip0_5397_11371">
<rect width="60" height="60" fill="white"/>
</clipPath>
</defs>
</svg>
