<svg width="615" height="100" viewBox="0 0 615 100" fill="none" xmlns="http://www.w3.org/2000/svg">
<rect width="100" height="100" rx="10" fill="#594AF1"/>
<path d="M50.0067 18.1C55.6467 18.1 60.5667 19.21 64.7667 21.43C68.9667 23.65 72.2067 26.95 74.4867 31.33C76.8267 35.65 77.9967 40.9 77.9967 47.08V82H66.2967V65.8H33.5367V82H22.0167V47.08C22.0167 40.9 23.1567 35.65 25.4367 31.33C27.7767 26.95 31.0467 23.65 35.2467 21.43C39.4467 19.21 44.3667 18.1 50.0067 18.1ZM66.2967 55.99V46C66.2967 40.18 64.8567 35.8 61.9767 32.86C59.0967 29.86 55.0767 28.36 49.9167 28.36C44.7567 28.36 40.7367 29.86 37.8567 32.86C34.9767 35.8 33.5367 40.18 33.5367 46V55.99H66.2967Z" fill="white"/>
<path d="M139.92 80L162.08 24H173.6L195.6 80H181.84L171.28 51.6C170.853 50.48 170.427 49.28 170 48C169.573 46.72 169.147 45.4133 168.72 44.08C168.293 42.6933 167.867 41.36 167.44 40.08C167.067 38.7467 166.747 37.52 166.48 36.4L168.88 36.32C168.56 37.6533 168.187 38.96 167.76 40.24C167.387 41.52 166.987 42.8 166.56 44.08C166.187 45.3067 165.76 46.56 165.28 47.84C164.8 49.0667 164.347 50.3467 163.92 51.68L153.36 80H139.92ZM150.48 69.28L154.72 59.04H180.48L184.64 69.28H150.48ZM214.926 80.88C211.779 80.88 209.086 80.2133 206.846 78.88C204.659 77.4933 202.952 75.52 201.726 72.96C200.552 70.4 199.966 67.3333 199.966 63.76V37.52H212.846V62C212.846 63.7067 213.112 65.1733 213.646 66.4C214.179 67.6267 214.979 68.5867 216.046 69.28C217.112 69.92 218.392 70.24 219.886 70.24C221.006 70.24 222.019 70.0533 222.926 69.68C223.886 69.3067 224.686 68.8 225.326 68.16C226.019 67.4667 226.552 66.6933 226.926 65.84C227.299 64.9333 227.486 63.9467 227.486 62.88V37.52H240.366V80H228.286L227.726 71.28L230.126 70.32C229.486 72.3467 228.419 74.16 226.926 75.76C225.432 77.3067 223.646 78.56 221.566 79.52C219.486 80.4267 217.272 80.88 214.926 80.88ZM251.774 80V37.52H263.934L264.494 51.36L262.094 48.72C262.734 46.4267 263.774 44.3733 265.214 42.56C266.707 40.7467 268.44 39.3067 270.414 38.24C272.387 37.1733 274.494 36.64 276.734 36.64C277.694 36.64 278.574 36.72 279.374 36.88C280.227 37.04 281 37.2267 281.694 37.44L278.174 51.6C277.587 51.2267 276.787 50.9333 275.774 50.72C274.814 50.4533 273.8 50.32 272.734 50.32C271.56 50.32 270.467 50.5333 269.454 50.96C268.44 51.3333 267.587 51.8933 266.894 52.64C266.2 53.3867 265.64 54.2667 265.214 55.28C264.84 56.2933 264.654 57.44 264.654 58.72V80H251.774ZM306.383 80.8C301.956 80.8 298.01 79.84 294.543 77.92C291.13 76 288.41 73.3867 286.383 70.08C284.41 66.7733 283.423 62.9867 283.423 58.72C283.423 54.4533 284.41 50.6667 286.383 47.36C288.41 44.0533 291.13 41.44 294.543 39.52C298.01 37.6 301.956 36.64 306.383 36.64C310.81 36.64 314.73 37.6 318.143 39.52C321.61 41.44 324.33 44.0533 326.303 47.36C328.276 50.6667 329.263 54.4533 329.263 58.72C329.263 62.9867 328.276 66.7733 326.303 70.08C324.33 73.3867 321.61 76 318.143 77.92C314.73 79.84 310.81 80.8 306.383 80.8ZM306.383 69.76C308.303 69.76 310.01 69.28 311.503 68.32C312.996 67.36 314.17 66.0533 315.023 64.4C315.876 62.7467 316.276 60.8533 316.223 58.72C316.276 56.5867 315.876 54.6933 315.023 53.04C314.17 51.3333 312.996 50 311.503 49.04C310.01 48.08 308.303 47.6 306.383 47.6C304.463 47.6 302.73 48.08 301.183 49.04C299.69 50 298.516 51.3333 297.663 53.04C296.81 54.6933 296.41 56.5867 296.463 58.72C296.41 60.8533 296.81 62.7467 297.663 64.4C298.516 66.0533 299.69 67.36 301.183 68.32C302.73 69.28 304.463 69.76 306.383 69.76ZM374.698 80L357.898 24H371.738L380.138 53.44C380.511 54.7733 380.831 56.1333 381.098 57.52C381.418 58.8533 381.658 60.1333 381.818 61.36C382.031 62.5867 382.191 63.7333 382.298 64.8C382.405 65.8133 382.511 66.6667 382.618 67.36H380.858C381.178 65.3867 381.445 63.6267 381.658 62.08C381.925 60.5333 382.218 59.0933 382.538 57.76C382.858 56.3733 383.258 54.9333 383.738 53.44L392.058 31.28H402.938L411.098 53.44C411.738 55.2 412.271 56.8533 412.698 58.4C413.125 59.9467 413.445 61.44 413.658 62.88C413.925 64.2667 414.138 65.6533 414.298 67.04L412.698 67.28C412.805 66.32 412.885 65.44 412.938 64.64C412.991 63.7867 413.045 62.9867 413.098 62.24C413.205 61.44 413.311 60.6133 413.418 59.76C413.525 58.9067 413.685 57.9733 413.898 56.96C414.111 55.8933 414.405 54.6933 414.778 53.36L423.098 24H436.618L419.818 80H409.418L396.138 47.76L397.658 47.92L385.418 80H374.698ZM456.36 80.72C452.787 80.72 449.587 79.7867 446.76 77.92C443.987 76 441.773 73.3867 440.12 70.08C438.467 66.72 437.64 62.9333 437.64 58.72C437.64 54.4 438.467 50.5867 440.12 47.28C441.773 43.9733 444.04 41.3867 446.92 39.52C449.8 37.6 453.08 36.64 456.76 36.64C458.787 36.64 460.627 36.9333 462.28 37.52C463.987 38.1067 465.48 38.9333 466.76 40C468.04 41.0133 469.133 42.2133 470.04 43.6C470.947 44.9333 471.613 46.3733 472.04 47.92L469.4 47.6V37.52H482.12V80H469.16V69.76L472.04 69.68C471.613 71.1733 470.92 72.5867 469.96 73.92C469 75.2533 467.827 76.4267 466.44 77.44C465.053 78.4533 463.507 79.2533 461.8 79.84C460.093 80.4267 458.28 80.72 456.36 80.72ZM459.88 69.92C461.853 69.92 463.56 69.4667 465 68.56C466.44 67.6533 467.56 66.3733 468.36 64.72C469.16 63.0133 469.56 61.0133 469.56 58.72C469.56 56.4267 469.16 54.4533 468.36 52.8C467.56 51.0933 466.44 49.7867 465 48.88C463.56 47.92 461.853 47.44 459.88 47.44C457.96 47.44 456.28 47.92 454.84 48.88C453.453 49.7867 452.36 51.0933 451.56 52.8C450.76 54.4533 450.36 56.4267 450.36 58.72C450.36 61.0133 450.76 63.0133 451.56 64.72C452.36 66.3733 453.453 67.6533 454.84 68.56C456.28 69.4667 457.96 69.92 459.88 69.92ZM493.494 80V20.8H506.294V80H493.494ZM517.791 80V20.8H530.591V80H517.791ZM561.467 80.8C556.774 80.8 552.694 79.8667 549.227 78C545.76 76.08 543.067 73.4933 541.147 70.24C539.227 66.9333 538.267 63.1733 538.267 58.96C538.267 55.7067 538.8 52.72 539.867 50C540.934 47.28 542.427 44.9333 544.347 42.96C546.267 40.9333 548.534 39.3867 551.147 38.32C553.814 37.2 556.72 36.64 559.867 36.64C562.854 36.64 565.574 37.1733 568.027 38.24C570.534 39.3067 572.694 40.8 574.507 42.72C576.32 44.64 577.707 46.9067 578.667 49.52C579.627 52.1333 580.054 54.9867 579.947 58.08L579.867 61.52H546.027L544.187 54.32H569.467L568.107 55.84V54.24C568 52.9067 567.574 51.7333 566.827 50.72C566.134 49.6533 565.2 48.8267 564.027 48.24C562.854 47.6533 561.52 47.36 560.027 47.36C557.947 47.36 556.16 47.7867 554.667 48.64C553.227 49.44 552.134 50.64 551.387 52.24C550.64 53.7867 550.267 55.7067 550.267 58C550.267 60.3467 550.747 62.4 551.707 64.16C552.72 65.8667 554.16 67.2 556.027 68.16C557.947 69.12 560.214 69.6 562.827 69.6C564.64 69.6 566.24 69.3333 567.627 68.8C569.067 68.2667 570.614 67.36 572.267 66.08L578.267 74.56C576.614 76 574.854 77.1733 572.987 78.08C571.12 78.9867 569.2 79.6533 567.227 80.08C565.307 80.56 563.387 80.8 561.467 80.8ZM591.622 80V26.8H604.422V80H591.622ZM584.102 48.72V37.52H612.662V48.72H584.102Z" fill="black" fill-opacity="0.8"/>
</svg>
