<svg width="211" height="60" viewBox="0 0 211 60" fill="none" xmlns="http://www.w3.org/2000/svg">
<path fill-rule="evenodd" clip-rule="evenodd" d="M1.75736 1.75736C0 3.51472 0 6.34315 0 12V48C0 53.6569 0 56.4853 1.75736 58.2426C3.51472 60 6.34315 60 12 60H48C53.6569 60 56.4853 60 58.2426 58.2426C60 56.4853 60 53.6569 60 48V12C60 6.34315 60 3.51472 58.2426 1.75736C56.4853 0 53.6569 0 48 0H12C6.34315 0 3.51472 0 1.75736 1.75736ZM38.402 12.658C35.882 11.326 32.93 10.66 29.546 10.66C26.162 10.66 23.21 11.326 20.69 12.658C18.17 13.99 16.208 15.97 14.804 18.598C13.436 21.19 12.752 24.34 12.752 28.048V49H19.664V39.28H39.32V49H46.34V28.048C46.34 24.34 45.638 21.19 44.234 18.598C42.866 15.97 40.922 13.99 38.402 12.658ZM39.32 27.4V33.394H19.664V27.4C19.664 23.908 20.528 21.28 22.256 19.516C23.984 17.716 26.396 16.816 29.492 16.816C32.588 16.816 35 17.716 36.728 19.516C38.456 21.28 39.32 23.908 39.32 27.4Z" fill="white"/>
<path d="M70.192 39L76.768 22.2H79.984L86.536 39H82.84L79.456 29.952C79.36 29.696 79.24 29.368 79.096 28.968C78.968 28.568 78.832 28.144 78.688 27.696C78.544 27.248 78.408 26.824 78.28 26.424C78.152 26.008 78.056 25.664 77.992 25.392L78.64 25.368C78.544 25.736 78.432 26.12 78.304 26.52C78.192 26.904 78.072 27.304 77.944 27.72C77.816 28.12 77.68 28.512 77.536 28.896C77.392 29.28 77.256 29.656 77.128 30.024L73.744 39H70.192ZM73.24 35.472L74.416 32.568H82.12L83.32 35.472H73.24ZM92.5486 39.24C91.6206 39.24 90.8206 39.04 90.1486 38.64C89.4926 38.224 88.9806 37.64 88.6126 36.888C88.2606 36.12 88.0846 35.2 88.0846 34.128V26.304H91.4926V33.576C91.4926 34.152 91.5886 34.656 91.7806 35.088C91.9726 35.504 92.2446 35.824 92.5966 36.048C92.9486 36.272 93.3806 36.384 93.8926 36.384C94.2606 36.384 94.6046 36.328 94.9246 36.216C95.2446 36.088 95.5166 35.912 95.7406 35.688C95.9646 35.464 96.1406 35.2 96.2686 34.896C96.3966 34.592 96.4606 34.264 96.4606 33.912V26.304H99.8686V39H96.6286L96.5086 36.384L97.1326 36.096C96.9406 36.688 96.6206 37.224 96.1726 37.704C95.7246 38.184 95.1886 38.56 94.5646 38.832C93.9406 39.104 93.2686 39.24 92.5486 39.24ZM103.298 39V26.304H106.586L106.706 30.384L106.13 29.544C106.322 28.888 106.634 28.296 107.066 27.768C107.498 27.224 108.002 26.8 108.578 26.496C109.17 26.192 109.786 26.04 110.426 26.04C110.698 26.04 110.962 26.064 111.218 26.112C111.474 26.16 111.69 26.216 111.866 26.28L110.954 30.024C110.762 29.928 110.53 29.848 110.258 29.784C109.986 29.704 109.706 29.664 109.418 29.664C109.034 29.664 108.674 29.736 108.338 29.88C108.018 30.008 107.738 30.2 107.498 30.456C107.258 30.696 107.066 30.984 106.922 31.32C106.794 31.656 106.73 32.024 106.73 32.424V39H103.298ZM119.186 39.24C117.89 39.24 116.73 38.96 115.706 38.4C114.698 37.824 113.898 37.04 113.306 36.048C112.73 35.056 112.442 33.92 112.442 32.64C112.442 31.36 112.73 30.232 113.306 29.256C113.898 28.264 114.698 27.48 115.706 26.904C116.73 26.328 117.89 26.04 119.186 26.04C120.466 26.04 121.61 26.328 122.618 26.904C123.642 27.48 124.442 28.264 125.018 29.256C125.594 30.232 125.882 31.36 125.882 32.64C125.882 33.92 125.594 35.056 125.018 36.048C124.442 37.04 123.642 37.824 122.618 38.4C121.61 38.96 120.466 39.24 119.186 39.24ZM119.186 36.264C119.81 36.264 120.37 36.112 120.866 35.808C121.362 35.488 121.746 35.056 122.018 34.512C122.306 33.952 122.45 33.328 122.45 32.64C122.45 31.936 122.306 31.312 122.018 30.768C121.746 30.208 121.362 29.776 120.866 29.472C120.37 29.152 119.81 28.992 119.186 28.992C118.546 28.992 117.978 29.152 117.482 29.472C116.986 29.792 116.594 30.224 116.306 30.768C116.018 31.312 115.882 31.936 115.898 32.64C115.882 33.328 116.018 33.952 116.306 34.512C116.594 35.056 116.986 35.488 117.482 35.808C117.978 36.112 118.546 36.264 119.186 36.264ZM139.478 39L134.366 22.2H138.062L140.798 31.584C140.91 31.92 141.006 32.288 141.086 32.688C141.182 33.072 141.254 33.448 141.302 33.816C141.366 34.168 141.414 34.504 141.446 34.824C141.494 35.128 141.534 35.384 141.566 35.592L140.99 35.568C141.134 34.896 141.254 34.336 141.35 33.888C141.446 33.424 141.534 33.016 141.614 32.664C141.71 32.296 141.822 31.928 141.95 31.56L144.59 24.624H147.566L150.158 31.56C150.35 32.04 150.502 32.504 150.614 32.952C150.742 33.384 150.846 33.808 150.926 34.224C151.006 34.624 151.086 35.032 151.166 35.448L150.638 35.544C150.686 35.208 150.718 34.92 150.734 34.68C150.766 34.424 150.79 34.192 150.806 33.984C150.838 33.776 150.87 33.568 150.902 33.36C150.934 33.136 150.982 32.88 151.046 32.592C151.11 32.288 151.206 31.936 151.334 31.536L154.046 22.2H157.694L152.534 39H149.87L145.718 29.064L146.102 29.112L142.238 39H139.478ZM163.808 39.24C162.752 39.24 161.8 38.952 160.952 38.376C160.104 37.8 159.432 37.016 158.936 36.024C158.44 35.032 158.192 33.896 158.192 32.616C158.192 31.336 158.44 30.208 158.936 29.232C159.448 28.24 160.136 27.464 161 26.904C161.864 26.328 162.848 26.04 163.952 26.04C164.576 26.04 165.144 26.136 165.656 26.328C166.184 26.504 166.64 26.752 167.024 27.072C167.424 27.392 167.76 27.76 168.032 28.176C168.304 28.592 168.496 29.04 168.608 29.52L167.888 29.4V26.304H171.272V39H167.84V35.952L168.608 35.88C168.48 36.328 168.272 36.752 167.984 37.152C167.696 37.552 167.336 37.912 166.904 38.232C166.488 38.536 166.016 38.784 165.488 38.976C164.96 39.152 164.4 39.24 163.808 39.24ZM164.744 36.288C165.384 36.288 165.944 36.136 166.424 35.832C166.904 35.528 167.272 35.104 167.528 34.56C167.8 34 167.936 33.352 167.936 32.616C167.936 31.896 167.8 31.264 167.528 30.72C167.272 30.176 166.904 29.752 166.424 29.448C165.944 29.128 165.384 28.968 164.744 28.968C164.12 28.968 163.568 29.128 163.088 29.448C162.624 29.752 162.256 30.176 161.984 30.72C161.712 31.264 161.576 31.896 161.576 32.616C161.576 33.352 161.712 34 161.984 34.56C162.256 35.104 162.624 35.528 163.088 35.832C163.568 36.136 164.12 36.288 164.744 36.288ZM174.712 39V21.24H178.12V39H174.712ZM181.603 39V21.24H185.011V39H181.603ZM194.259 39.24C192.883 39.24 191.683 38.96 190.659 38.4C189.635 37.84 188.835 37.072 188.259 36.096C187.683 35.12 187.395 34 187.395 32.736C187.395 31.76 187.555 30.864 187.875 30.048C188.195 29.232 188.643 28.528 189.219 27.936C189.795 27.328 190.475 26.864 191.259 26.544C192.059 26.208 192.923 26.04 193.851 26.04C194.715 26.04 195.515 26.2 196.251 26.52C196.987 26.824 197.619 27.264 198.147 27.84C198.691 28.4 199.107 29.064 199.395 29.832C199.683 30.6 199.811 31.44 199.779 32.352L199.755 33.408H189.555L189.003 31.32H196.947L196.563 31.752V31.224C196.531 30.792 196.387 30.4 196.131 30.048C195.891 29.696 195.579 29.424 195.195 29.232C194.811 29.04 194.379 28.944 193.899 28.944C193.195 28.944 192.595 29.08 192.099 29.352C191.619 29.624 191.251 30.024 190.995 30.552C190.739 31.08 190.611 31.72 190.611 32.472C190.611 33.24 190.771 33.904 191.091 34.464C191.427 35.024 191.891 35.464 192.483 35.784C193.091 36.088 193.803 36.24 194.619 36.24C195.179 36.24 195.691 36.152 196.155 35.976C196.619 35.8 197.115 35.496 197.643 35.064L199.275 37.344C198.811 37.76 198.299 38.112 197.739 38.4C197.179 38.672 196.603 38.88 196.011 39.024C195.419 39.168 194.835 39.24 194.259 39.24ZM203.522 39V23.088H206.93V39H203.522ZM201.146 29.352V26.304H209.522V29.352H201.146Z" fill="white"/>
</svg>
