<svg width="1100" height="980" viewBox="0 0 1100 980" fill="none" xmlns="http://www.w3.org/2000/svg">
<g filter="url(#filter0_f_5395_10527)">
<circle cx="560.6" cy="490" r="330" fill="#FF614C" fill-opacity="0.5"/>
</g>
<circle cx="560.6" cy="490" r="330" fill="#FF614C"/>
<g clip-path="url(#clip0_5395_10527)">
<rect x="336.2" y="130" width="450" height="720" rx="38.4" fill="white"/>
<rect x="336.2" y="742" width="450" height="108" fill="white"/>
<rect x="570.2" y="756.4" width="192" height="57.6" rx="14.4" fill="#594AF1"/>
<path d="M639.417 791.295C636.062 791.295 633.978 788.916 633.978 785.094V785.077C633.978 781.238 636.054 778.868 639.409 778.868C642.099 778.868 644.142 780.574 644.421 782.994V783.059H642.345L642.337 783.027C642.034 781.624 640.902 780.697 639.409 780.697C637.399 780.697 636.144 782.379 636.144 785.069V785.086C636.144 787.784 637.399 789.466 639.417 789.466C640.918 789.466 642.034 788.629 642.337 787.325L642.345 787.284H644.421V787.341C644.109 789.712 642.148 791.295 639.417 791.295ZM650.442 791.18C647.751 791.18 646.127 789.425 646.127 786.521V786.505C646.127 783.625 647.776 781.862 650.442 781.862C653.116 781.862 654.757 783.617 654.757 786.505V786.521C654.757 789.425 653.124 791.18 650.442 791.18ZM650.442 789.523C651.861 789.523 652.665 788.416 652.665 786.529V786.513C652.665 784.626 651.853 783.511 650.442 783.511C649.023 783.511 648.211 784.626 648.211 786.513V786.529C648.211 788.416 649.023 789.523 650.442 789.523ZM656.807 791V782.034H658.85V783.404H658.989C659.416 782.444 660.277 781.862 661.573 781.862C663.575 781.862 664.666 783.068 664.666 785.2V791H662.623V785.676C662.623 784.282 662.057 783.576 660.819 783.576C659.605 783.576 658.85 784.429 658.85 785.775V791H656.807ZM667.734 791V783.617H666.266V782.034H667.734V781.148C667.734 779.36 668.645 778.482 670.638 778.482C671.073 778.482 671.442 778.507 671.77 778.564V779.991C671.614 779.967 671.36 779.95 671.073 779.95C670.113 779.95 669.744 780.41 669.744 781.263V782.034H671.688V783.617H669.777V791H667.734ZM674.707 780.533C674.034 780.533 673.484 780 673.484 779.327C673.484 778.662 674.034 778.121 674.707 778.121C675.371 778.121 675.921 778.662 675.921 779.327C675.921 780 675.371 780.533 674.707 780.533ZM673.681 791V782.034H675.724V791H673.681ZM678.234 791V782.034H680.277V783.412H680.416C680.72 782.452 681.54 781.886 682.721 781.886C683.033 781.886 683.353 781.927 683.55 781.985V783.814C683.222 783.748 682.885 783.699 682.532 783.699C681.171 783.699 680.277 784.511 680.277 785.791V791H678.234ZM685.338 791V782.034H687.38V783.429H687.52C687.905 782.428 688.808 781.862 689.981 781.862C691.195 781.862 692.081 782.485 692.466 783.478H692.606C693.041 782.502 694.074 781.862 695.321 781.862C697.126 781.862 698.209 782.969 698.209 784.831V791H696.166V785.332C696.166 784.167 695.633 783.576 694.542 783.576C693.475 783.576 692.786 784.372 692.786 785.397V791H690.744V785.184C690.744 784.191 690.129 783.576 689.128 783.576C688.119 783.576 687.38 784.429 687.38 785.545V791H685.338Z" fill="white"/>
<path d="M434.314 791.295C430.959 791.295 428.875 788.916 428.875 785.094V785.077C428.875 781.238 430.951 778.868 434.306 778.868C436.996 778.868 439.039 780.574 439.318 782.994V783.059H437.243L437.234 783.027C436.931 781.624 435.799 780.697 434.306 780.697C432.296 780.697 431.041 782.379 431.041 785.069V785.086C431.041 787.784 432.296 789.466 434.314 789.466C435.815 789.466 436.931 788.629 437.234 787.325L437.243 787.284H439.318V787.341C439.006 789.712 437.046 791.295 434.314 791.295ZM443.912 791.148C442.205 791.148 440.967 790.098 440.967 788.465V788.449C440.967 786.849 442.189 785.914 444.371 785.783L446.676 785.643V784.872C446.676 783.978 446.094 783.486 444.995 783.486C444.059 783.486 443.452 783.822 443.247 784.413L443.239 784.446H441.311L441.32 784.372C441.516 782.862 442.96 781.862 445.093 781.862C447.398 781.862 448.694 782.977 448.694 784.872V791H446.676V789.77H446.537C446.045 790.639 445.093 791.148 443.912 791.148ZM442.985 788.367C442.985 789.13 443.633 789.581 444.535 789.581C445.766 789.581 446.676 788.777 446.676 787.711V786.989L444.658 787.12C443.518 787.194 442.985 787.612 442.985 788.35V788.367ZM451.147 791V782.034H453.189V783.404H453.329C453.755 782.444 454.617 781.862 455.913 781.862C457.914 781.862 459.005 783.068 459.005 785.2V791H456.963V785.676C456.963 784.282 456.397 783.576 455.158 783.576C453.944 783.576 453.189 784.429 453.189 785.775V791H451.147ZM465.264 791.18C462.566 791.18 460.974 789.433 460.974 786.505V786.488C460.974 783.593 462.557 781.862 465.256 781.862C467.561 781.862 468.939 783.141 469.169 784.995V785.028H467.241L467.233 785.004C467.045 784.134 466.38 783.511 465.264 783.511C463.87 783.511 463.05 784.61 463.05 786.488V786.505C463.05 788.408 463.878 789.523 465.264 789.523C466.323 789.523 466.971 789.039 467.225 788.096L467.241 788.063L469.169 788.055L469.153 788.121C468.857 789.958 467.537 791.18 465.264 791.18ZM474.952 791.18C472.286 791.18 470.67 789.392 470.67 786.537V786.529C470.67 783.707 472.303 781.862 474.854 781.862C477.405 781.862 478.98 783.65 478.98 786.357V787.03H472.713C472.738 788.637 473.607 789.573 474.993 789.573C476.101 789.573 476.732 789.015 476.929 788.605L476.954 788.547H478.898L478.873 788.621C478.586 789.778 477.389 791.18 474.952 791.18ZM474.879 783.461C473.738 783.461 472.885 784.232 472.729 785.66H476.987C476.847 784.191 476.019 783.461 474.879 783.461ZM481.105 791V778.564H483.147V791H481.105Z" fill="#594AF1"/>
<rect x="360.8" y="757" width="190.8" height="56.4" rx="13.8" stroke="black" stroke-opacity="0.15" stroke-width="1.2"/>
<rect x="360.2" y="223.6" width="402" height="72" rx="14.4" fill="#F9FAFC"/>
<rect x="360.5" y="223.9" width="401.4" height="71.4" rx="14.1" stroke="black" stroke-opacity="0.05" stroke-width="0.6"/>
<path d="M384.2 248.8C384.2 245.406 384.2 243.709 385.254 242.654C386.309 241.6 388.006 241.6 391.4 241.6H413C416.394 241.6 418.091 241.6 419.146 242.654C420.2 243.709 420.2 245.406 420.2 248.8V270.4C420.2 273.794 420.2 275.491 419.146 276.546C418.091 277.6 416.394 277.6 413 277.6H391.4C388.006 277.6 386.309 277.6 385.254 276.546C384.2 275.491 384.2 273.794 384.2 270.4V248.8Z" fill="url(#paint0_linear_5395_10527)"/>
<mask id="mask0_5395_10527" style="mask-type:alpha" maskUnits="userSpaceOnUse" x="384" y="241" width="37" height="37">
<path d="M384.2 248.8C384.2 245.406 384.2 243.709 385.254 242.654C386.309 241.6 388.006 241.6 391.4 241.6H413C416.394 241.6 418.091 241.6 419.146 242.654C420.2 243.709 420.2 245.406 420.2 248.8V270.4C420.2 273.794 420.2 275.491 419.146 276.546C418.091 277.6 416.394 277.6 413 277.6H391.4C388.006 277.6 386.309 277.6 385.254 276.546C384.2 275.491 384.2 273.794 384.2 270.4V248.8Z" fill="#87B9F8"/>
</mask>
<g mask="url(#mask0_5395_10527)">
<g filter="url(#filter1_f_5395_10527)">
<circle cx="420.02" cy="245.74" r="13.86" fill="#D65A5A"/>
</g>
<path d="M371.96 271.999L395 250.6L410.667 252.784L412.28 271.126L392.926 290.56L379.333 285.319L371.96 271.999Z" fill="url(#paint1_linear_5395_10527)" fill-opacity="0.8"/>
<path d="M402.168 247.796C404.198 247.796 405.969 248.196 407.481 248.995C408.993 249.794 410.16 250.982 410.98 252.559C411.823 254.114 412.244 256.004 412.244 258.229V270.8H408.032V264.968H396.238V270.8H392.091V258.229C392.091 256.004 392.502 254.114 393.322 252.559C394.165 250.982 395.342 249.794 396.854 248.995C398.366 248.196 400.137 247.796 402.168 247.796ZM408.032 261.436V257.84C408.032 255.745 407.514 254.168 406.477 253.11C405.44 252.03 403.993 251.49 402.135 251.49C400.278 251.49 398.83 252.03 397.794 253.11C396.757 254.168 396.238 255.745 396.238 257.84V261.436H408.032Z" fill="black" fill-opacity="0.1"/>
<path d="M402.168 247.796C404.198 247.796 405.969 248.196 407.481 248.995C408.993 249.794 410.16 250.982 410.98 252.559C411.823 254.114 412.244 256.004 412.244 258.229V270.8H408.032V264.968H396.238V270.8H392.091V258.229C392.091 256.004 392.502 254.114 393.322 252.559C394.165 250.982 395.342 249.794 396.854 248.995C398.366 248.196 400.137 247.796 402.168 247.796ZM408.032 261.436V257.84C408.032 255.745 407.514 254.168 406.477 253.11C405.44 252.03 403.993 251.49 402.135 251.49C400.278 251.49 398.83 252.03 397.794 253.11C396.757 254.168 396.238 255.745 396.238 257.84V261.436H408.032Z" fill="white"/>
</g>
<path d="M441.962 257.6V245.197H443.742V250.045H443.873C444.308 249.093 445.161 248.519 446.457 248.519C448.45 248.519 449.55 249.709 449.55 251.833V257.6H447.778V252.252C447.778 250.775 447.163 250.045 445.858 250.045C444.554 250.045 443.742 250.939 443.742 252.375V257.6H441.962ZM455.398 257.657C453.438 257.657 452.634 256.968 452.634 255.254V250.094H451.239V248.691H452.634V246.444H454.447V248.691H456.358V250.094H454.447V254.827C454.447 255.787 454.808 256.181 455.686 256.181C455.956 256.181 456.112 256.173 456.358 256.148V257.567C456.071 257.616 455.743 257.657 455.398 257.657ZM461.83 257.657C459.869 257.657 459.065 256.968 459.065 255.254V250.094H457.671V248.691H459.065V246.444H460.878V248.691H462.789V250.094H460.878V254.827C460.878 255.787 461.239 256.181 462.117 256.181C462.388 256.181 462.543 256.173 462.789 256.148V257.567C462.502 257.616 462.174 257.657 461.83 257.657ZM464.865 260.57V248.691H466.645V250.094H466.776C467.293 249.118 468.269 248.536 469.516 248.536C471.764 248.536 473.207 250.332 473.207 253.137V253.154C473.207 255.976 471.78 257.748 469.516 257.748C468.294 257.748 467.252 257.149 466.776 256.189H466.645V260.57H464.865ZM469.016 256.23C470.5 256.23 471.395 255.065 471.395 253.154V253.137C471.395 251.218 470.5 250.061 469.016 250.061C467.531 250.061 466.612 251.234 466.612 253.137V253.154C466.612 255.057 467.531 256.23 469.016 256.23ZM478.589 257.772C476.439 257.772 475.078 256.763 474.905 255.27V255.262H476.686L476.694 255.27C476.915 255.943 477.563 256.394 478.621 256.394C479.721 256.394 480.484 255.894 480.484 255.164V255.147C480.484 254.589 480.065 254.212 479.032 253.974L477.613 253.646C475.931 253.261 475.152 252.498 475.152 251.193V251.185C475.152 249.635 476.595 248.519 478.613 248.519C480.648 248.519 481.952 249.536 482.108 250.988V250.996H480.41V250.98C480.238 250.357 479.606 249.889 478.605 249.889C477.629 249.889 476.923 250.373 476.923 251.087V251.103C476.923 251.661 477.334 252.005 478.334 252.243L479.745 252.563C481.46 252.965 482.28 253.695 482.28 254.983V255C482.28 256.648 480.705 257.772 478.589 257.772ZM485.775 251.521C485.094 251.521 484.569 250.996 484.569 250.332C484.569 249.659 485.094 249.134 485.775 249.134C486.455 249.134 486.972 249.659 486.972 250.332C486.972 250.996 486.455 251.521 485.775 251.521ZM485.775 257.723C485.094 257.723 484.569 257.198 484.569 256.534C484.569 255.861 485.094 255.336 485.775 255.336C486.455 255.336 486.972 255.861 486.972 256.534C486.972 257.198 486.455 257.723 485.775 257.723ZM493.715 245.197L490.098 260.57H488.424L492.042 245.197H493.715ZM499.014 245.197L495.397 260.57H493.723L497.341 245.197H499.014ZM502.747 257.748C501.049 257.748 499.794 256.714 499.794 255.098V255.082C499.794 253.49 500.991 252.563 503.116 252.432L505.528 252.293V251.505C505.528 250.529 504.913 249.987 503.707 249.987C502.722 249.987 502.074 250.348 501.861 250.98L501.853 251.013H500.138L500.146 250.955C500.36 249.495 501.763 248.519 503.789 248.519C506.028 248.519 507.291 249.635 507.291 251.505V257.6H505.528V256.337H505.388C504.863 257.239 503.928 257.748 502.747 257.748ZM501.566 255.024C501.566 255.845 502.263 256.328 503.223 256.328C504.552 256.328 505.528 255.459 505.528 254.311V253.548L503.354 253.687C502.123 253.761 501.566 254.204 501.566 255.008V255.024ZM512.771 257.772C510.761 257.772 509.72 256.566 509.72 254.458V248.691H511.5V254.04C511.5 255.516 512.041 256.246 513.345 256.246C514.773 256.246 515.536 255.352 515.536 253.917V248.691H517.307V257.6H515.536V256.255H515.396C514.97 257.214 514.067 257.772 512.771 257.772ZM519.875 257.6V248.691H521.655V250.037H521.786C522.106 249.093 522.935 248.536 524.124 248.536C524.411 248.536 524.723 248.577 524.904 248.618V250.258C524.584 250.193 524.28 250.152 523.944 250.152C522.582 250.152 521.655 250.988 521.655 252.276V257.6H519.875ZM530.145 257.772C527.529 257.772 525.929 256.025 525.929 253.154V253.137C525.929 250.275 527.537 248.519 530.145 248.519C532.746 248.519 534.354 250.266 534.354 253.137V253.154C534.354 256.025 532.754 257.772 530.145 257.772ZM530.145 256.287C531.671 256.287 532.541 255.123 532.541 253.154V253.137C532.541 251.161 531.671 250.004 530.145 250.004C528.611 250.004 527.75 251.161 527.75 253.137V253.154C527.75 255.131 528.611 256.287 530.145 256.287ZM537.848 257.6L535.387 248.691H537.175L538.775 255.566H538.906L540.744 248.691H542.434L544.271 255.566H544.411L546.002 248.691H547.766L545.313 257.6H543.484L541.638 250.955H541.498L539.661 257.6H537.848ZM551.785 257.748C550.087 257.748 548.832 256.714 548.832 255.098V255.082C548.832 253.49 550.03 252.563 552.154 252.432L554.566 252.293V251.505C554.566 250.529 553.951 249.987 552.745 249.987C551.761 249.987 551.113 250.348 550.899 250.98L550.891 251.013H549.177L549.185 250.955C549.398 249.495 550.801 248.519 552.827 248.519C555.066 248.519 556.33 249.635 556.33 251.505V257.6H554.566V256.337H554.427C553.902 257.239 552.966 257.748 551.785 257.748ZM550.604 255.024C550.604 255.845 551.301 256.328 552.261 256.328C553.59 256.328 554.566 255.459 554.566 254.311V253.548L552.392 253.687C551.162 253.761 550.604 254.204 550.604 255.008V255.024ZM558.922 257.6V245.197H560.702V257.6H558.922ZM563.434 257.6V245.197H565.214V257.6H563.434ZM571.604 257.772C568.995 257.772 567.42 255.992 567.42 253.17V253.162C567.42 250.381 569.028 248.519 571.514 248.519C573.999 248.519 575.525 250.316 575.525 252.99V253.613H569.209C569.241 255.32 570.177 256.312 571.645 256.312C572.785 256.312 573.466 255.746 573.679 255.287L573.712 255.221L575.427 255.213L575.41 255.287C575.115 256.46 573.884 257.772 571.604 257.772ZM571.522 249.979C570.308 249.979 569.389 250.808 569.233 252.342H573.761C573.622 250.75 572.728 249.979 571.522 249.979ZM581.005 257.657C579.044 257.657 578.24 256.968 578.24 255.254V250.094H576.846V248.691H578.24V246.444H580.053V248.691H581.964V250.094H580.053V254.827C580.053 255.787 580.414 256.181 581.292 256.181C581.563 256.181 581.718 256.173 581.964 256.148V257.567C581.677 257.616 581.349 257.657 581.005 257.657ZM585.41 257.723C584.729 257.723 584.204 257.198 584.204 256.534C584.204 255.861 584.729 255.336 585.41 255.336C586.091 255.336 586.607 255.861 586.607 256.534C586.607 257.198 586.091 257.723 585.41 257.723ZM592.776 260.742C590.512 260.742 589.118 259.749 588.904 258.264L588.921 258.248H590.717L590.725 258.264C590.873 258.88 591.595 259.314 592.801 259.314C594.269 259.314 595.139 258.625 595.139 257.411V255.656H595.007C594.466 256.624 593.482 257.165 592.259 257.165C589.971 257.165 588.56 255.402 588.56 252.891V252.875C588.56 250.332 589.979 248.536 592.292 248.536C593.539 248.536 594.507 249.151 595.024 250.152H595.13V248.691H596.902V257.42C596.902 259.446 595.303 260.742 592.776 260.742ZM592.752 255.697C594.261 255.697 595.171 254.548 595.171 252.883V252.867C595.171 251.21 594.253 250.045 592.752 250.045C591.234 250.045 590.381 251.21 590.381 252.867V252.883C590.381 254.54 591.234 255.697 592.752 255.697ZM600.389 247.1C599.773 247.1 599.273 246.6 599.273 245.993C599.273 245.377 599.773 244.877 600.389 244.877C600.996 244.877 601.504 245.377 601.504 245.993C601.504 246.6 600.996 247.1 600.389 247.1ZM599.495 257.6V248.691H601.266V257.6H599.495ZM607.222 257.657C605.261 257.657 604.457 256.968 604.457 255.254V250.094H603.063V248.691H604.457V246.444H606.27V248.691H608.182V250.094H606.27V254.827C606.27 255.787 606.631 256.181 607.509 256.181C607.78 256.181 607.936 256.173 608.182 256.148V257.567C607.895 257.616 607.566 257.657 607.222 257.657ZM610.339 257.6V245.197H612.119V250.045H612.25C612.685 249.093 613.538 248.519 614.834 248.519C616.828 248.519 617.927 249.709 617.927 251.833V257.6H616.155V252.252C616.155 250.775 615.54 250.045 614.236 250.045C612.931 250.045 612.119 250.939 612.119 252.375V257.6H610.339ZM623.382 257.772C621.372 257.772 620.33 256.566 620.33 254.458V248.691H622.111V254.04C622.111 255.516 622.652 256.246 623.956 256.246C625.384 256.246 626.147 255.352 626.147 253.917V248.691H627.918V257.6H626.147V256.255H626.007C625.58 257.214 624.678 257.772 623.382 257.772ZM635.219 257.748C633.972 257.748 632.996 257.173 632.479 256.197H632.348V257.6H630.568V245.197H632.348V250.102H632.479C632.955 249.143 633.997 248.536 635.219 248.536C637.483 248.536 638.911 250.316 638.911 253.137V253.154C638.911 255.951 637.467 257.748 635.219 257.748ZM634.719 256.23C636.204 256.23 637.098 255.065 637.098 253.154V253.137C637.098 251.226 636.204 250.061 634.719 250.061C633.234 250.061 632.315 251.234 632.315 253.137V253.154C632.315 255.057 633.234 256.23 634.719 256.23ZM642.208 257.723C641.527 257.723 641.002 257.198 641.002 256.534C641.002 255.861 641.527 255.336 642.208 255.336C642.889 255.336 643.406 255.861 643.406 256.534C643.406 257.198 642.889 257.723 642.208 257.723ZM647.064 247.1C646.449 247.1 645.949 246.6 645.949 245.993C645.949 245.377 646.449 244.877 647.064 244.877C647.672 244.877 648.18 245.377 648.18 245.993C648.18 246.6 647.672 247.1 647.064 247.1ZM646.17 257.6V248.691H647.942V257.6H646.17ZM654.308 257.772C651.691 257.772 650.091 256.025 650.091 253.154V253.137C650.091 250.275 651.699 248.519 654.308 248.519C656.908 248.519 658.516 250.266 658.516 253.137V253.154C658.516 256.025 656.916 257.772 654.308 257.772ZM654.308 256.287C655.834 256.287 656.703 255.123 656.703 253.154V253.137C656.703 251.161 655.834 250.004 654.308 250.004C652.774 250.004 651.913 251.161 651.913 253.137V253.154C651.913 255.131 652.774 256.287 654.308 256.287ZM664.652 245.197L661.034 260.57H659.361L662.979 245.197H664.652ZM668.384 257.748C666.686 257.748 665.431 256.714 665.431 255.098V255.082C665.431 253.49 666.629 252.563 668.754 252.432L671.165 252.293V251.505C671.165 250.529 670.55 249.987 669.344 249.987C668.36 249.987 667.712 250.348 667.498 250.98L667.49 251.013H665.776L665.784 250.955C665.997 249.495 667.4 248.519 669.426 248.519C671.666 248.519 672.929 249.635 672.929 251.505V257.6H671.165V256.337H671.026C670.501 257.239 669.566 257.748 668.384 257.748ZM667.203 255.024C667.203 255.845 667.9 256.328 668.86 256.328C670.189 256.328 671.165 255.459 671.165 254.311V253.548L668.991 253.687C667.761 253.761 667.203 254.204 667.203 255.008V255.024ZM678.409 257.772C676.399 257.772 675.357 256.566 675.357 254.458V248.691H677.137V254.04C677.137 255.516 677.679 256.246 678.983 256.246C680.41 256.246 681.173 255.352 681.173 253.917V248.691H682.945V257.6H681.173V256.255H681.034C680.607 257.214 679.705 257.772 678.409 257.772ZM685.513 257.6V248.691H687.293V250.037H687.424C687.744 249.093 688.572 248.536 689.762 248.536C690.049 248.536 690.361 248.577 690.541 248.618V250.258C690.221 250.193 689.918 250.152 689.581 250.152C688.22 250.152 687.293 250.988 687.293 252.276V257.6H685.513ZM695.783 257.772C693.166 257.772 691.566 256.025 691.566 253.154V253.137C691.566 250.275 693.174 248.519 695.783 248.519C698.383 248.519 699.991 250.266 699.991 253.137V253.154C699.991 256.025 698.391 257.772 695.783 257.772ZM695.783 256.287C697.309 256.287 698.178 255.123 698.178 253.154V253.137C698.178 251.161 697.309 250.004 695.783 250.004C694.249 250.004 693.388 251.161 693.388 253.137V253.154C693.388 255.131 694.249 256.287 695.783 256.287ZM702.091 253.646V252.014H707.579V253.646H702.091ZM445.243 277.657C443.282 277.657 442.479 276.968 442.479 275.254V270.094H441.084V268.691H442.479V266.444H444.291V268.691H446.203V270.094H444.291V274.827C444.291 275.787 444.652 276.181 445.53 276.181C445.801 276.181 445.957 276.173 446.203 276.148V277.567C445.916 277.616 445.588 277.657 445.243 277.657ZM451.92 277.772C449.312 277.772 447.737 275.992 447.737 273.17V273.162C447.737 270.381 449.345 268.519 451.83 268.519C454.316 268.519 455.841 270.316 455.841 272.99V273.613H449.525C449.558 275.32 450.493 276.312 451.961 276.312C453.102 276.312 453.782 275.746 453.996 275.287L454.029 275.221L455.743 275.213L455.727 275.287C455.431 276.46 454.201 277.772 451.92 277.772ZM451.838 269.979C450.624 269.979 449.705 270.808 449.55 272.342H454.078C453.938 270.75 453.044 269.979 451.838 269.979ZM461.198 277.772C459.049 277.772 457.687 276.763 457.515 275.27V275.262H459.295L459.303 275.27C459.525 275.943 460.173 276.394 461.231 276.394C462.33 276.394 463.093 275.894 463.093 275.164V275.147C463.093 274.589 462.675 274.212 461.641 273.974L460.222 273.646C458.54 273.261 457.761 272.498 457.761 271.193V271.185C457.761 269.635 459.205 268.519 461.223 268.519C463.257 268.519 464.561 269.536 464.717 270.988V270.996H463.019V270.98C462.847 270.357 462.215 269.889 461.214 269.889C460.238 269.889 459.533 270.373 459.533 271.087V271.103C459.533 271.661 459.943 272.005 460.944 272.243L462.355 272.563C464.069 272.965 464.889 273.695 464.889 274.983V275C464.889 276.648 463.314 277.772 461.198 277.772ZM470.312 277.657C468.351 277.657 467.547 276.968 467.547 275.254V270.094H466.153V268.691H467.547V266.444H469.36V268.691H471.271V270.094H469.36V274.827C469.36 275.787 469.721 276.181 470.599 276.181C470.87 276.181 471.025 276.173 471.271 276.148V277.567C470.984 277.616 470.656 277.657 470.312 277.657ZM473.043 273.646V272.014H478.531V273.646H473.043ZM484.323 277.748C482.083 277.748 480.631 275.951 480.631 273.154V273.137C480.631 270.316 482.059 268.536 484.323 268.536C485.545 268.536 486.587 269.143 487.063 270.102H487.202V265.197H488.974V277.6H487.202V276.197H487.063C486.546 277.173 485.57 277.748 484.323 277.748ZM484.831 276.23C486.316 276.23 487.227 275.057 487.227 273.154V273.137C487.227 271.234 486.308 270.061 484.831 270.061C483.338 270.061 482.444 271.226 482.444 273.137V273.154C482.444 275.065 483.338 276.23 484.831 276.23ZM494.068 277.748C492.37 277.748 491.115 276.714 491.115 275.098V275.082C491.115 273.49 492.313 272.563 494.437 272.432L496.849 272.293V271.505C496.849 270.529 496.234 269.987 495.028 269.987C494.043 269.987 493.395 270.348 493.182 270.98L493.174 271.013H491.459L491.468 270.955C491.681 269.495 493.084 268.519 495.11 268.519C497.349 268.519 498.613 269.635 498.613 271.505V277.6H496.849V276.337H496.709C496.184 277.239 495.249 277.748 494.068 277.748ZM492.887 275.024C492.887 275.845 493.584 276.328 494.544 276.328C495.873 276.328 496.849 275.459 496.849 274.311V273.548L494.675 273.687C493.445 273.761 492.887 274.204 492.887 275.008V275.024ZM501.123 280.57V268.691H502.903V270.094H503.034C503.551 269.118 504.527 268.536 505.774 268.536C508.021 268.536 509.465 270.332 509.465 273.137V273.154C509.465 275.976 508.038 277.748 505.774 277.748C504.552 277.748 503.51 277.149 503.034 276.189H502.903V280.57H501.123ZM505.273 276.23C506.758 276.23 507.652 275.065 507.652 273.154V273.137C507.652 271.218 506.758 270.061 505.273 270.061C503.789 270.061 502.87 271.234 502.87 273.137V273.154C502.87 275.057 503.789 276.23 505.273 276.23ZM511.606 280.57V268.691H513.386V270.094H513.518C514.034 269.118 515.011 268.536 516.257 268.536C518.505 268.536 519.949 270.332 519.949 273.137V273.154C519.949 275.976 518.521 277.748 516.257 277.748C515.035 277.748 513.993 277.149 513.518 276.189H513.386V280.57H511.606ZM515.757 276.23C517.242 276.23 518.136 275.065 518.136 273.154V273.137C518.136 271.218 517.242 270.061 515.757 270.061C514.272 270.061 513.354 271.234 513.354 273.137V273.154C513.354 275.057 514.272 276.23 515.757 276.23ZM526.101 265.197L522.484 280.57H520.81L524.428 265.197H526.101Z" fill="black" fill-opacity="0.5"/>
<path d="M362.524 609.2V608.166L367.626 601.67V601.538H362.532V600.357H369.308V601.415L364.23 607.888V608.019H369.332V609.2H362.524ZM371.867 609.2V596.846H373.295V604.221H373.426L377.248 600.357H378.979L375.124 604.073L379.234 609.2H377.437L374.123 605.041L373.295 605.845V609.2H371.867ZM383.089 609.356C381.407 609.356 380.136 608.339 380.136 606.731V606.714C380.136 605.139 381.301 604.229 383.36 604.106L385.895 603.95V603.146C385.895 602.055 385.23 601.464 383.909 601.464C382.851 601.464 382.154 601.858 381.924 602.547L381.916 602.572H380.489L380.497 602.523C380.727 601.136 382.072 600.201 383.959 600.201C386.116 600.201 387.322 601.309 387.322 603.146V609.2H385.895V607.896H385.763C385.205 608.839 384.279 609.356 383.089 609.356ZM381.596 606.698C381.596 607.592 382.359 608.117 383.384 608.117C384.836 608.117 385.895 607.166 385.895 605.902V605.098L383.532 605.246C382.187 605.328 381.596 605.804 381.596 606.682V606.698ZM389.93 612.153V600.357H391.358V601.768H391.489C392.03 600.784 393.015 600.201 394.245 600.201C396.485 600.201 397.953 602.014 397.953 604.77V604.787C397.953 607.559 396.493 609.356 394.245 609.356C393.031 609.356 391.973 608.749 391.489 607.805H391.358V612.153H389.93ZM393.917 608.093C395.533 608.093 396.493 606.846 396.493 604.787V604.77C396.493 602.711 395.533 601.464 393.917 601.464C392.309 601.464 391.325 602.728 391.325 604.77V604.787C391.325 606.829 392.309 608.093 393.917 608.093ZM400.184 612.153V600.357H401.612V601.768H401.743C402.284 600.784 403.269 600.201 404.499 600.201C406.739 600.201 408.207 602.014 408.207 604.77V604.787C408.207 607.559 406.747 609.356 404.499 609.356C403.285 609.356 402.227 608.749 401.743 607.805H401.612V612.153H400.184ZM404.171 608.093C405.787 608.093 406.747 606.846 406.747 604.787V604.77C406.747 602.711 405.787 601.464 404.171 601.464C402.563 601.464 401.579 602.728 401.579 604.77V604.787C401.579 606.829 402.563 608.093 404.171 608.093ZM418.305 609.266C416.484 609.266 415.721 608.593 415.721 606.903V601.538H414.327V600.357H415.721V598.068H417.198V600.357H419.134V601.538H417.198V606.542C417.198 607.584 417.559 608.002 418.477 608.002C418.732 608.002 418.871 607.994 419.134 607.97V609.184C418.855 609.233 418.584 609.266 418.305 609.266ZM421.266 609.2V600.357H422.694V601.67H422.825C423.161 600.743 423.99 600.201 425.188 600.201C425.458 600.201 425.762 600.234 425.901 600.259V601.645C425.606 601.596 425.335 601.563 425.023 601.563C423.662 601.563 422.694 602.424 422.694 603.72V609.2H421.266ZM430.093 609.356C428.411 609.356 427.14 608.339 427.14 606.731V606.714C427.14 605.139 428.305 604.229 430.364 604.106L432.898 603.95V603.146C432.898 602.055 432.234 601.464 430.913 601.464C429.855 601.464 429.158 601.858 428.928 602.547L428.92 602.572H427.493L427.501 602.523C427.73 601.136 429.076 600.201 430.963 600.201C433.12 600.201 434.326 601.309 434.326 603.146V609.2H432.898V607.896H432.767C432.209 608.839 431.282 609.356 430.093 609.356ZM428.6 606.698C428.6 607.592 429.363 608.117 430.388 608.117C431.84 608.117 432.898 607.166 432.898 605.902V605.098L430.536 605.246C429.191 605.328 428.6 605.804 428.6 606.682V606.698ZM436.934 609.2V600.357H438.362V601.686H438.493C438.936 600.751 439.764 600.201 441.069 600.201C443.054 600.201 444.161 601.374 444.161 603.474V609.2H442.734V603.819C442.734 602.227 442.078 601.464 440.667 601.464C439.256 601.464 438.362 602.416 438.362 603.966V609.2H436.934ZM449.78 609.356C447.812 609.356 446.458 608.404 446.294 606.944H447.754C447.992 607.682 448.698 608.166 449.83 608.166C451.019 608.166 451.864 607.6 451.864 606.796V606.78C451.864 606.181 451.413 605.763 450.322 605.5L448.952 605.172C447.295 604.779 446.548 604.057 446.548 602.785V602.777C446.548 601.309 447.959 600.201 449.838 600.201C451.692 600.201 452.98 601.128 453.177 602.572H451.774C451.585 601.875 450.896 601.391 449.83 601.391C448.78 601.391 448.009 601.932 448.009 602.711V602.728C448.009 603.327 448.452 603.704 449.493 603.958L450.855 604.286C452.52 604.688 453.324 605.41 453.324 606.673V606.69C453.324 608.265 451.79 609.356 449.78 609.356ZM457.967 609.356C456.286 609.356 455.014 608.339 455.014 606.731V606.714C455.014 605.139 456.179 604.229 458.238 604.106L460.773 603.95V603.146C460.773 602.055 460.108 601.464 458.788 601.464C457.729 601.464 457.032 601.858 456.802 602.547L456.794 602.572H455.367L455.375 602.523C455.605 601.136 456.95 600.201 458.837 600.201C460.994 600.201 462.2 601.309 462.2 603.146V609.2H460.773V607.896H460.641C460.084 608.839 459.157 609.356 457.967 609.356ZM456.474 606.698C456.474 607.592 457.237 608.117 458.263 608.117C459.714 608.117 460.773 607.166 460.773 605.902V605.098L458.41 605.246C457.065 605.328 456.474 605.804 456.474 606.682V606.698ZM468.426 609.356C465.949 609.356 464.366 607.559 464.366 604.754V604.738C464.366 601.989 465.941 600.201 468.418 600.201C470.567 600.201 471.855 601.44 472.118 603.015L472.126 603.064H470.707L470.698 603.039C470.477 602.17 469.689 601.464 468.418 601.464C466.827 601.464 465.826 602.744 465.826 604.738V604.754C465.826 606.788 466.843 608.093 468.418 608.093C469.607 608.093 470.362 607.568 470.69 606.583L470.707 606.534L472.118 606.526L472.101 606.616C471.74 608.216 470.551 609.356 468.426 609.356ZM477.515 609.266C475.694 609.266 474.931 608.593 474.931 606.903V601.538H473.537V600.357H474.931V598.068H476.408V600.357H478.344V601.538H476.408V606.542C476.408 607.584 476.769 608.002 477.688 608.002C477.942 608.002 478.081 607.994 478.344 607.97V609.184C478.065 609.233 477.794 609.266 477.515 609.266ZM481.231 598.651C480.69 598.651 480.247 598.208 480.247 597.666C480.247 597.125 480.69 596.682 481.231 596.682C481.773 596.682 482.216 597.125 482.216 597.666C482.216 598.208 481.773 598.651 481.231 598.651ZM480.509 609.2V600.357H481.937V609.2H480.509ZM488.261 609.356C485.743 609.356 484.184 607.617 484.184 604.787V604.77C484.184 601.932 485.743 600.201 488.261 600.201C490.78 600.201 492.338 601.932 492.338 604.77V604.787C492.338 607.617 490.78 609.356 488.261 609.356ZM488.261 608.093C489.935 608.093 490.878 606.87 490.878 604.787V604.77C490.878 602.679 489.935 601.464 488.261 601.464C486.588 601.464 485.645 602.679 485.645 604.77V604.787C485.645 606.87 486.588 608.093 488.261 608.093ZM494.553 609.2V600.357H495.981V601.686H496.112C496.555 600.751 497.383 600.201 498.688 600.201C500.673 600.201 501.78 601.374 501.78 603.474V609.2H500.353V603.819C500.353 602.227 499.697 601.464 498.286 601.464C496.875 601.464 495.981 602.416 495.981 603.966V609.2H494.553ZM509.844 598.651C509.302 598.651 508.859 598.208 508.859 597.666C508.859 597.125 509.302 596.682 509.844 596.682C510.385 596.682 510.828 597.125 510.828 597.666C510.828 598.208 510.385 598.651 509.844 598.651ZM509.122 609.2V600.357H510.549V609.2H509.122ZM513.24 609.2V600.357H514.667V601.686H514.798C515.241 600.751 516.07 600.201 517.374 600.201C519.359 600.201 520.467 601.374 520.467 603.474V609.2H519.039V603.819C519.039 602.227 518.383 601.464 516.972 601.464C515.561 601.464 514.667 602.416 514.667 603.966V609.2H513.24ZM527.013 609.2L531.377 597.363H532.837L537.201 609.2H535.651L534.461 605.812H529.753L528.563 609.2H527.013ZM532.041 599.274L530.188 604.557H534.027L532.173 599.274H532.041ZM541.647 609.356C539.638 609.356 538.604 608.175 538.604 606.083V600.357H540.031V605.738C540.031 607.33 540.606 608.093 542.016 608.093C543.575 608.093 544.404 607.141 544.404 605.591V600.357H545.831V609.2H544.404V607.879H544.272C543.838 608.823 542.943 609.356 541.647 609.356ZM548.497 609.2V600.357H549.924V601.67H550.056C550.392 600.743 551.22 600.201 552.418 600.201C552.689 600.201 552.992 600.234 553.132 600.259V601.645C552.836 601.596 552.566 601.563 552.254 601.563C550.892 601.563 549.924 602.424 549.924 603.72V609.2H548.497ZM558.283 609.356C555.765 609.356 554.206 607.617 554.206 604.787V604.77C554.206 601.932 555.765 600.201 558.283 600.201C560.802 600.201 562.36 601.932 562.36 604.77V604.787C562.36 607.617 560.802 609.356 558.283 609.356ZM558.283 608.093C559.957 608.093 560.9 606.87 560.9 604.787V604.77C560.9 602.679 559.957 601.464 558.283 601.464C556.61 601.464 555.666 602.679 555.666 604.77V604.787C555.666 606.87 556.61 608.093 558.283 608.093ZM571.933 609.2L568.709 597.363H570.252L572.606 606.985H572.704L575.354 597.363H576.847L579.497 606.985H579.595L581.949 597.363H583.491L580.268 609.2H578.873L576.15 599.857H576.051L573.328 609.2H571.933ZM587.166 609.356C585.485 609.356 584.213 608.339 584.213 606.731V606.714C584.213 605.139 585.378 604.229 587.437 604.106L589.972 603.95V603.146C589.972 602.055 589.307 601.464 587.987 601.464C586.929 601.464 586.231 601.858 586.002 602.547L585.993 602.572H584.566L584.574 602.523C584.804 601.136 586.149 600.201 588.036 600.201C590.193 600.201 591.399 601.309 591.399 603.146V609.2H589.972V607.896H589.841C589.283 608.839 588.356 609.356 587.166 609.356ZM585.673 606.698C585.673 607.592 586.436 608.117 587.462 608.117C588.914 608.117 589.972 607.166 589.972 605.902V605.098L587.609 605.246C586.264 605.328 585.673 605.804 585.673 606.682V606.698ZM594.09 609.2V596.846H595.517V609.2H594.09ZM598.339 609.2V596.846H599.766V609.2H598.339ZM606.116 609.356C603.589 609.356 602.063 607.584 602.063 604.811V604.803C602.063 602.071 603.622 600.201 606.025 600.201C608.429 600.201 609.889 601.989 609.889 604.631V605.189H603.523C603.564 607.018 604.573 608.084 606.148 608.084C607.346 608.084 608.084 607.518 608.322 606.985L608.355 606.911H609.782L609.766 606.977C609.463 608.175 608.199 609.356 606.116 609.356ZM606.017 601.473C604.705 601.473 603.704 602.367 603.548 604.048H608.437C608.289 602.301 607.322 601.473 606.017 601.473ZM615.246 609.266C613.425 609.266 612.662 608.593 612.662 606.903V601.538H611.267V600.357H612.662V598.068H614.138V600.357H616.074V601.538H614.138V606.542C614.138 607.584 614.499 608.002 615.418 608.002C615.672 608.002 615.812 607.994 616.074 607.97V609.184C615.795 609.233 615.525 609.266 615.246 609.266Z" fill="black" fill-opacity="0.5"/>
<path d="M360.692 399.4L364.355 389.254H366.057L369.72 399.4H368.061L367.147 396.658H363.266L362.345 399.4H360.692ZM365.143 391.033L363.688 395.392H366.725L365.263 391.033H365.143ZM371.309 399.4V391.764H372.835V392.938H372.948C373.285 392.102 374.03 391.616 375.029 391.616C376.07 391.616 376.808 392.158 377.145 392.98H377.265C377.652 392.158 378.53 391.616 379.592 391.616C381.132 391.616 382.032 392.545 382.032 394.134V399.4H380.513V394.499C380.513 393.445 380.035 392.924 379.037 392.924C378.066 392.924 377.427 393.648 377.427 394.57V399.4H375.908V394.345C375.908 393.473 375.338 392.924 374.438 392.924C373.517 392.924 372.835 393.712 372.835 394.71V399.4H371.309ZM387.397 399.548C385.154 399.548 383.783 398.05 383.783 395.589V395.575C383.783 393.121 385.161 391.616 387.397 391.616C389.626 391.616 391.004 393.114 391.004 395.575V395.589C391.004 398.05 389.633 399.548 387.397 399.548ZM387.397 398.275C388.705 398.275 389.45 397.277 389.45 395.589V395.575C389.45 393.88 388.705 392.889 387.397 392.889C386.082 392.889 385.344 393.88 385.344 395.575V395.589C385.344 397.284 386.082 398.275 387.397 398.275ZM395.37 399.548C393.648 399.548 392.755 398.514 392.755 396.707V391.764H394.28V396.348C394.28 397.614 394.745 398.24 395.863 398.24C397.086 398.24 397.74 397.473 397.74 396.243V391.764H399.259V399.4H397.74V398.247H397.62C397.255 399.07 396.481 399.548 395.37 399.548ZM401.459 399.4V391.764H402.985V392.924H403.098C403.47 392.109 404.202 391.616 405.313 391.616C407.021 391.616 407.963 392.636 407.963 394.457V399.4H406.445V394.816C406.445 393.55 405.917 392.924 404.799 392.924C403.681 392.924 402.985 393.691 402.985 394.921V399.4H401.459ZM412.977 399.449C411.296 399.449 410.607 398.859 410.607 397.389V392.966H409.412V391.764H410.607V389.838H412.161V391.764H413.799V392.966H412.161V397.023C412.161 397.846 412.47 398.184 413.223 398.184C413.455 398.184 413.588 398.177 413.799 398.155V399.372C413.553 399.414 413.272 399.449 412.977 399.449Z" fill="black" fill-opacity="0.5"/>
<path d="M366.331 411.344C369.041 411.344 371.6 413.256 371.6 418.225V418.244C371.6 422.828 369.603 425.528 366.256 425.528C363.856 425.528 362.075 424.122 361.634 422.078L361.606 421.966H363.697L363.725 422.059C364.109 423.091 364.991 423.747 366.256 423.747C368.534 423.747 369.491 421.525 369.594 418.825C369.594 418.722 369.603 418.619 369.603 418.516H369.416C368.928 419.603 367.7 420.569 365.863 420.569C363.284 420.569 361.428 418.656 361.428 416.069V416.05C361.428 413.331 363.491 411.344 366.331 411.344ZM366.322 418.872C367.944 418.872 369.191 417.691 369.191 416.059V416.05C369.191 414.4 367.944 413.106 366.35 413.106C364.766 413.106 363.5 414.372 363.5 415.994V416.012C363.5 417.672 364.691 418.872 366.322 418.872ZM377.572 425.2V413.837H377.413L374.009 416.266V414.203L377.572 411.672H379.672V425.2H377.572ZM388.503 425.528C385.784 425.528 383.234 423.616 383.234 418.637V418.619C383.234 414.044 385.231 411.344 388.578 411.344C390.969 411.344 392.75 412.75 393.2 414.794L393.219 414.906H391.138L391.1 414.812C390.725 413.781 389.844 413.125 388.569 413.125C386.291 413.125 385.344 415.347 385.241 418.047C385.231 418.15 385.231 418.253 385.231 418.356H385.409C385.906 417.269 387.125 416.303 388.972 416.303C391.55 416.303 393.397 418.216 393.397 420.803V420.822C393.397 423.541 391.344 425.528 388.503 425.528ZM385.644 420.822C385.644 422.472 386.891 423.766 388.484 423.766C390.069 423.766 391.325 422.5 391.325 420.878V420.859C391.325 419.2 390.144 418 388.503 418C386.881 418 385.644 419.181 385.644 420.812V420.822ZM400.775 425.453C397.888 425.453 396.003 423.869 395.825 421.628L395.816 421.516H397.822L397.831 421.609C397.963 422.837 399.097 423.7 400.775 423.7C402.425 423.7 403.541 422.772 403.541 421.441V421.422C403.541 419.894 402.434 419.041 400.634 419.041H398.984V417.409H400.569C402.116 417.409 403.166 416.5 403.166 415.244V415.225C403.166 413.912 402.284 413.144 400.756 413.144C399.256 413.144 398.206 413.941 398.075 415.216L398.066 415.309H396.097L396.106 415.206C396.313 412.928 398.113 411.419 400.756 411.419C403.447 411.419 405.209 412.862 405.209 414.953V414.972C405.209 416.65 404.009 417.775 402.359 418.122V418.169C404.347 418.347 405.678 419.547 405.678 421.441V421.459C405.678 423.784 403.644 425.453 400.775 425.453ZM409.222 425.341C408.444 425.341 407.844 424.741 407.844 423.981C407.844 423.212 408.444 422.612 409.222 422.612C410 422.612 410.591 423.212 410.591 423.981C410.591 424.741 410 425.341 409.222 425.341ZM416.328 425.2V413.837H416.169L412.766 416.266V414.203L416.328 411.672H418.428V425.2H416.328ZM422.263 425.2V423.775L426.753 419.059C428.544 417.194 429.059 416.5 429.059 415.403V415.375C429.059 414.053 428.15 413.078 426.669 413.078C425.15 413.078 424.138 414.072 424.138 415.553L424.128 415.581H422.159L422.141 415.562C422.15 413.087 424.063 411.344 426.781 411.344C429.303 411.344 431.159 412.947 431.159 415.178V415.206C431.159 416.744 430.447 417.925 427.991 420.362L425.122 423.222V423.409H431.375V425.2H422.263ZM438.894 425.453C436.006 425.453 434.122 423.869 433.944 421.628L433.934 421.516H435.941L435.95 421.609C436.081 422.837 437.216 423.7 438.894 423.7C440.544 423.7 441.659 422.772 441.659 421.441V421.422C441.659 419.894 440.553 419.041 438.753 419.041H437.103V417.409H438.688C440.234 417.409 441.284 416.5 441.284 415.244V415.225C441.284 413.912 440.403 413.144 438.875 413.144C437.375 413.144 436.325 413.941 436.194 415.216L436.184 415.309H434.216L434.225 415.206C434.431 412.928 436.231 411.419 438.875 411.419C441.566 411.419 443.328 412.862 443.328 414.953V414.972C443.328 416.65 442.128 417.775 440.478 418.122V418.169C442.466 418.347 443.797 419.547 443.797 421.441V421.459C443.797 423.784 441.763 425.453 438.894 425.453ZM452.675 425.2V422.509H446.075V420.728C447.856 417.672 449.844 414.475 451.709 411.672H454.7V420.728H456.566V422.509H454.7V425.2H452.675ZM448.091 420.766H452.703V413.444H452.581C451.128 415.628 449.478 418.262 448.091 420.634V420.766ZM464.609 425.2V411.672H467.028L471.341 422.462H471.491L475.803 411.672H478.222V425.2H476.309V415.272H476.169L472.194 425.2H470.638L466.672 415.272H466.522V425.2H464.609ZM481.616 425.2V411.672H483.716V425.2H481.616ZM487.109 425.2V411.672H489.003L495.959 421.516H496.1V411.672H498.144V425.2H496.25L489.303 415.375H489.153V425.2H487.109ZM500.506 425.2L505.391 411.672H507.659L512.544 425.2H510.331L509.113 421.544H503.938L502.709 425.2H500.506ZM506.441 414.044L504.5 419.856H508.55L506.6 414.044H506.441Z" fill="black"/>
<path d="M361.191 333.6V332.524L366.704 324.93V324.811H361.36V323.454H368.68V324.53L363.195 332.123V332.243H368.813V333.6H361.191ZM370.972 333.6V322.969H372.498V327.124H372.61C372.983 326.309 373.714 325.816 374.825 325.816C376.534 325.816 377.476 326.836 377.476 328.657V333.6H375.957V329.016C375.957 327.75 375.43 327.124 374.312 327.124C373.194 327.124 372.498 327.891 372.498 329.121V333.6H370.972ZM381.702 333.727C380.246 333.727 379.17 332.841 379.17 331.455V331.441C379.17 330.077 380.197 329.283 382.018 329.17L384.085 329.051V328.376C384.085 327.539 383.558 327.075 382.524 327.075C381.68 327.075 381.125 327.384 380.942 327.926L380.935 327.954H379.466L379.473 327.905C379.655 326.653 380.858 325.816 382.595 325.816C384.514 325.816 385.597 326.773 385.597 328.376V333.6H384.085V332.517H383.966C383.516 333.291 382.714 333.727 381.702 333.727ZM380.689 331.392C380.689 332.095 381.287 332.51 382.109 332.51C383.248 332.51 384.085 331.765 384.085 330.78V330.127L382.222 330.246C381.167 330.309 380.689 330.689 380.689 331.378V331.392ZM387.748 333.6V325.964H389.274V327.124H389.387C389.759 326.309 390.491 325.816 391.602 325.816C393.31 325.816 394.252 326.836 394.252 328.657V333.6H392.734V329.016C392.734 327.75 392.206 327.124 391.088 327.124C389.97 327.124 389.274 327.891 389.274 329.121V333.6H387.748ZM399.61 336.293C397.67 336.293 396.474 335.442 396.291 334.17L396.305 334.155H397.845L397.852 334.17C397.979 334.697 398.598 335.07 399.631 335.07C400.89 335.07 401.635 334.479 401.635 333.438V331.934H401.523C401.059 332.763 400.215 333.227 399.167 333.227C397.205 333.227 395.996 331.716 395.996 329.564V329.55C395.996 327.37 397.213 325.83 399.195 325.83C400.264 325.83 401.094 326.358 401.537 327.216H401.628V325.964H403.147V333.445C403.147 335.182 401.776 336.293 399.61 336.293ZM399.589 331.969C400.883 331.969 401.663 330.984 401.663 329.557V329.543C401.663 328.123 400.876 327.124 399.589 327.124C398.288 327.124 397.557 328.123 397.557 329.543V329.557C397.557 330.977 398.288 331.969 399.589 331.969ZM408.118 333.748C406.276 333.748 405.109 332.883 404.961 331.603V331.596H406.487L406.494 331.603C406.684 332.18 407.239 332.566 408.146 332.566C409.088 332.566 409.742 332.137 409.742 331.512V331.498C409.742 331.02 409.384 330.696 408.498 330.492L407.281 330.211C405.84 329.88 405.172 329.227 405.172 328.109V328.102C405.172 326.773 406.409 325.816 408.139 325.816C409.883 325.816 411.001 326.688 411.134 327.933V327.94H409.679V327.926C409.531 327.391 408.99 326.991 408.132 326.991C407.295 326.991 406.691 327.405 406.691 328.017V328.031C406.691 328.509 407.042 328.805 407.9 329.009L409.109 329.283C410.579 329.627 411.282 330.253 411.282 331.357V331.371C411.282 332.784 409.932 333.748 408.118 333.748ZM415.198 333.727C413.743 333.727 412.667 332.841 412.667 331.455V331.441C412.667 330.077 413.694 329.283 415.515 329.17L417.582 329.051V328.376C417.582 327.539 417.055 327.075 416.021 327.075C415.177 327.075 414.622 327.384 414.439 327.926L414.432 327.954H412.963L412.97 327.905C413.152 326.653 414.355 325.816 416.091 325.816C418.011 325.816 419.094 326.773 419.094 328.376V333.6H417.582V332.517H417.463C417.013 333.291 416.211 333.727 415.198 333.727ZM414.186 331.392C414.186 332.095 414.784 332.51 415.606 332.51C416.745 332.51 417.582 331.765 417.582 330.78V330.127L415.719 330.246C414.664 330.309 414.186 330.689 414.186 331.378V331.392ZM421.245 333.6V325.964H422.771V327.124H422.884C423.256 326.309 423.988 325.816 425.098 325.816C426.807 325.816 427.749 326.836 427.749 328.657V333.6H426.23V329.016C426.23 327.75 425.703 327.124 424.585 327.124C423.467 327.124 422.771 327.891 422.771 329.121V333.6H421.245Z" fill="black" fill-opacity="0.5"/>
<path d="M362.784 359.4V345.872H368.222C370.763 345.872 372.291 347.166 372.291 349.238V349.256C372.291 350.663 371.25 351.928 369.919 352.153V352.313C371.747 352.509 372.966 353.803 372.966 355.566V355.584C372.966 357.956 371.231 359.4 368.344 359.4H362.784ZM367.734 347.588H364.884V351.628H367.378C369.234 351.628 370.2 350.934 370.2 349.622V349.603C370.2 348.328 369.291 347.588 367.734 347.588ZM367.8 353.231H364.884V357.684H367.922C369.816 357.684 370.819 356.906 370.819 355.453V355.434C370.819 353.981 369.778 353.231 367.8 353.231ZM380.428 359.728C377.709 359.728 375.159 357.816 375.159 352.838V352.819C375.159 348.244 377.156 345.544 380.503 345.544C382.894 345.544 384.675 346.95 385.125 348.994L385.144 349.106H383.063L383.025 349.013C382.65 347.981 381.769 347.325 380.494 347.325C378.216 347.325 377.269 349.547 377.166 352.247C377.156 352.35 377.156 352.453 377.156 352.556H377.334C377.831 351.469 379.05 350.503 380.897 350.503C383.475 350.503 385.322 352.416 385.322 355.003V355.022C385.322 357.741 383.269 359.728 380.428 359.728ZM377.569 355.022C377.569 356.672 378.816 357.966 380.409 357.966C381.994 357.966 383.25 356.7 383.25 355.078V355.059C383.25 353.4 382.069 352.2 380.428 352.2C378.806 352.2 377.569 353.381 377.569 355.013V355.022ZM387.994 359.4V357.975L392.484 353.259C394.275 351.394 394.791 350.7 394.791 349.603V349.575C394.791 348.253 393.881 347.278 392.4 347.278C390.881 347.278 389.869 348.272 389.869 349.753L389.859 349.781H387.891L387.872 349.763C387.881 347.288 389.794 345.544 392.513 345.544C395.034 345.544 396.891 347.147 396.891 349.378V349.406C396.891 350.944 396.178 352.125 393.722 354.563L390.853 357.422V357.609H397.106V359.4H387.994ZM405.825 359.4V356.709H399.225V354.928C401.006 351.872 402.994 348.675 404.859 345.872H407.85V354.928H409.716V356.709H407.85V359.4H405.825ZM401.241 354.966H405.853V347.644H405.731C404.278 349.828 402.628 352.463 401.241 354.834V354.966ZM416.963 359.728C414.3 359.728 412.463 358.069 412.275 355.875L412.266 355.753H414.234L414.244 355.828C414.422 357.019 415.5 357.966 416.981 357.966C418.65 357.966 419.813 356.775 419.813 355.078V355.059C419.813 353.391 418.631 352.209 417 352.209C416.175 352.209 415.472 352.453 414.938 352.941C414.694 353.156 414.478 353.419 414.319 353.728H412.509L413.184 345.872H421.05V347.653H414.834L414.422 351.966H414.581C415.153 351.056 416.213 350.531 417.459 350.531C420 350.531 421.819 352.425 421.819 355.022V355.041C421.819 357.816 419.813 359.728 416.963 359.728ZM429.459 359.728C426.741 359.728 424.191 357.816 424.191 352.838V352.819C424.191 348.244 426.188 345.544 429.534 345.544C431.925 345.544 433.706 346.95 434.156 348.994L434.175 349.106H432.094L432.056 349.013C431.681 347.981 430.8 347.325 429.525 347.325C427.247 347.325 426.3 349.547 426.197 352.247C426.188 352.35 426.188 352.453 426.188 352.556H426.366C426.863 351.469 428.081 350.503 429.928 350.503C432.506 350.503 434.353 352.416 434.353 355.003V355.022C434.353 357.741 432.3 359.728 429.459 359.728ZM426.6 355.022C426.6 356.672 427.847 357.966 429.441 357.966C431.025 357.966 432.281 356.7 432.281 355.078V355.059C432.281 353.4 431.1 352.2 429.459 352.2C427.838 352.2 426.6 353.381 426.6 355.013V355.022ZM437.897 359.541C437.119 359.541 436.519 358.941 436.519 358.181C436.519 357.413 437.119 356.813 437.897 356.813C438.675 356.813 439.266 357.413 439.266 358.181C439.266 358.941 438.675 359.541 437.897 359.541ZM443.953 359.541C443.175 359.541 442.575 358.941 442.575 358.181C442.575 357.413 443.175 356.813 443.953 356.813C444.731 356.813 445.322 357.413 445.322 358.181C445.322 358.941 444.731 359.541 443.953 359.541ZM450.009 359.541C449.231 359.541 448.631 358.941 448.631 358.181C448.631 357.413 449.231 356.813 450.009 356.813C450.788 356.813 451.378 357.413 451.378 358.181C451.378 358.941 450.788 359.541 450.009 359.541ZM457.116 359.4V348.038H456.956L453.553 350.466V348.403L457.116 345.872H459.216V359.4H457.116ZM463.05 359.4V357.975L467.541 353.259C469.331 351.394 469.847 350.7 469.847 349.603V349.575C469.847 348.253 468.938 347.278 467.456 347.278C465.938 347.278 464.925 348.272 464.925 349.753L464.916 349.781H462.947L462.928 349.763C462.938 347.288 464.85 345.544 467.569 345.544C470.091 345.544 471.947 347.147 471.947 349.378V349.406C471.947 350.944 471.234 352.125 468.778 354.563L465.909 357.422V357.609H472.163V359.4H463.05ZM479.681 359.653C476.794 359.653 474.909 358.069 474.731 355.828L474.722 355.716H476.728L476.738 355.809C476.869 357.038 478.003 357.9 479.681 357.9C481.331 357.9 482.447 356.972 482.447 355.641V355.622C482.447 354.094 481.341 353.241 479.541 353.241H477.891V351.609H479.475C481.022 351.609 482.072 350.7 482.072 349.444V349.425C482.072 348.113 481.191 347.344 479.663 347.344C478.163 347.344 477.113 348.141 476.981 349.416L476.972 349.509H475.003L475.013 349.406C475.219 347.128 477.019 345.619 479.663 345.619C482.353 345.619 484.116 347.063 484.116 349.153V349.172C484.116 350.85 482.916 351.975 481.266 352.322V352.369C483.253 352.547 484.584 353.747 484.584 355.641V355.659C484.584 357.984 482.55 359.653 479.681 359.653ZM493.463 359.4V356.709H486.863V354.928C488.644 351.872 490.631 348.675 492.497 345.872H495.488V354.928H497.353V356.709H495.488V359.4H493.463ZM488.878 354.966H493.491V347.644H493.369C491.916 349.828 490.266 352.463 488.878 354.834V354.966ZM504.6 359.728C501.938 359.728 500.1 358.069 499.913 355.875L499.903 355.753H501.872L501.881 355.828C502.059 357.019 503.138 357.966 504.619 357.966C506.288 357.966 507.45 356.775 507.45 355.078V355.059C507.45 353.391 506.269 352.209 504.638 352.209C503.813 352.209 503.109 352.453 502.575 352.941C502.331 353.156 502.116 353.419 501.956 353.728H500.147L500.822 345.872H508.688V347.653H502.472L502.059 351.966H502.219C502.791 351.056 503.85 350.531 505.097 350.531C507.638 350.531 509.456 352.425 509.456 355.022V355.041C509.456 357.816 507.45 359.728 504.6 359.728ZM517.097 359.728C514.378 359.728 511.828 357.816 511.828 352.838V352.819C511.828 348.244 513.825 345.544 517.172 345.544C519.563 345.544 521.344 346.95 521.794 348.994L521.813 349.106H519.731L519.694 349.013C519.319 347.981 518.438 347.325 517.163 347.325C514.884 347.325 513.938 349.547 513.834 352.247C513.825 352.35 513.825 352.453 513.825 352.556H514.003C514.5 351.469 515.719 350.503 517.566 350.503C520.144 350.503 521.991 352.416 521.991 355.003V355.022C521.991 357.741 519.938 359.728 517.097 359.728ZM514.238 355.022C514.238 356.672 515.484 357.966 517.078 357.966C518.663 357.966 519.919 356.7 519.919 355.078V355.059C519.919 353.4 518.738 352.2 517.097 352.2C515.475 352.2 514.238 353.381 514.238 355.013V355.022Z" fill="black"/>
<path d="M749.495 338.8V330.011H746.302V328.654H754.255V330.011H751.07V338.8H749.495ZM757.869 338.948C755.626 338.948 754.255 337.45 754.255 334.989V334.975C754.255 332.521 755.633 331.016 757.869 331.016C760.098 331.016 761.476 332.514 761.476 334.975V334.989C761.476 337.45 760.105 338.948 757.869 338.948ZM757.869 337.675C759.177 337.675 759.922 336.676 759.922 334.989V334.975C759.922 333.28 759.177 332.289 757.869 332.289C756.554 332.289 755.816 333.28 755.816 334.975V334.989C755.816 336.684 756.554 337.675 757.869 337.675Z" fill="black" fill-opacity="0.5"/>
<path d="M601.784 359.8V346.272H607.222C609.763 346.272 611.291 347.566 611.291 349.637V349.656C611.291 351.062 610.25 352.328 608.919 352.553V352.712C610.747 352.909 611.966 354.203 611.966 355.966V355.984C611.966 358.356 610.231 359.8 607.344 359.8H601.784ZM606.734 347.987H603.884V352.028H606.378C608.234 352.028 609.2 351.334 609.2 350.022V350.003C609.2 348.728 608.291 347.987 606.734 347.987ZM606.8 353.631H603.884V358.084H606.922C608.816 358.084 609.819 357.306 609.819 355.853V355.834C609.819 354.381 608.778 353.631 606.8 353.631ZM619.428 360.128C616.709 360.128 614.159 358.216 614.159 353.237V353.219C614.159 348.644 616.156 345.944 619.503 345.944C621.894 345.944 623.675 347.35 624.125 349.394L624.144 349.506H622.063L622.025 349.412C621.65 348.381 620.769 347.725 619.494 347.725C617.216 347.725 616.269 349.947 616.166 352.647C616.156 352.75 616.156 352.853 616.156 352.956H616.334C616.831 351.869 618.05 350.903 619.897 350.903C622.475 350.903 624.322 352.816 624.322 355.403V355.422C624.322 358.141 622.269 360.128 619.428 360.128ZM616.569 355.422C616.569 357.072 617.816 358.366 619.409 358.366C620.994 358.366 622.25 357.1 622.25 355.478V355.459C622.25 353.8 621.069 352.6 619.428 352.6C617.806 352.6 616.569 353.781 616.569 355.412V355.422ZM626.994 359.8V358.375L631.484 353.659C633.275 351.794 633.791 351.1 633.791 350.003V349.975C633.791 348.653 632.881 347.678 631.4 347.678C629.881 347.678 628.869 348.672 628.869 350.153L628.859 350.181H626.891L626.872 350.162C626.881 347.687 628.794 345.944 631.513 345.944C634.034 345.944 635.891 347.547 635.891 349.778V349.806C635.891 351.344 635.178 352.525 632.722 354.962L629.853 357.822V358.009H636.106V359.8H626.994ZM644.825 359.8V357.109H638.225V355.328C640.006 352.272 641.994 349.075 643.859 346.272H646.85V355.328H648.716V357.109H646.85V359.8H644.825ZM640.241 355.366H644.853V348.044H644.731C643.278 350.228 641.628 352.862 640.241 355.234V355.366ZM655.963 360.128C653.3 360.128 651.463 358.469 651.275 356.275L651.266 356.153H653.234L653.244 356.228C653.422 357.419 654.5 358.366 655.981 358.366C657.65 358.366 658.813 357.175 658.813 355.478V355.459C658.813 353.791 657.631 352.609 656 352.609C655.175 352.609 654.472 352.853 653.938 353.341C653.694 353.556 653.478 353.819 653.319 354.128H651.509L652.184 346.272H660.05V348.053H653.834L653.422 352.366H653.581C654.153 351.456 655.213 350.931 656.459 350.931C659 350.931 660.819 352.825 660.819 355.422V355.441C660.819 358.216 658.813 360.128 655.963 360.128ZM668.459 360.128C665.741 360.128 663.191 358.216 663.191 353.237V353.219C663.191 348.644 665.188 345.944 668.534 345.944C670.925 345.944 672.706 347.35 673.156 349.394L673.175 349.506H671.094L671.056 349.412C670.681 348.381 669.8 347.725 668.525 347.725C666.247 347.725 665.3 349.947 665.197 352.647C665.188 352.75 665.188 352.853 665.188 352.956H665.366C665.863 351.869 667.081 350.903 668.928 350.903C671.506 350.903 673.353 352.816 673.353 355.403V355.422C673.353 358.141 671.3 360.128 668.459 360.128ZM665.6 355.422C665.6 357.072 666.847 358.366 668.441 358.366C670.025 358.366 671.281 357.1 671.281 355.478V355.459C671.281 353.8 670.1 352.6 668.459 352.6C666.838 352.6 665.6 353.781 665.6 355.412V355.422ZM676.897 359.941C676.119 359.941 675.519 359.341 675.519 358.581C675.519 357.812 676.119 357.212 676.897 357.212C677.675 357.212 678.266 357.812 678.266 358.581C678.266 359.341 677.675 359.941 676.897 359.941ZM682.953 359.941C682.175 359.941 681.575 359.341 681.575 358.581C681.575 357.812 682.175 357.212 682.953 357.212C683.731 357.212 684.322 357.812 684.322 358.581C684.322 359.341 683.731 359.941 682.953 359.941ZM689.009 359.941C688.231 359.941 687.631 359.341 687.631 358.581C687.631 357.812 688.231 357.212 689.009 357.212C689.788 357.212 690.378 357.812 690.378 358.581C690.378 359.341 689.788 359.941 689.009 359.941ZM696.116 359.8V348.437H695.956L692.553 350.866V348.803L696.116 346.272H698.216V359.8H696.116ZM702.05 359.8V358.375L706.541 353.659C708.331 351.794 708.847 351.1 708.847 350.003V349.975C708.847 348.653 707.938 347.678 706.456 347.678C704.938 347.678 703.925 348.672 703.925 350.153L703.916 350.181H701.947L701.928 350.162C701.938 347.687 703.85 345.944 706.569 345.944C709.091 345.944 710.947 347.547 710.947 349.778V349.806C710.947 351.344 710.234 352.525 707.778 354.962L704.909 357.822V358.009H711.163V359.8H702.05ZM718.681 360.053C715.794 360.053 713.909 358.469 713.731 356.228L713.722 356.116H715.728L715.738 356.209C715.869 357.437 717.003 358.3 718.681 358.3C720.331 358.3 721.447 357.372 721.447 356.041V356.022C721.447 354.494 720.341 353.641 718.541 353.641H716.891V352.009H718.475C720.022 352.009 721.072 351.1 721.072 349.844V349.825C721.072 348.512 720.191 347.744 718.663 347.744C717.163 347.744 716.113 348.541 715.981 349.816L715.972 349.909H714.003L714.013 349.806C714.219 347.528 716.019 346.019 718.663 346.019C721.353 346.019 723.116 347.462 723.116 349.553V349.572C723.116 351.25 721.916 352.375 720.266 352.722V352.769C722.253 352.947 723.584 354.147 723.584 356.041V356.059C723.584 358.384 721.55 360.053 718.681 360.053ZM732.463 359.8V357.109H725.863V355.328C727.644 352.272 729.631 349.075 731.497 346.272H734.488V355.328H736.353V357.109H734.488V359.8H732.463ZM727.878 355.366H732.491V348.044H732.369C730.916 350.228 729.266 352.862 727.878 355.234V355.366ZM743.6 360.128C740.938 360.128 739.1 358.469 738.913 356.275L738.903 356.153H740.872L740.881 356.228C741.059 357.419 742.138 358.366 743.619 358.366C745.288 358.366 746.45 357.175 746.45 355.478V355.459C746.45 353.791 745.269 352.609 743.638 352.609C742.813 352.609 742.109 352.853 741.575 353.341C741.331 353.556 741.116 353.819 740.956 354.128H739.147L739.822 346.272H747.688V348.053H741.472L741.059 352.366H741.219C741.791 351.456 742.85 350.931 744.097 350.931C746.638 350.931 748.456 352.825 748.456 355.422V355.441C748.456 358.216 746.45 360.128 743.6 360.128ZM756.097 360.128C753.378 360.128 750.828 358.216 750.828 353.237V353.219C750.828 348.644 752.825 345.944 756.172 345.944C758.563 345.944 760.344 347.35 760.794 349.394L760.813 349.506H758.731L758.694 349.412C758.319 348.381 757.438 347.725 756.163 347.725C753.884 347.725 752.938 349.947 752.834 352.647C752.825 352.75 752.825 352.853 752.825 352.956H753.003C753.5 351.869 754.719 350.903 756.566 350.903C759.144 350.903 760.991 352.816 760.991 355.403V355.422C760.991 358.141 758.938 360.128 756.097 360.128ZM753.238 355.422C753.238 357.072 754.484 358.366 756.078 358.366C757.663 358.366 758.919 357.1 758.919 355.478V355.459C758.919 353.8 757.738 352.6 756.097 352.6C754.475 352.6 753.238 353.781 753.238 355.412V355.422Z" fill="black"/>
<rect width="450" height="57.6" transform="translate(336.7 137.2)" fill="white"/>
<path d="M366.364 174V161.07H361.681V158.781H373.778V161.07H369.085V174H366.364ZM375.002 174V162.472H377.628V164.244H377.807C378.197 163.01 379.252 162.282 380.771 162.282C381.171 162.282 381.583 162.335 381.836 162.409V164.761C381.414 164.677 380.982 164.613 380.528 164.613C378.777 164.613 377.628 165.657 377.628 167.303V174H375.002ZM386.983 174.19C384.789 174.19 383.196 172.84 383.196 170.741V170.72C383.196 168.663 384.768 167.461 387.573 167.292L390.537 167.113V166.121C390.537 164.972 389.788 164.339 388.375 164.339C387.173 164.339 386.392 164.771 386.129 165.531L386.118 165.573H383.639L383.65 165.478C383.903 163.537 385.759 162.251 388.502 162.251C391.465 162.251 393.132 163.685 393.132 166.121V174H390.537V172.418H390.358C389.725 173.536 388.502 174.19 386.983 174.19ZM385.791 170.614C385.791 171.595 386.624 172.175 387.784 172.175C389.366 172.175 390.537 171.142 390.537 169.771V168.843L387.943 169.011C386.477 169.106 385.791 169.644 385.791 170.593V170.614ZM396.285 174V162.472H398.911V164.234H399.091C399.639 163 400.746 162.251 402.413 162.251C404.986 162.251 406.389 163.801 406.389 166.543V174H403.763V167.155C403.763 165.362 403.035 164.455 401.443 164.455C399.882 164.455 398.911 165.552 398.911 167.282V174H396.285ZM413.846 174.232C410.914 174.232 409.142 172.882 408.92 170.931V170.91H411.525L411.536 170.931C411.81 171.732 412.58 172.291 413.888 172.291C415.196 172.291 416.103 171.701 416.103 170.836V170.815C416.103 170.14 415.596 169.697 414.331 169.412L412.464 168.99C410.27 168.505 409.226 167.471 409.226 165.773V165.763C409.226 163.685 411.125 162.251 413.846 162.251C416.651 162.251 418.328 163.643 418.497 165.51V165.531H416.029L416.018 165.499C415.829 164.771 415.069 164.181 413.835 164.181C412.664 164.181 411.821 164.75 411.821 165.615V165.626C411.821 166.301 412.306 166.712 413.55 166.997L415.417 167.408C417.674 167.914 418.739 168.874 418.739 170.551V170.572C418.739 172.766 416.683 174.232 413.846 174.232ZM424.53 174.19C422.336 174.19 420.743 172.84 420.743 170.741V170.72C420.743 168.663 422.315 167.461 425.12 167.292L428.084 167.113V166.121C428.084 164.972 427.335 164.339 425.922 164.339C424.72 164.339 423.939 164.771 423.675 165.531L423.665 165.573H421.186L421.197 165.478C421.45 163.537 423.306 162.251 426.048 162.251C429.012 162.251 430.679 163.685 430.679 166.121V174H428.084V172.418H427.905C427.272 173.536 426.048 174.19 424.53 174.19ZM423.338 170.614C423.338 171.595 424.171 172.175 425.331 172.175C426.913 172.175 428.084 171.142 428.084 169.771V168.843L425.489 169.011C424.023 169.106 423.338 169.644 423.338 170.593V170.614ZM438.779 174.232C435.309 174.232 433.263 171.986 433.263 168.22V168.199C433.263 164.476 435.298 162.251 438.768 162.251C441.732 162.251 443.504 163.896 443.799 166.28V166.322H441.32L441.31 166.29C441.067 165.172 440.213 164.371 438.779 164.371C436.986 164.371 435.931 165.784 435.931 168.199V168.22C435.931 170.667 436.996 172.102 438.779 172.102C440.139 172.102 440.972 171.479 441.299 170.266L441.32 170.224L443.799 170.214L443.778 170.298C443.398 172.661 441.7 174.232 438.779 174.232ZM450.981 174.053C448.334 174.053 447.248 173.167 447.248 170.941V164.508H445.455V162.472H447.248V159.646H449.916V162.472H452.352V164.508H449.916V170.319C449.916 171.469 450.37 171.954 451.466 171.954C451.836 171.954 452.036 171.943 452.352 171.912V173.937C451.973 174.011 451.488 174.053 450.981 174.053ZM456.318 160.542C455.453 160.542 454.747 159.857 454.747 158.992C454.747 158.137 455.453 157.441 456.318 157.441C457.172 157.441 457.879 158.137 457.879 158.992C457.879 159.857 457.172 160.542 456.318 160.542ZM455 174V162.472H457.626V174H455ZM465.831 174.232C462.372 174.232 460.284 171.975 460.284 168.241V168.22C460.284 164.518 462.404 162.251 465.831 162.251C469.27 162.251 471.379 164.508 471.379 168.22V168.241C471.379 171.975 469.28 174.232 465.831 174.232ZM465.831 172.102C467.656 172.102 468.689 170.678 468.689 168.252V168.231C468.689 165.805 467.645 164.371 465.831 164.371C464.007 164.371 462.963 165.805 462.963 168.231V168.252C462.963 170.678 464.007 172.102 465.831 172.102ZM474.016 174V162.472H476.642V164.234H476.821C477.37 163 478.477 162.251 480.143 162.251C482.717 162.251 484.12 163.801 484.12 166.543V174H481.493V167.155C481.493 165.362 480.766 164.455 479.173 164.455C477.612 164.455 476.642 165.552 476.642 167.282V174H474.016ZM493.253 174V158.781H499.402C502.671 158.781 504.633 160.605 504.633 163.506V163.527C504.633 165.541 503.568 167.208 501.764 167.862L505.087 174H501.975L498.991 168.273H495.974V174H493.253ZM495.974 166.185H499.117C500.836 166.185 501.838 165.225 501.838 163.59V163.569C501.838 161.977 500.794 160.985 499.064 160.985H495.974V166.185ZM512.238 174.232C508.81 174.232 506.732 171.933 506.732 168.262V168.252C506.732 164.624 508.831 162.251 512.111 162.251C515.391 162.251 517.416 164.55 517.416 168.03V168.895H509.358C509.39 170.962 510.508 172.165 512.29 172.165C513.714 172.165 514.526 171.448 514.779 170.92L514.811 170.846H517.311L517.279 170.941C516.91 172.429 515.37 174.232 512.238 174.232ZM512.143 164.307C510.677 164.307 509.58 165.299 509.379 167.134H514.853C514.674 165.246 513.609 164.307 512.143 164.307ZM527.91 177.829V172.249H527.731C527.14 173.473 525.854 174.19 524.208 174.19C521.308 174.19 519.483 171.901 519.483 168.252V168.231C519.483 164.561 521.287 162.282 524.24 162.282C525.801 162.282 527.109 163.073 527.773 164.381H527.91V162.472H530.536V177.829H527.91ZM525.052 171.975C526.824 171.975 527.952 170.551 527.952 168.252V168.231C527.952 165.932 526.813 164.497 525.041 164.497C523.248 164.497 522.152 165.911 522.152 168.231V168.252C522.152 170.572 523.248 171.975 525.052 171.975ZM537.55 174.232C534.955 174.232 533.627 172.671 533.627 169.929V162.472H536.253V169.328C536.253 171.11 536.917 172.017 538.499 172.017C540.197 172.017 541.104 170.92 541.104 169.191V162.472H543.73V174H541.104V172.249H540.925C540.387 173.483 539.216 174.232 537.55 174.232ZM551.873 174.232C548.445 174.232 546.367 171.933 546.367 168.262V168.252C546.367 164.624 548.466 162.251 551.746 162.251C555.026 162.251 557.051 164.55 557.051 168.03V168.895H548.993C549.025 170.962 550.143 172.165 551.925 172.165C553.349 172.165 554.161 171.448 554.414 170.92L554.446 170.846H556.946L556.914 170.941C556.545 172.429 555.005 174.232 551.873 174.232ZM551.778 164.307C550.312 164.307 549.215 165.299 549.014 167.134H554.488C554.309 165.246 553.244 164.307 551.778 164.307ZM564.033 174.232C561.101 174.232 559.329 172.882 559.108 170.931V170.91H561.713L561.723 170.931C561.998 171.732 562.768 172.291 564.075 172.291C565.383 172.291 566.29 171.701 566.29 170.836V170.815C566.29 170.14 565.784 169.697 564.518 169.412L562.652 168.99C560.458 168.505 559.414 167.471 559.414 165.773V165.763C559.414 163.685 561.312 162.251 564.033 162.251C566.839 162.251 568.516 163.643 568.684 165.51V165.531H566.216L566.206 165.499C566.016 164.771 565.257 164.181 564.023 164.181C562.852 164.181 562.008 164.75 562.008 165.615V165.626C562.008 166.301 562.493 166.712 563.738 166.997L565.605 167.408C567.862 167.914 568.927 168.874 568.927 170.551V170.572C568.927 172.766 566.87 174.232 564.033 174.232ZM576.025 174.053C573.378 174.053 572.291 173.167 572.291 170.941V164.508H570.498V162.472H572.291V159.646H574.96V162.472H577.396V164.508H574.96V170.319C574.96 171.469 575.413 171.954 576.51 171.954C576.879 171.954 577.08 171.943 577.396 171.912V173.937C577.016 174.011 576.531 174.053 576.025 174.053Z" fill="black"/>
<rect x="680.3" y="152.7" width="82.4" height="26.6" rx="4.8" fill="#F9FAFC"/>
<circle cx="3.6" cy="3.6" r="3.6" transform="matrix(1 0 0 -1 687.5 169.6)" fill="#594AF1"/>
<path d="M700.773 171.5V161.354H702.587L705.821 169.447H705.934L709.168 161.354H710.982V171.5H709.548V164.054H709.442L706.461 171.5H705.294L702.32 164.054H702.207V171.5H700.773ZM715.447 171.626C713.991 171.626 712.916 170.741 712.916 169.355V169.341C712.916 167.977 713.942 167.183 715.763 167.07L717.831 166.951V166.276C717.831 165.439 717.303 164.975 716.27 164.975C715.426 164.975 714.87 165.284 714.688 165.826L714.681 165.854H713.211L713.218 165.805C713.401 164.553 714.603 163.716 716.34 163.716C718.259 163.716 719.342 164.673 719.342 166.276V171.5H717.831V170.417H717.711C717.261 171.191 716.459 171.626 715.447 171.626ZM714.434 169.292C714.434 169.995 715.032 170.41 715.855 170.41C716.994 170.41 717.831 169.665 717.831 168.68V168.026L715.967 168.146C714.913 168.209 714.434 168.589 714.434 169.278V169.292ZM722.288 162.5C721.761 162.5 721.332 162.071 721.332 161.551C721.332 161.023 721.761 160.594 722.288 160.594C722.809 160.594 723.245 161.023 723.245 161.551C723.245 162.071 722.809 162.5 722.288 162.5ZM721.522 171.5V163.864H723.041V171.5H721.522ZM725.263 171.5V163.864H726.788V165.024H726.901C727.273 164.208 728.005 163.716 729.116 163.716C730.824 163.716 731.766 164.736 731.766 166.557V171.5H730.248V166.916C730.248 165.65 729.72 165.024 728.602 165.024C727.484 165.024 726.788 165.791 726.788 167.021V171.5H725.263ZM733.897 171.5V163.864H735.423V165.024H735.535C735.908 164.208 736.639 163.716 737.75 163.716C739.459 163.716 740.401 164.736 740.401 166.557V171.5H738.882V166.916C738.882 165.65 738.355 165.024 737.237 165.024C736.119 165.024 735.423 165.791 735.423 167.021V171.5H733.897ZM745.738 171.648C743.502 171.648 742.152 170.122 742.152 167.703V167.696C742.152 165.312 743.53 163.716 745.66 163.716C747.791 163.716 749.098 165.256 749.098 167.548V168.083H743.684C743.713 169.545 744.514 170.396 745.773 170.396C746.75 170.396 747.334 169.911 747.516 169.517L747.545 169.461L749.014 169.454L749 169.517C748.747 170.523 747.692 171.648 745.738 171.648ZM745.667 164.968C744.627 164.968 743.839 165.678 743.706 166.993H747.587C747.467 165.629 746.701 164.968 745.667 164.968ZM753.795 171.549C752.115 171.549 751.426 170.958 751.426 169.489V165.066H750.231V163.864H751.426V161.937H752.98V163.864H754.618V165.066H752.98V169.123C752.98 169.946 753.289 170.283 754.041 170.283C754.273 170.283 754.407 170.276 754.618 170.255V171.472C754.372 171.514 754.091 171.549 753.795 171.549Z" fill="black" fill-opacity="0.5"/>
<path d="M364.046 465.4V456.611H360.854V455.254H368.806V456.611H365.621V465.4H364.046ZM369.594 465.4V457.764H371.12V458.917H371.232C371.506 458.109 372.216 457.63 373.236 457.63C373.482 457.63 373.749 457.666 373.904 457.701V459.107C373.63 459.051 373.37 459.016 373.081 459.016C371.914 459.016 371.12 459.733 371.12 460.837V465.4H369.594ZM377.398 465.527C375.943 465.527 374.867 464.641 374.867 463.255V463.241C374.867 461.877 375.894 461.083 377.715 460.97L379.782 460.851V460.176C379.782 459.339 379.255 458.875 378.221 458.875C377.377 458.875 376.822 459.184 376.639 459.726L376.632 459.754H375.163L375.17 459.705C375.352 458.453 376.555 457.616 378.291 457.616C380.211 457.616 381.294 458.573 381.294 460.176V465.4H379.782V464.317H379.663C379.213 465.091 378.411 465.527 377.398 465.527ZM376.386 463.192C376.386 463.895 376.984 464.31 377.806 464.31C378.945 464.31 379.782 463.565 379.782 462.58V461.927L377.919 462.046C376.864 462.109 376.386 462.489 376.386 463.178V463.192ZM383.445 465.4V457.764H384.971V458.924H385.084C385.456 458.109 386.188 457.616 387.298 457.616C389.007 457.616 389.949 458.636 389.949 460.457V465.4H388.43V460.816C388.43 459.55 387.903 458.924 386.785 458.924C385.667 458.924 384.971 459.691 384.971 460.921V465.4H383.445ZM394.857 465.548C393.015 465.548 391.848 464.683 391.7 463.403V463.396H393.226L393.233 463.403C393.423 463.98 393.978 464.366 394.885 464.366C395.827 464.366 396.481 463.938 396.481 463.312V463.298C396.481 462.82 396.123 462.496 395.237 462.292L394.02 462.011C392.579 461.68 391.911 461.027 391.911 459.909V459.902C391.911 458.573 393.148 457.616 394.878 457.616C396.622 457.616 397.74 458.488 397.873 459.733V459.74H396.418V459.726C396.27 459.191 395.729 458.791 394.871 458.791C394.034 458.791 393.43 459.205 393.43 459.817V459.831C393.43 460.309 393.781 460.605 394.639 460.809L395.848 461.083C397.318 461.427 398.021 462.053 398.021 463.157V463.171C398.021 464.584 396.671 465.548 394.857 465.548ZM401.938 465.527C400.482 465.527 399.406 464.641 399.406 463.255V463.241C399.406 461.877 400.433 461.083 402.254 460.97L404.321 460.851V460.176C404.321 459.339 403.794 458.875 402.76 458.875C401.916 458.875 401.361 459.184 401.178 459.726L401.171 459.754H399.702L399.709 459.705C399.891 458.453 401.094 457.616 402.83 457.616C404.75 457.616 405.833 458.573 405.833 460.176V465.4H404.321V464.317H404.202C403.752 465.091 402.95 465.527 401.938 465.527ZM400.925 463.192C400.925 463.895 401.523 464.31 402.345 464.31C403.484 464.31 404.321 463.565 404.321 462.58V461.927L402.458 462.046C401.403 462.109 400.925 462.489 400.925 463.178V463.192ZM411.198 465.548C408.969 465.548 407.605 464.029 407.605 461.561V461.547C407.605 459.128 408.962 457.616 411.191 457.616C413.11 457.616 414.256 458.699 414.467 460.183V460.218L413.005 460.225L412.998 460.204C412.829 459.452 412.21 458.889 411.198 458.889C409.925 458.889 409.159 459.902 409.159 461.547V461.561C409.159 463.248 409.939 464.275 411.198 464.275C412.154 464.275 412.745 463.839 412.991 463.016L413.005 462.981H414.467L414.453 463.045C414.179 464.528 413.089 465.548 411.198 465.548ZM419.192 465.449C417.512 465.449 416.823 464.859 416.823 463.389V458.966H415.627V457.764H416.823V455.838H418.377V457.764H420.015V458.966H418.377V463.023C418.377 463.846 418.686 464.184 419.438 464.184C419.67 464.184 419.804 464.177 420.015 464.155V465.372C419.769 465.414 419.488 465.449 419.192 465.449ZM422.588 456.4C422.061 456.4 421.632 455.971 421.632 455.451C421.632 454.923 422.061 454.495 422.588 454.495C423.109 454.495 423.545 454.923 423.545 455.451C423.545 455.971 423.109 456.4 422.588 456.4ZM421.822 465.4V457.764H423.341V465.4H421.822ZM428.797 465.548C426.554 465.548 425.183 464.05 425.183 461.589V461.575C425.183 459.121 426.561 457.616 428.797 457.616C431.026 457.616 432.404 459.114 432.404 461.575V461.589C432.404 464.05 431.033 465.548 428.797 465.548ZM428.797 464.275C430.105 464.275 430.85 463.277 430.85 461.589V461.575C430.85 459.88 430.105 458.889 428.797 458.889C427.482 458.889 426.744 459.88 426.744 461.575V461.589C426.744 463.284 427.482 464.275 428.797 464.275ZM434.225 465.4V457.764H435.751V458.924H435.863C436.236 458.109 436.967 457.616 438.078 457.616C439.787 457.616 440.729 458.636 440.729 460.457V465.4H439.21V460.816C439.21 459.55 438.683 458.924 437.565 458.924C436.447 458.924 435.751 459.691 435.751 460.921V465.4H434.225ZM446.973 465.4V455.254H453.308V456.611H448.548V459.824H452.907V461.153H448.548V465.4H446.973ZM458.384 465.548C456.148 465.548 454.798 464.022 454.798 461.603V461.596C454.798 459.213 456.177 457.616 458.307 457.616C460.438 457.616 461.745 459.156 461.745 461.448V461.983H456.331C456.359 463.445 457.161 464.296 458.42 464.296C459.397 464.296 459.98 463.811 460.163 463.417L460.191 463.361L461.661 463.354L461.647 463.417C461.394 464.423 460.339 465.548 458.384 465.548ZM458.314 458.868C457.273 458.868 456.486 459.578 456.352 460.893H460.234C460.114 459.529 459.348 458.868 458.314 458.868ZM466.766 465.548C464.53 465.548 463.18 464.022 463.18 461.603V461.596C463.18 459.213 464.558 457.616 466.688 457.616C468.819 457.616 470.127 459.156 470.127 461.448V461.983H464.713C464.741 463.445 465.542 464.296 466.801 464.296C467.778 464.296 468.362 463.811 468.545 463.417L468.573 463.361L470.042 463.354L470.028 463.417C469.775 464.423 468.72 465.548 466.766 465.548ZM466.695 458.868C465.655 458.868 464.867 459.578 464.734 460.893H468.615C468.495 459.529 467.729 458.868 466.695 458.868Z" fill="black" fill-opacity="0.5"/>
<path d="M366.434 491.528C363.313 491.528 361.438 488.8 361.438 484.441V484.422C361.438 480.063 363.313 477.344 366.434 477.344C369.547 477.344 371.431 480.063 371.431 484.422V484.441C371.431 488.8 369.547 491.528 366.434 491.528ZM366.434 489.784C368.244 489.784 369.313 487.75 369.313 484.441V484.422C369.313 481.113 368.244 479.097 366.434 479.097C364.616 479.097 363.556 481.113 363.556 484.422V484.441C363.556 487.75 364.616 489.784 366.434 489.784ZM374.853 491.341C374.075 491.341 373.475 490.741 373.475 489.981C373.475 489.213 374.075 488.613 374.853 488.613C375.631 488.613 376.222 489.213 376.222 489.981C376.222 490.741 375.631 491.341 374.853 491.341ZM383.309 491.528C380.188 491.528 378.313 488.8 378.313 484.441V484.422C378.313 480.063 380.188 477.344 383.309 477.344C386.422 477.344 388.306 480.063 388.306 484.422V484.441C388.306 488.8 386.422 491.528 383.309 491.528ZM383.309 489.784C385.119 489.784 386.188 487.75 386.188 484.441V484.422C386.188 481.113 385.119 479.097 383.309 479.097C381.491 479.097 380.431 481.113 380.431 484.422V484.441C380.431 487.75 381.491 489.784 383.309 489.784ZM395.778 491.528C392.656 491.528 390.781 488.8 390.781 484.441V484.422C390.781 480.063 392.656 477.344 395.778 477.344C398.891 477.344 400.775 480.063 400.775 484.422V484.441C400.775 488.8 398.891 491.528 395.778 491.528ZM395.778 489.784C397.588 489.784 398.656 487.75 398.656 484.441V484.422C398.656 481.113 397.588 479.097 395.778 479.097C393.959 479.097 392.9 481.113 392.9 484.422V484.441C392.9 487.75 393.959 489.784 395.778 489.784ZM406.784 491.2V479.838H406.625L403.222 482.266V480.203L406.784 477.672H408.884V491.2H406.784ZM418.203 491.2V477.672H420.622L424.934 488.463H425.084L429.397 477.672H431.816V491.2H429.903V481.272H429.763L425.788 491.2H424.231L420.266 481.272H420.116V491.2H418.203ZM435.209 491.2V477.672H437.309V491.2H435.209ZM440.703 491.2V477.672H442.597L449.553 487.516H449.694V477.672H451.738V491.2H449.844L442.897 481.375H442.747V491.2H440.703ZM454.1 491.2L458.984 477.672H461.253L466.138 491.2H463.925L462.706 487.544H457.531L456.303 491.2H454.1ZM460.034 480.044L458.094 485.856H462.144L460.194 480.044H460.034Z" fill="black"/>
<rect x="472" y="474.5" width="114" height="20.4" rx="3.6" fill="#0DB27C" fill-opacity="0.1"/>
<path d="M481.504 490.446C479.212 490.446 477.742 489.286 477.602 487.577L477.595 487.486H479.141L479.148 487.563C479.233 488.484 480.21 489.075 481.567 489.075C482.861 489.075 483.782 488.428 483.782 487.486V487.479C483.782 486.699 483.234 486.192 481.891 485.904L480.78 485.665C478.72 485.229 477.834 484.273 477.834 482.775V482.768C477.841 481.017 479.359 479.808 481.511 479.808C483.662 479.808 485.069 481.024 485.181 482.599L485.188 482.698H483.662L483.648 482.606C483.515 481.777 482.72 481.172 481.49 481.179C480.302 481.179 479.423 481.734 479.423 482.691V482.698C479.423 483.45 479.957 483.942 481.272 484.224L482.376 484.47C484.506 484.927 485.378 485.784 485.378 487.289V487.296C485.378 489.237 483.866 490.446 481.504 490.446ZM488.071 481.2C487.544 481.2 487.115 480.771 487.115 480.251C487.115 479.724 487.544 479.295 488.071 479.295C488.591 479.295 489.027 479.724 489.027 480.251C489.027 480.771 488.591 481.2 488.071 481.2ZM487.305 490.2V482.564H488.823V490.2H487.305ZM493.928 490.249C492.248 490.249 491.559 489.659 491.559 488.189V483.766H490.363V482.564H491.559V480.638H493.112V482.564H494.751V483.766H493.112V487.824C493.112 488.646 493.422 488.984 494.174 488.984C494.406 488.984 494.54 488.977 494.751 488.956V490.172C494.505 490.214 494.223 490.249 493.928 490.249ZM499.652 490.348C497.416 490.348 496.066 488.822 496.066 486.403V486.396C496.066 484.013 497.444 482.416 499.574 482.416C501.705 482.416 503.012 483.956 503.012 486.249V486.783H497.598C497.627 488.245 498.428 489.096 499.687 489.096C500.664 489.096 501.248 488.611 501.43 488.217L501.459 488.161L502.928 488.154L502.914 488.217C502.661 489.223 501.606 490.348 499.652 490.348ZM499.581 483.668C498.541 483.668 497.753 484.378 497.62 485.693H501.501C501.381 484.329 500.615 483.668 499.581 483.668ZM511.541 490.348C509.699 490.348 508.532 489.483 508.384 488.203V488.196H509.91L509.917 488.203C510.107 488.78 510.662 489.166 511.57 489.166C512.512 489.166 513.166 488.738 513.166 488.112V488.098C513.166 487.62 512.807 487.296 511.921 487.092L510.705 486.811C509.263 486.481 508.595 485.827 508.595 484.709V484.702C508.595 483.373 509.833 482.416 511.562 482.416C513.306 482.416 514.424 483.288 514.558 484.533V484.54H513.102V484.526C512.955 483.991 512.413 483.591 511.555 483.591C510.719 483.591 510.114 484.006 510.114 484.617V484.631C510.114 485.109 510.466 485.405 511.323 485.609L512.533 485.883C514.002 486.227 514.705 486.853 514.705 487.957V487.971C514.705 489.384 513.355 490.348 511.541 490.348ZM519.072 490.348C517.349 490.348 516.456 489.314 516.456 487.507V482.564H517.982V487.149C517.982 488.414 518.446 489.04 519.564 489.04C520.787 489.04 521.441 488.274 521.441 487.043V482.564H522.96V490.2H521.441V489.047H521.322C520.956 489.87 520.183 490.348 519.072 490.348ZM528.388 492.893C526.448 492.893 525.252 492.042 525.07 490.77L525.084 490.756H526.623L526.63 490.77C526.757 491.297 527.376 491.67 528.409 491.67C529.668 491.67 530.413 491.079 530.413 490.038V488.534H530.301C529.837 489.363 528.993 489.827 527.945 489.827C525.984 489.827 524.774 488.316 524.774 486.164V486.15C524.774 483.97 525.991 482.431 527.973 482.431C529.042 482.431 529.872 482.958 530.315 483.816H530.406V482.564H531.925V490.045C531.925 491.782 530.554 492.893 528.388 492.893ZM528.367 488.569C529.661 488.569 530.441 487.584 530.441 486.157V486.143C530.441 484.723 529.654 483.724 528.367 483.724C527.066 483.724 526.335 484.723 526.335 486.143V486.157C526.335 487.577 527.066 488.569 528.367 488.569ZM537.346 492.893C535.405 492.893 534.21 492.042 534.027 490.77L534.041 490.756H535.581L535.588 490.77C535.715 491.297 536.334 491.67 537.367 491.67C538.626 491.67 539.371 491.079 539.371 490.038V488.534H539.259C538.795 489.363 537.951 489.827 536.903 489.827C534.941 489.827 533.732 488.316 533.732 486.164V486.15C533.732 483.97 534.948 482.431 536.931 482.431C538 482.431 538.83 482.958 539.273 483.816H539.364V482.564H540.883V490.045C540.883 491.782 539.512 492.893 537.346 492.893ZM537.325 488.569C538.619 488.569 539.399 487.584 539.399 486.157V486.143C539.399 484.723 538.612 483.724 537.325 483.724C536.024 483.724 535.293 484.723 535.293 486.143V486.157C535.293 487.577 536.024 488.569 537.325 488.569ZM546.283 490.348C544.047 490.348 542.697 488.822 542.697 486.403V486.396C542.697 484.013 544.075 482.416 546.205 482.416C548.336 482.416 549.644 483.956 549.644 486.249V486.783H544.23C544.258 488.245 545.059 489.096 546.318 489.096C547.295 489.096 547.879 488.611 548.062 488.217L548.09 488.161L549.559 488.154L549.545 488.217C549.292 489.223 548.237 490.348 546.283 490.348ZM546.212 483.668C545.172 483.668 544.384 484.378 544.251 485.693H548.132C548.012 484.329 547.246 483.668 546.212 483.668ZM554.235 490.348C552.393 490.348 551.226 489.483 551.078 488.203V488.196H552.604L552.611 488.203C552.801 488.78 553.356 489.166 554.263 489.166C555.205 489.166 555.859 488.738 555.859 488.112V488.098C555.859 487.62 555.501 487.296 554.615 487.092L553.398 486.811C551.957 486.481 551.289 485.827 551.289 484.709V484.702C551.289 483.373 552.527 482.416 554.256 482.416C556 482.416 557.118 483.288 557.252 484.533V484.54H555.796V484.526C555.648 483.991 555.107 483.591 554.249 483.591C553.412 483.591 552.808 484.006 552.808 484.617V484.631C552.808 485.109 553.159 485.405 554.017 485.609L555.227 485.883C556.696 486.227 557.399 486.853 557.399 487.957V487.971C557.399 489.384 556.049 490.348 554.235 490.348ZM562.047 490.249C560.366 490.249 559.677 489.659 559.677 488.189V483.766H558.482V482.564H559.677V480.638H561.231V482.564H562.87V483.766H561.231V487.824C561.231 488.646 561.541 488.984 562.293 488.984C562.525 488.984 562.659 488.977 562.87 488.956V490.172C562.623 490.214 562.342 490.249 562.047 490.249ZM567.77 490.348C565.534 490.348 564.184 488.822 564.184 486.403V486.396C564.184 484.013 565.562 482.416 567.693 482.416C569.823 482.416 571.131 483.956 571.131 486.249V486.783H565.717C565.745 488.245 566.547 489.096 567.805 489.096C568.783 489.096 569.366 488.611 569.549 488.217L569.577 488.161L571.047 488.154L571.033 488.217C570.78 489.223 569.725 490.348 567.77 490.348ZM567.7 483.668C566.659 483.668 565.872 484.378 565.738 485.693H569.62C569.5 484.329 568.734 483.668 567.7 483.668ZM575.73 490.327C573.81 490.327 572.566 488.787 572.566 486.389V486.375C572.566 483.956 573.789 482.431 575.73 482.431C576.777 482.431 577.67 482.951 578.078 483.774H578.198V479.569H579.716V490.2H578.198V488.998H578.078C577.635 489.834 576.798 490.327 575.73 490.327ZM576.166 489.026C577.438 489.026 578.219 488.02 578.219 486.389V486.375C578.219 484.744 577.431 483.738 576.166 483.738C574.886 483.738 574.12 484.737 574.12 486.375V486.389C574.12 488.027 574.886 489.026 576.166 489.026Z" fill="#0DB27C"/>
<path d="M682.515 492.2L686.789 480.363H688.774L693.048 492.2H691.112L690.045 489.001H685.517L684.443 492.2H682.515ZM687.707 482.438L686.009 487.524H689.553L687.847 482.438H687.707ZM697.658 492.348C695.418 492.348 693.966 490.551 693.966 487.754V487.738C693.966 484.916 695.394 483.136 697.658 483.136C698.88 483.136 699.922 483.743 700.398 484.702H700.537V479.797H702.309V492.2H700.537V490.797H700.398C699.881 491.774 698.905 492.348 697.658 492.348ZM698.166 490.83C699.651 490.83 700.562 489.657 700.562 487.754V487.738C700.562 485.834 699.643 484.661 698.166 484.661C696.673 484.661 695.779 485.826 695.779 487.738V487.754C695.779 489.665 696.673 490.83 698.166 490.83ZM707.411 492.2L704.188 483.291H706.074L708.297 490.395H708.437L710.652 483.291H712.522L709.306 492.2H707.411ZM716.443 492.348C714.745 492.348 713.49 491.314 713.49 489.698V489.682C713.49 488.09 714.688 487.163 716.812 487.032L719.224 486.893V486.105C719.224 485.129 718.609 484.588 717.403 484.588C716.418 484.588 715.77 484.949 715.557 485.58L715.549 485.613H713.834L713.843 485.556C714.056 484.095 715.459 483.119 717.485 483.119C719.724 483.119 720.988 484.235 720.988 486.105V492.2H719.224V490.937H719.084C718.559 491.839 717.624 492.348 716.443 492.348ZM715.262 489.624C715.262 490.445 715.959 490.929 716.919 490.929C718.248 490.929 719.224 490.059 719.224 488.911V488.148L717.05 488.287C715.82 488.361 715.262 488.804 715.262 489.608V489.624ZM723.498 492.2V483.291H725.278V484.645H725.409C725.844 483.693 726.697 483.119 727.993 483.119C729.986 483.119 731.086 484.309 731.086 486.433V492.2H729.314V486.852C729.314 485.375 728.698 484.645 727.394 484.645C726.09 484.645 725.278 485.539 725.278 486.975V492.2H723.498ZM737.32 492.372C734.72 492.372 733.128 490.6 733.128 487.721V487.705C733.128 484.883 734.711 483.119 737.312 483.119C739.551 483.119 740.888 484.382 741.134 486.113V486.154L739.428 486.163L739.42 486.138C739.223 485.26 738.501 484.604 737.32 484.604C735.835 484.604 734.941 485.785 734.941 487.705V487.721C734.941 489.69 735.852 490.888 737.32 490.888C738.436 490.888 739.125 490.379 739.412 489.419L739.428 489.378H741.134L741.118 489.452C740.798 491.183 739.527 492.372 737.32 492.372ZM746.893 492.372C744.284 492.372 742.709 490.592 742.709 487.77V487.762C742.709 484.981 744.317 483.119 746.803 483.119C749.288 483.119 750.814 484.916 750.814 487.59V488.213H744.498C744.53 489.92 745.466 490.912 746.934 490.912C748.074 490.912 748.755 490.346 748.968 489.887L749.001 489.821L750.716 489.813L750.699 489.887C750.404 491.06 749.173 492.372 746.893 492.372ZM746.811 484.579C745.597 484.579 744.678 485.408 744.522 486.942H749.05C748.911 485.35 748.017 484.579 746.811 484.579ZM756.179 492.348C753.939 492.348 752.488 490.551 752.488 487.754V487.738C752.488 484.916 753.915 483.136 756.179 483.136C757.401 483.136 758.443 483.743 758.919 484.702H759.058V479.797H760.83V492.2H759.058V490.797H758.919C758.402 491.774 757.426 492.348 756.179 492.348ZM756.688 490.83C758.172 490.83 759.083 489.657 759.083 487.754V487.738C759.083 485.834 758.164 484.661 756.688 484.661C755.195 484.661 754.3 485.826 754.3 487.738V487.754C754.3 489.665 755.195 490.83 756.688 490.83Z" fill="#594AF1"/>
<line x1="360.2" y1="579.7" x2="762.2" y2="579.7" stroke="black" stroke-opacity="0.1" stroke-width="0.6"/>
<path d="M367.798 567.695C364.443 567.695 362.36 565.316 362.36 561.494V561.477C362.36 557.638 364.435 555.268 367.79 555.268C370.481 555.268 372.523 556.974 372.802 559.394V559.459H370.727L370.719 559.427C370.415 558.024 369.283 557.097 367.79 557.097C365.78 557.097 364.525 558.779 364.525 561.469V561.486C364.525 564.184 365.78 565.866 367.798 565.866C369.3 565.866 370.415 565.029 370.719 563.725L370.727 563.684H372.802V563.741C372.491 566.112 370.53 567.695 367.798 567.695ZM378.823 567.58C376.133 567.58 374.509 565.825 374.509 562.921V562.905C374.509 560.025 376.157 558.262 378.823 558.262C381.498 558.262 383.138 560.017 383.138 562.905V562.921C383.138 565.825 381.506 567.58 378.823 567.58ZM378.823 565.923C380.243 565.923 381.047 564.816 381.047 562.929V562.913C381.047 561.026 380.234 559.911 378.823 559.911C377.404 559.911 376.592 561.026 376.592 562.913V562.929C376.592 564.816 377.404 565.923 378.823 565.923ZM385.189 567.4V558.434H387.232V559.804H387.371C387.798 558.844 388.659 558.262 389.955 558.262C391.957 558.262 393.048 559.468 393.048 561.6V567.4H391.005V562.076C391.005 560.682 390.439 559.976 389.2 559.976C387.986 559.976 387.232 560.829 387.232 562.175V567.4H385.189ZM398.987 567.441C396.928 567.441 396.083 566.752 396.083 565.021V560.017H394.688V558.434H396.083V556.236H398.158V558.434H400.053V560.017H398.158V564.537C398.158 565.431 398.511 565.809 399.364 565.809C399.651 565.809 399.807 565.8 400.053 565.776V567.351C399.758 567.408 399.38 567.441 398.987 567.441ZM405.845 567.58C403.179 567.58 401.563 565.792 401.563 562.938V562.929C401.563 560.107 403.195 558.262 405.746 558.262C408.297 558.262 409.872 560.05 409.872 562.757V563.43H403.605C403.63 565.038 404.499 565.973 405.886 565.973C406.993 565.973 407.625 565.415 407.822 565.005L407.846 564.947H409.79L409.766 565.021C409.479 566.178 408.281 567.58 405.845 567.58ZM405.771 559.861C404.63 559.861 403.777 560.632 403.622 562.06H407.879C407.739 560.591 406.911 559.861 405.771 559.861ZM411.915 567.4V558.434H413.957V559.804H414.097C414.523 558.844 415.385 558.262 416.681 558.262C418.682 558.262 419.773 559.468 419.773 561.6V567.4H417.731V562.076C417.731 560.682 417.165 559.976 415.926 559.976C414.712 559.976 413.957 560.829 413.957 562.175V567.4H411.915ZM425.713 567.441C423.654 567.441 422.809 566.752 422.809 565.021V560.017H421.414V558.434H422.809V556.236H424.884V558.434H426.779V560.017H424.884V564.537C424.884 565.431 425.237 565.809 426.09 565.809C426.377 565.809 426.533 565.8 426.779 565.776V567.351C426.484 567.408 426.106 567.441 425.713 567.441Z" fill="black" fill-opacity="0.85"/>
<path d="M361.4 578.6H428.4V581H361.4V578.6Z" fill="black"/>
<path d="M449.06 567.4V555.563H451.488L455.048 564.668H455.188L458.74 555.563H461.168V567.4H459.265V558.984H459.117L455.836 567.4H454.392L451.111 558.984H450.972V567.4H449.06ZM467.714 567.58C465.048 567.58 463.432 565.792 463.432 562.938V562.929C463.432 560.107 465.064 558.262 467.616 558.262C470.167 558.262 471.742 560.05 471.742 562.757V563.43H465.475C465.499 565.038 466.369 565.973 467.755 565.973C468.863 565.973 469.494 565.415 469.691 565.005L469.716 564.947H471.66L471.635 565.021C471.348 566.178 470.15 567.58 467.714 567.58ZM467.64 559.861C466.5 559.861 465.647 560.632 465.491 562.06H469.748C469.609 560.591 468.781 559.861 467.64 559.861ZM473.784 567.4V558.434H475.827V559.829H475.966C476.352 558.828 477.254 558.262 478.427 558.262C479.641 558.262 480.527 558.885 480.913 559.878H481.052C481.487 558.902 482.521 558.262 483.768 558.262C485.572 558.262 486.655 559.369 486.655 561.231V567.4H484.613V561.732C484.613 560.567 484.079 559.976 482.988 559.976C481.922 559.976 481.233 560.772 481.233 561.797V567.4H479.19V561.584C479.19 560.591 478.575 559.976 477.574 559.976C476.565 559.976 475.827 560.829 475.827 561.945V567.4H473.784ZM492.947 567.58C490.256 567.58 488.632 565.825 488.632 562.921V562.905C488.632 560.025 490.281 558.262 492.947 558.262C495.621 558.262 497.262 560.017 497.262 562.905V562.921C497.262 565.825 495.629 567.58 492.947 567.58ZM492.947 565.923C494.366 565.923 495.17 564.816 495.17 562.929V562.913C495.17 561.026 494.358 559.911 492.947 559.911C491.528 559.911 490.716 561.026 490.716 562.913V562.929C490.716 564.816 491.528 565.923 492.947 565.923Z" fill="black" fill-opacity="0.5"/>
</g>
<rect x="103.4" y="264.4" width="278" height="80" rx="19.2" fill="#685DF2" fill-opacity="0.9"/>
<path d="M129.037 313.4V311.441L136.552 302.018V301.798H129.102V299.311H140.342V301.45L133.098 310.693V310.925H140.458V313.4H129.037ZM144.184 313.4V293.858H147.393V305.086H147.613L152.807 299.311H156.52L150.848 305.266L156.907 313.4H153.039L148.515 307.303L147.393 308.45V313.4H144.184ZM158.325 313.4L164.925 294.799H168.676L175.276 313.4H171.795L170.236 308.592H163.352L161.805 313.4H158.325ZM166.691 298.254L164.19 306.027H169.411L166.91 298.254H166.691ZM178.138 318.079V299.311H181.347V301.515H181.566C182.34 299.981 183.874 299.079 185.846 299.079C189.378 299.079 191.634 301.889 191.634 306.349V306.375C191.634 310.861 189.417 313.632 185.846 313.632C183.913 313.632 182.301 312.678 181.566 311.157H181.347V318.079H178.138ZM184.841 310.925C187.032 310.925 188.36 309.198 188.36 306.375V306.349C188.36 303.513 187.032 301.786 184.841 301.786C182.662 301.786 181.309 303.513 181.309 306.336V306.362C181.309 309.185 182.662 310.925 184.841 310.925ZM194.87 318.079V299.311H198.079V301.515H198.298C199.072 299.981 200.606 299.079 202.578 299.079C206.11 299.079 208.366 301.889 208.366 306.349V306.375C208.366 310.861 206.149 313.632 202.578 313.632C200.645 313.632 199.033 312.678 198.298 311.157H198.079V318.079H194.87ZM201.573 310.925C203.764 310.925 205.092 309.198 205.092 306.375V306.349C205.092 303.513 203.764 301.786 201.573 301.786C199.394 301.786 198.041 303.513 198.041 306.336V306.362C198.041 309.185 199.394 310.925 201.573 310.925ZM220.29 296.952C219.233 296.952 218.369 296.114 218.369 295.057C218.369 294.013 219.233 293.162 220.29 293.162C221.334 293.162 222.198 294.013 222.198 295.057C222.198 296.114 221.334 296.952 220.29 296.952ZM218.679 313.4V299.311H221.888V313.4H218.679ZM225.833 313.4V299.311H229.043V301.463H229.262C229.932 299.955 231.286 299.04 233.322 299.04C236.468 299.04 238.182 300.935 238.182 304.286V313.4H234.972V305.034C234.972 302.843 234.083 301.734 232.136 301.734C230.229 301.734 229.043 303.075 229.043 305.189V313.4H225.833ZM247.515 313.464C244.279 313.464 242.952 312.382 242.952 309.662V301.798H240.76V299.311H242.952V295.856H246.213V299.311H249.191V301.798H246.213V308.901C246.213 310.306 246.767 310.899 248.108 310.899C248.559 310.899 248.804 310.886 249.191 310.848V313.323C248.727 313.413 248.134 313.464 247.515 313.464ZM258.291 313.684C254.102 313.684 251.563 310.873 251.563 306.388V306.375C251.563 301.94 254.128 299.04 258.137 299.04C262.146 299.04 264.621 301.85 264.621 306.104V307.161H254.772C254.811 309.688 256.177 311.157 258.356 311.157C260.096 311.157 261.089 310.28 261.398 309.636L261.437 309.546H264.492L264.453 309.662C264.002 311.479 262.12 313.684 258.291 313.684ZM258.175 301.554C256.384 301.554 255.043 302.765 254.798 305.008H261.488C261.269 302.701 259.967 301.554 258.175 301.554ZM267.83 313.4V299.311H271.04V301.476H271.259C271.736 299.968 273.025 299.079 274.882 299.079C275.372 299.079 275.874 299.143 276.184 299.233V302.108C275.668 302.005 275.139 301.927 274.585 301.927C272.445 301.927 271.04 303.204 271.04 305.214V313.4H267.83ZM282.474 313.632C279.793 313.632 277.847 311.982 277.847 309.417V309.391C277.847 306.877 279.767 305.408 283.196 305.202L286.818 304.982V303.771C286.818 302.366 285.903 301.592 284.176 301.592C282.706 301.592 281.752 302.121 281.43 303.049L281.417 303.1H278.388L278.401 302.984C278.71 300.613 280.979 299.04 284.331 299.04C287.953 299.04 289.989 300.793 289.989 303.771V313.4H286.818V311.466H286.599C285.826 312.833 284.331 313.632 282.474 313.632ZM281.018 309.262C281.018 310.461 282.036 311.17 283.454 311.17C285.388 311.17 286.818 309.907 286.818 308.231V307.097L283.647 307.303C281.856 307.419 281.018 308.076 281.018 309.236V309.262ZM299.889 313.684C295.648 313.684 293.148 310.938 293.148 306.336V306.31C293.148 301.76 295.636 299.04 299.877 299.04C303.499 299.04 305.664 301.051 306.025 303.964V304.016H302.996L302.983 303.977C302.687 302.611 301.643 301.631 299.889 301.631C297.698 301.631 296.409 303.358 296.409 306.31V306.336C296.409 309.327 297.711 311.08 299.889 311.08C301.552 311.08 302.571 310.319 302.97 308.837L302.996 308.785L306.025 308.772L306 308.875C305.536 311.763 303.46 313.684 299.889 313.684ZM314.804 313.464C311.568 313.464 310.241 312.382 310.241 309.662V301.798H308.049V299.311H310.241V295.856H313.502V299.311H316.48V301.798H313.502V308.901C313.502 310.306 314.056 310.899 315.397 310.899C315.848 310.899 316.093 310.886 316.48 310.848V313.323C316.016 313.413 315.423 313.464 314.804 313.464ZM321.327 296.952C320.27 296.952 319.406 296.114 319.406 295.057C319.406 294.013 320.27 293.162 321.327 293.162C322.371 293.162 323.234 294.013 323.234 295.057C323.234 296.114 322.371 296.952 321.327 296.952ZM319.715 313.4V299.311H322.925V313.4H319.715ZM332.954 313.684C328.726 313.684 326.173 310.925 326.173 306.362V306.336C326.173 301.811 328.764 299.04 332.954 299.04C337.156 299.04 339.734 301.798 339.734 306.336V306.362C339.734 310.925 337.169 313.684 332.954 313.684ZM332.954 311.08C335.184 311.08 336.447 309.339 336.447 306.375V306.349C336.447 303.384 335.171 301.631 332.954 301.631C330.724 301.631 329.448 303.384 329.448 306.349V306.375C329.448 309.339 330.724 311.08 332.954 311.08ZM342.957 313.4V299.311H346.167V301.463H346.386C347.056 299.955 348.41 299.04 350.447 299.04C353.592 299.04 355.306 300.935 355.306 304.286V313.4H352.097V305.034C352.097 302.843 351.207 301.734 349.261 301.734C347.353 301.734 346.167 303.075 346.167 305.189V313.4H342.957Z" fill="white"/>
<defs>
<filter id="filter0_f_5395_10527" x="70.6" y="0" width="980" height="980" filterUnits="userSpaceOnUse" color-interpolation-filters="sRGB">
<feFlood flood-opacity="0" result="BackgroundImageFix"/>
<feBlend mode="normal" in="SourceGraphic" in2="BackgroundImageFix" result="shape"/>
<feGaussianBlur stdDeviation="80" result="effect1_foregroundBlur_5395_10527"/>
</filter>
<filter id="filter1_f_5395_10527" x="388.16" y="213.88" width="63.72" height="63.72" filterUnits="userSpaceOnUse" color-interpolation-filters="sRGB">
<feFlood flood-opacity="0" result="BackgroundImageFix"/>
<feBlend mode="normal" in="SourceGraphic" in2="BackgroundImageFix" result="shape"/>
<feGaussianBlur stdDeviation="9" result="effect1_foregroundBlur_5395_10527"/>
</filter>
<linearGradient id="paint0_linear_5395_10527" x1="410.84" y1="225.4" x2="412.581" y2="285.055" gradientUnits="userSpaceOnUse">
<stop stop-color="#CA5C89"/>
<stop offset="0.463031" stop-color="#4F55EC"/>
<stop offset="1" stop-color="#3531FF"/>
</linearGradient>
<linearGradient id="paint1_linear_5395_10527" x1="406.981" y1="257.151" x2="381.321" y2="281.448" gradientUnits="userSpaceOnUse">
<stop stop-color="#2821A7" stop-opacity="0.63"/>
<stop offset="1" stop-color="#2821A7" stop-opacity="0"/>
</linearGradient>
<clipPath id="clip0_5395_10527">
<rect x="336.2" y="130" width="450" height="720" rx="38.4" fill="white"/>
</clipPath>
</defs>
</svg>
