<svg width="1100" height="980" viewBox="0 0 1100 980" fill="none" xmlns="http://www.w3.org/2000/svg">
<g filter="url(#filter0_f_5395_10387)">
<circle cx="546" cy="490" r="330" fill="#59D99C" fill-opacity="0.5"/>
</g>
<circle cx="546" cy="490" r="330" fill="#59D99C"/>
<g clip-path="url(#clip0_5395_10387)">
<rect x="320.4" y="130" width="450" height="720" rx="38.4" fill="white"/>
<rect x="344.4" y="521.2" width="402" height="242.4" rx="14.4" fill="#F9FAFC"/>
<rect x="344.7" y="521.5" width="401.4" height="241.8" rx="14.1" stroke="black" stroke-opacity="0.05" stroke-width="0.6"/>
<rect x="614.4" y="701.2" width="108" height="38.4" rx="12" fill="#685DF2"/>
<path d="M643.658 727.079C640.443 727.079 638.433 724.7 638.433 720.894V720.877C638.433 717.063 640.434 714.684 643.65 714.684C646.144 714.684 648.088 716.251 648.441 718.523L648.432 718.54H646.948L646.939 718.523C646.546 717.006 645.282 716.046 643.65 716.046C641.378 716.046 639.95 717.916 639.95 720.877V720.894C639.95 723.855 641.378 725.717 643.658 725.717C645.307 725.717 646.562 724.872 646.931 723.511L646.948 723.494H648.441V723.511C648.047 725.676 646.177 727.079 643.658 727.079ZM650.82 726.8V714.446H652.247V719.286H652.378C652.821 718.351 653.65 717.801 654.954 717.801C656.939 717.801 658.046 718.974 658.046 721.074V726.8H656.619V721.419C656.619 719.827 655.963 719.065 654.552 719.065C653.141 719.065 652.247 720.016 652.247 721.566V726.8H650.82ZM663.059 726.956C661.377 726.956 660.105 725.939 660.105 724.331V724.315C660.105 722.74 661.27 721.829 663.329 721.706L665.864 721.55V720.746C665.864 719.655 665.2 719.065 663.879 719.065C662.821 719.065 662.123 719.458 661.894 720.147L661.886 720.172H660.458L660.466 720.123C660.696 718.736 662.041 717.801 663.928 717.801C666.086 717.801 667.291 718.909 667.291 720.746V726.8H665.864V725.496H665.733C665.175 726.439 664.248 726.956 663.059 726.956ZM661.566 724.298C661.566 725.192 662.329 725.717 663.354 725.717C664.806 725.717 665.864 724.766 665.864 723.502V722.698L663.502 722.846C662.156 722.928 661.566 723.404 661.566 724.282V724.298ZM669.9 726.8V717.957H671.327V719.286H671.459C671.902 718.351 672.73 717.801 674.034 717.801C676.02 717.801 677.127 718.974 677.127 721.074V726.8H675.7V721.419C675.7 719.827 675.043 719.065 673.632 719.065C672.221 719.065 671.327 720.016 671.327 721.566V726.8H669.9ZM683.353 729.917C681.22 729.917 679.859 728.957 679.637 727.506L679.654 727.497H681.13L681.138 727.506C681.294 728.178 682.082 728.654 683.353 728.654C684.936 728.654 685.88 727.907 685.88 726.603V724.815H685.748C685.191 725.791 684.19 726.341 682.976 726.341C680.687 726.341 679.268 724.569 679.268 722.091V722.075C679.268 719.598 680.695 717.801 683.009 717.801C684.255 717.801 685.223 718.416 685.765 719.417H685.863V717.957H687.291V726.677C687.291 728.654 685.765 729.917 683.353 729.917ZM683.287 725.077C684.928 725.077 685.912 723.847 685.912 722.091V722.075C685.912 720.32 684.92 719.065 683.287 719.065C681.647 719.065 680.728 720.32 680.728 722.075V722.091C680.728 723.847 681.647 725.077 683.287 725.077ZM693.558 726.956C691.031 726.956 689.505 725.184 689.505 722.411V722.403C689.505 719.672 691.064 717.801 693.468 717.801C695.871 717.801 697.331 719.59 697.331 722.231V722.789H690.966C691.007 724.618 692.016 725.684 693.591 725.684C694.788 725.684 695.527 725.118 695.764 724.585L695.797 724.511H697.225L697.208 724.577C696.905 725.775 695.641 726.956 693.558 726.956ZM693.459 719.073C692.147 719.073 691.146 719.967 690.99 721.648H695.879C695.732 719.901 694.764 719.073 693.459 719.073Z" fill="white"/>
<path d="M369.673 559.2V549.054H373.751C375.656 549.054 376.802 550.024 376.802 551.578V551.592C376.802 552.647 376.022 553.596 375.023 553.765V553.884C376.395 554.032 377.309 555.002 377.309 556.324V556.338C377.309 558.117 376.008 559.2 373.842 559.2H369.673ZM373.385 550.341H371.248V553.371H373.118C374.51 553.371 375.234 552.851 375.234 551.866V551.852C375.234 550.896 374.552 550.341 373.385 550.341ZM373.434 554.573H371.248V557.913H373.526C374.946 557.913 375.698 557.33 375.698 556.24V556.226C375.698 555.136 374.918 554.573 373.434 554.573ZM379.228 559.2V548.569H380.754V559.2H379.228ZM386.259 559.348C384.016 559.348 382.645 557.85 382.645 555.389V555.375C382.645 552.921 384.023 551.416 386.259 551.416C388.488 551.416 389.866 552.914 389.866 555.375V555.389C389.866 557.85 388.495 559.348 386.259 559.348ZM386.259 558.075C387.567 558.075 388.312 557.077 388.312 555.389V555.375C388.312 553.68 387.567 552.689 386.259 552.689C384.945 552.689 384.206 553.68 384.206 555.375V555.389C384.206 557.084 384.945 558.075 386.259 558.075ZM394.901 559.348C392.672 559.348 391.308 557.829 391.308 555.361V555.347C391.308 552.928 392.665 551.416 394.894 551.416C396.813 551.416 397.959 552.499 398.17 553.983V554.018L396.708 554.025L396.701 554.004C396.532 553.252 395.913 552.689 394.901 552.689C393.628 552.689 392.862 553.702 392.862 555.347V555.361C392.862 557.048 393.642 558.075 394.901 558.075C395.857 558.075 396.448 557.639 396.694 556.816L396.708 556.781H398.17L398.156 556.844C397.882 558.328 396.792 559.348 394.901 559.348ZM399.97 559.2V548.569H401.496V554.784H401.609L404.639 551.564H406.425L403.24 554.784L406.636 559.2H404.78L402.15 555.769L401.496 556.423V559.2H399.97ZM412.141 559.2V549.054H416.093C418.083 549.054 419.461 550.39 419.461 552.38V552.394C419.461 554.377 418.083 555.734 416.093 555.734H413.716V559.2H412.141ZM415.699 550.383H413.716V554.412H415.699C417.063 554.412 417.858 553.673 417.858 552.401V552.387C417.858 551.121 417.063 550.383 415.699 550.383ZM421.317 559.2V551.564H422.843V552.717H422.955C423.23 551.909 423.94 551.43 424.959 551.43C425.205 551.43 425.473 551.466 425.627 551.501V552.907C425.353 552.851 425.093 552.816 424.805 552.816C423.637 552.816 422.843 553.533 422.843 554.637V559.2H421.317ZM430.12 559.348C427.877 559.348 426.506 557.85 426.506 555.389V555.375C426.506 552.921 427.884 551.416 430.12 551.416C432.349 551.416 433.727 552.914 433.727 555.375V555.389C433.727 557.85 432.356 559.348 430.12 559.348ZM430.12 558.075C431.428 558.075 432.173 557.077 432.173 555.389V555.375C432.173 553.68 431.428 552.689 430.12 552.689C428.805 552.689 428.067 553.68 428.067 555.375V555.389C428.067 557.084 428.805 558.075 430.12 558.075ZM438.333 559.327C436.413 559.327 435.169 557.787 435.169 555.389V555.375C435.169 552.956 436.392 551.43 438.333 551.43C439.38 551.43 440.273 551.951 440.681 552.773H440.801V548.569H442.32V559.2H440.801V557.998H440.681C440.238 558.834 439.402 559.327 438.333 559.327ZM438.769 558.026C440.041 558.026 440.822 557.02 440.822 555.389V555.375C440.822 553.744 440.034 552.738 438.769 552.738C437.489 552.738 436.723 553.737 436.723 555.375V555.389C436.723 557.027 437.489 558.026 438.769 558.026ZM447.136 559.348C445.413 559.348 444.52 558.314 444.52 556.507V551.564H446.046V556.148C446.046 557.414 446.51 558.04 447.628 558.04C448.852 558.04 449.505 557.273 449.505 556.043V551.564H451.024V559.2H449.505V558.047H449.386C449.02 558.869 448.247 559.348 447.136 559.348ZM456.438 559.348C454.209 559.348 452.845 557.829 452.845 555.361V555.347C452.845 552.928 454.202 551.416 456.431 551.416C458.351 551.416 459.497 552.499 459.708 553.983V554.018L458.245 554.025L458.238 554.004C458.07 553.252 457.451 552.689 456.438 552.689C455.166 552.689 454.399 553.702 454.399 555.347V555.361C454.399 557.048 455.18 558.075 456.438 558.075C457.395 558.075 457.985 557.639 458.231 556.816L458.245 556.781H459.708L459.694 556.844C459.42 558.328 458.33 559.348 456.438 559.348ZM464.644 559.348C462.408 559.348 461.058 557.822 461.058 555.403V555.396C461.058 553.012 462.436 551.416 464.566 551.416C466.697 551.416 468.005 552.956 468.005 555.248V555.783H462.591C462.619 557.245 463.42 558.096 464.679 558.096C465.656 558.096 466.24 557.611 466.423 557.217L466.451 557.161L467.92 557.154L467.906 557.217C467.653 558.223 466.598 559.348 464.644 559.348ZM464.573 552.668C463.533 552.668 462.745 553.378 462.612 554.693H466.493C466.373 553.329 465.607 552.668 464.573 552.668ZM469.819 559.2V551.564H471.345V552.717H471.457C471.731 551.909 472.441 551.43 473.461 551.43C473.707 551.43 473.974 551.466 474.129 551.501V552.907C473.855 552.851 473.595 552.816 473.306 552.816C472.139 552.816 471.345 553.533 471.345 554.637V559.2H469.819ZM479.698 559.2V549.054H481.118L486.335 556.437H486.441V549.054H487.973V559.2H486.553L481.343 551.831H481.23V559.2H479.698ZM492.445 559.327C490.99 559.327 489.914 558.441 489.914 557.055V557.041C489.914 555.677 490.941 554.883 492.762 554.77L494.829 554.651V553.976C494.829 553.139 494.302 552.675 493.268 552.675C492.424 552.675 491.869 552.984 491.686 553.526L491.679 553.554H490.209L490.216 553.505C490.399 552.253 491.602 551.416 493.338 551.416C495.258 551.416 496.341 552.373 496.341 553.976V559.2H494.829V558.117H494.709C494.259 558.891 493.458 559.327 492.445 559.327ZM491.433 556.992C491.433 557.695 492.03 558.11 492.853 558.11C493.992 558.11 494.829 557.365 494.829 556.38V555.727L492.966 555.846C491.911 555.909 491.433 556.289 491.433 556.978V556.992ZM498.492 559.2V551.564H500.018V552.738H500.13C500.468 551.902 501.213 551.416 502.212 551.416C503.252 551.416 503.991 551.958 504.328 552.78H504.448C504.834 551.958 505.713 551.416 506.775 551.416C508.315 551.416 509.215 552.344 509.215 553.934V559.2H507.696V554.299C507.696 553.244 507.218 552.724 506.22 552.724C505.249 552.724 504.609 553.448 504.609 554.369V559.2H503.091V554.144C503.091 553.273 502.521 552.724 501.621 552.724C500.7 552.724 500.018 553.512 500.018 554.51V559.2H498.492ZM514.552 559.348C512.316 559.348 510.966 557.822 510.966 555.403V555.396C510.966 553.012 512.344 551.416 514.474 551.416C516.605 551.416 517.913 552.956 517.913 555.248V555.783H512.498C512.527 557.245 513.328 558.096 514.587 558.096C515.564 558.096 516.148 557.611 516.33 557.217L516.359 557.161L517.828 557.154L517.814 557.217C517.561 558.223 516.506 559.348 514.552 559.348ZM514.481 552.668C513.441 552.668 512.653 553.378 512.52 554.693H516.401C516.281 553.329 515.515 552.668 514.481 552.668Z" fill="black" fill-opacity="0.5"/>
<path d="M369.148 580.6L373.421 568.763H375.407L379.68 580.6H377.745L376.678 577.401H372.15L371.075 580.6H369.148ZM374.34 570.838L372.642 575.924H376.186L374.48 570.838H374.34ZM384.061 580.772C382.051 580.772 381.009 579.566 381.009 577.458V571.691H382.789V577.04C382.789 578.516 383.331 579.246 384.635 579.246C386.062 579.246 386.825 578.352 386.825 576.917V571.691H388.597V580.6H386.825V579.255H386.686C386.259 580.214 385.357 580.772 384.061 580.772ZM391.165 580.6V571.691H392.945V573.037H393.076C393.396 572.093 394.225 571.535 395.414 571.535C395.701 571.535 396.013 571.576 396.193 571.617V573.258C395.873 573.192 395.57 573.151 395.234 573.151C393.872 573.151 392.945 573.988 392.945 575.276V580.6H391.165ZM401.435 580.772C398.818 580.772 397.219 579.025 397.219 576.154V576.137C397.219 573.274 398.827 571.519 401.435 571.519C404.036 571.519 405.643 573.266 405.643 576.137V576.154C405.643 579.025 404.044 580.772 401.435 580.772ZM401.435 579.287C402.961 579.287 403.83 578.123 403.83 576.154V576.137C403.83 574.16 402.961 573.004 401.435 573.004C399.901 573.004 399.04 574.16 399.04 576.137V576.154C399.04 578.131 399.901 579.287 401.435 579.287ZM415.003 580.6L411.812 568.763H413.723L415.897 577.967H416.012L418.481 568.763H420.187L422.673 577.967H422.788L424.954 568.763H426.865L423.666 580.6H421.935L419.392 571.749H419.277L416.742 580.6H415.003ZM430.425 580.748C428.727 580.748 427.472 579.714 427.472 578.098V578.081C427.472 576.49 428.67 575.563 430.794 575.432L433.206 575.292V574.505C433.206 573.529 432.591 572.987 431.385 572.987C430.4 572.987 429.752 573.348 429.539 573.98L429.531 574.013H427.816L427.825 573.955C428.038 572.495 429.441 571.519 431.467 571.519C433.706 571.519 434.97 572.635 434.97 574.505V580.6H433.206V579.337H433.066C432.541 580.239 431.606 580.748 430.425 580.748ZM429.244 578.024C429.244 578.844 429.941 579.328 430.901 579.328C432.23 579.328 433.206 578.459 433.206 577.31V576.548L431.032 576.687C429.802 576.761 429.244 577.204 429.244 578.008V578.024ZM437.562 580.6V568.197H439.342V580.6H437.562ZM442.073 580.6V568.197H443.854V580.6H442.073ZM450.244 580.772C447.635 580.772 446.06 578.992 446.06 576.17V576.162C446.06 573.381 447.668 571.519 450.154 571.519C452.639 571.519 454.165 573.315 454.165 575.99V576.613H447.848C447.881 578.319 448.816 579.312 450.285 579.312C451.425 579.312 452.106 578.746 452.319 578.287L452.352 578.221L454.066 578.213L454.05 578.287C453.755 579.46 452.524 580.772 450.244 580.772ZM450.162 572.979C448.948 572.979 448.029 573.808 447.873 575.342H452.401C452.262 573.75 451.368 572.979 450.162 572.979ZM459.645 580.657C457.684 580.657 456.88 579.968 456.88 578.254V573.094H455.486V571.691H456.88V569.444H458.693V571.691H460.604V573.094H458.693V577.827C458.693 578.787 459.054 579.181 459.932 579.181C460.202 579.181 460.358 579.173 460.604 579.148V580.567C460.317 580.616 459.989 580.657 459.645 580.657Z" fill="black"/>
<path d="M369.673 610.6V600.454H373.751C375.656 600.454 376.802 601.424 376.802 602.978V602.992C376.802 604.047 376.022 604.996 375.023 605.165V605.284C376.395 605.432 377.309 606.402 377.309 607.724V607.738C377.309 609.517 376.008 610.6 373.842 610.6H369.673ZM373.385 601.74H371.248V604.771H373.118C374.51 604.771 375.234 604.251 375.234 603.266V603.252C375.234 602.296 374.552 601.74 373.385 601.74ZM373.434 605.973H371.248V609.313H373.526C374.946 609.313 375.698 608.73 375.698 607.64V607.626C375.698 606.536 374.918 605.973 373.434 605.973ZM379.228 610.6V599.969H380.754V610.6H379.228ZM386.259 610.748C384.016 610.748 382.645 609.25 382.645 606.789V606.775C382.645 604.321 384.023 602.816 386.259 602.816C388.488 602.816 389.866 604.314 389.866 606.775V606.789C389.866 609.25 388.495 610.748 386.259 610.748ZM386.259 609.475C387.567 609.475 388.312 608.476 388.312 606.789V606.775C388.312 605.08 387.567 604.089 386.259 604.089C384.945 604.089 384.206 605.08 384.206 606.775V606.789C384.206 608.483 384.945 609.475 386.259 609.475ZM394.901 610.748C392.672 610.748 391.308 609.229 391.308 606.761V606.747C391.308 604.328 392.665 602.816 394.894 602.816C396.813 602.816 397.959 603.899 398.17 605.383V605.418L396.708 605.425L396.701 605.404C396.532 604.651 395.913 604.089 394.901 604.089C393.628 604.089 392.862 605.101 392.862 606.747V606.761C392.862 608.448 393.642 609.475 394.901 609.475C395.857 609.475 396.448 609.039 396.694 608.216L396.708 608.181H398.17L398.156 608.244C397.882 609.728 396.792 610.748 394.901 610.748ZM399.97 610.6V599.969H401.496V606.184H401.609L404.639 602.964H406.425L403.24 606.184L406.636 610.6H404.78L402.15 607.169L401.496 607.823V610.6H399.97ZM412.141 610.6V600.454H416.093C418.083 600.454 419.461 601.79 419.461 603.78V603.794C419.461 605.776 418.083 607.133 416.093 607.133H413.716V610.6H412.141ZM415.699 601.783H413.716V605.812H415.699C417.063 605.812 417.858 605.073 417.858 603.801V603.787C417.858 602.521 417.063 601.783 415.699 601.783ZM421.317 610.6V602.964H422.843V604.117H422.955C423.23 603.308 423.94 602.83 424.959 602.83C425.205 602.83 425.473 602.865 425.627 602.901V604.307C425.353 604.251 425.093 604.215 424.805 604.215C423.637 604.215 422.843 604.933 422.843 606.037V610.6H421.317ZM430.12 610.748C427.877 610.748 426.506 609.25 426.506 606.789V606.775C426.506 604.321 427.884 602.816 430.12 602.816C432.349 602.816 433.727 604.314 433.727 606.775V606.789C433.727 609.25 432.356 610.748 430.12 610.748ZM430.12 609.475C431.428 609.475 432.173 608.476 432.173 606.789V606.775C432.173 605.08 431.428 604.089 430.12 604.089C428.805 604.089 428.067 605.08 428.067 606.775V606.789C428.067 608.483 428.805 609.475 430.12 609.475ZM438.333 610.726C436.413 610.726 435.169 609.187 435.169 606.789V606.775C435.169 604.356 436.392 602.83 438.333 602.83C439.38 602.83 440.273 603.351 440.681 604.173H440.801V599.969H442.32V610.6H440.801V609.398H440.681C440.238 610.234 439.402 610.726 438.333 610.726ZM438.769 609.426C440.041 609.426 440.822 608.42 440.822 606.789V606.775C440.822 605.144 440.034 604.138 438.769 604.138C437.489 604.138 436.723 605.137 436.723 606.775V606.789C436.723 608.427 437.489 609.426 438.769 609.426ZM447.136 610.748C445.413 610.748 444.52 609.714 444.52 607.907V602.964H446.046V607.548C446.046 608.814 446.51 609.44 447.628 609.44C448.852 609.44 449.505 608.673 449.505 607.443V602.964H451.024V610.6H449.505V609.447H449.386C449.02 610.269 448.247 610.748 447.136 610.748ZM456.438 610.748C454.209 610.748 452.845 609.229 452.845 606.761V606.747C452.845 604.328 454.202 602.816 456.431 602.816C458.351 602.816 459.497 603.899 459.708 605.383V605.418L458.245 605.425L458.238 605.404C458.07 604.651 457.451 604.089 456.438 604.089C455.166 604.089 454.399 605.101 454.399 606.747V606.761C454.399 608.448 455.18 609.475 456.438 609.475C457.395 609.475 457.985 609.039 458.231 608.216L458.245 608.181H459.708L459.694 608.244C459.42 609.728 458.33 610.748 456.438 610.748ZM464.644 610.748C462.408 610.748 461.058 609.222 461.058 606.803V606.796C461.058 604.412 462.436 602.816 464.566 602.816C466.697 602.816 468.005 604.356 468.005 606.648V607.183H462.591C462.619 608.645 463.42 609.496 464.679 609.496C465.656 609.496 466.24 609.011 466.423 608.617L466.451 608.561L467.92 608.554L467.906 608.617C467.653 609.623 466.598 610.748 464.644 610.748ZM464.573 604.068C463.533 604.068 462.745 604.778 462.612 606.093H466.493C466.373 604.729 465.607 604.068 464.573 604.068ZM469.819 610.6V602.964H471.345V604.117H471.457C471.731 603.308 472.441 602.83 473.461 602.83C473.707 602.83 473.974 602.865 474.129 602.901V604.307C473.855 604.251 473.595 604.215 473.306 604.215C472.139 604.215 471.345 604.933 471.345 606.037V610.6H469.819ZM478.917 610.6L482.58 600.454H484.282L487.945 610.6H486.286L485.372 607.858H481.491L480.57 610.6H478.917ZM483.368 602.233L481.912 606.592H484.95L483.487 602.233H483.368ZM491.897 610.726C489.977 610.726 488.733 609.187 488.733 606.789V606.775C488.733 604.356 489.956 602.83 491.897 602.83C492.945 602.83 493.838 603.351 494.245 604.173H494.365V599.969H495.884V610.6H494.365V609.398H494.245C493.802 610.234 492.966 610.726 491.897 610.726ZM492.333 609.426C493.605 609.426 494.386 608.42 494.386 606.789V606.775C494.386 605.144 493.598 604.138 492.333 604.138C491.053 604.138 490.287 605.137 490.287 606.775V606.789C490.287 608.427 491.053 609.426 492.333 609.426ZM500.939 610.726C499.02 610.726 497.775 609.187 497.775 606.789V606.775C497.775 604.356 498.998 602.83 500.939 602.83C501.987 602.83 502.88 603.351 503.288 604.173H503.407V599.969H504.926V610.6H503.407V609.398H503.288C502.845 610.234 502.008 610.726 500.939 610.726ZM501.375 609.426C502.648 609.426 503.428 608.42 503.428 606.789V606.775C503.428 605.144 502.641 604.138 501.375 604.138C500.095 604.138 499.329 605.137 499.329 606.775V606.789C499.329 608.427 500.095 609.426 501.375 609.426ZM507.197 610.6V602.964H508.723V604.117H508.835C509.109 603.308 509.82 602.83 510.839 602.83C511.085 602.83 511.352 602.865 511.507 602.901V604.307C511.233 604.251 510.973 604.215 510.684 604.215C509.517 604.215 508.723 604.933 508.723 606.037V610.6H507.197ZM515.972 610.748C513.736 610.748 512.386 609.222 512.386 606.803V606.796C512.386 604.412 513.764 602.816 515.895 602.816C518.025 602.816 519.333 604.356 519.333 606.648V607.183H513.919C513.947 608.645 514.748 609.496 516.007 609.496C516.984 609.496 517.568 609.011 517.751 608.617L517.779 608.561L519.248 608.554L519.234 608.617C518.981 609.623 517.927 610.748 515.972 610.748ZM515.902 604.068C514.861 604.068 514.073 604.778 513.94 606.093H517.821C517.702 604.729 516.935 604.068 515.902 604.068ZM523.924 610.748C522.082 610.748 520.915 609.883 520.767 608.603V608.596H522.293L522.3 608.603C522.49 609.18 523.045 609.566 523.952 609.566C524.895 609.566 525.548 609.137 525.548 608.512V608.498C525.548 608.019 525.19 607.696 524.304 607.492L523.088 607.211C521.646 606.88 520.978 606.226 520.978 605.108V605.101C520.978 603.773 522.216 602.816 523.945 602.816C525.689 602.816 526.807 603.688 526.941 604.933V604.94H525.485V604.926C525.338 604.391 524.796 603.99 523.938 603.99C523.102 603.99 522.497 604.405 522.497 605.017V605.031C522.497 605.509 522.848 605.805 523.706 606.008L524.916 606.283C526.385 606.627 527.088 607.253 527.088 608.357V608.371C527.088 609.784 525.738 610.748 523.924 610.748ZM531.546 610.748C529.704 610.748 528.537 609.883 528.389 608.603V608.596H529.915L529.922 608.603C530.112 609.18 530.667 609.566 531.574 609.566C532.516 609.566 533.17 609.137 533.17 608.512V608.498C533.17 608.019 532.812 607.696 531.926 607.492L530.709 607.211C529.268 606.88 528.6 606.226 528.6 605.108V605.101C528.6 603.773 529.838 602.816 531.567 602.816C533.311 602.816 534.429 603.688 534.563 604.933V604.94H533.107V604.926C532.959 604.391 532.418 603.99 531.56 603.99C530.723 603.99 530.119 604.405 530.119 605.017V605.031C530.119 605.509 530.47 605.805 531.328 606.008L532.538 606.283C534.007 606.627 534.71 607.253 534.71 608.357V608.371C534.71 609.784 533.36 610.748 531.546 610.748Z" fill="black" fill-opacity="0.5"/>
<path d="M370.853 632V620.163H375.611C377.834 620.163 379.171 621.295 379.171 623.108V623.124C379.171 624.354 378.26 625.462 377.095 625.659V625.798C378.695 625.97 379.761 627.102 379.761 628.645V628.661C379.761 630.736 378.244 632 375.717 632H370.853ZM375.184 621.664H372.69V625.199H374.872C376.496 625.199 377.341 624.592 377.341 623.444V623.427C377.341 622.312 376.546 621.664 375.184 621.664ZM375.241 626.602H372.69V630.499H375.348C377.005 630.499 377.883 629.818 377.883 628.546V628.53C377.883 627.258 376.972 626.602 375.241 626.602ZM386.291 632.287C383.912 632.287 381.681 630.613 381.681 626.258V626.241C381.681 622.238 383.428 619.876 386.357 619.876C388.448 619.876 390.007 621.106 390.401 622.894L390.417 622.993H388.596L388.563 622.911C388.235 622.008 387.464 621.434 386.348 621.434C384.355 621.434 383.527 623.378 383.436 625.741C383.428 625.831 383.428 625.921 383.428 626.011H383.584C384.019 625.06 385.085 624.215 386.701 624.215C388.957 624.215 390.573 625.888 390.573 628.152V628.169C390.573 630.548 388.777 632.287 386.291 632.287ZM383.789 628.169C383.789 629.613 384.88 630.745 386.275 630.745C387.661 630.745 388.76 629.637 388.76 628.218V628.202C388.76 626.75 387.727 625.7 386.291 625.7C384.872 625.7 383.789 626.733 383.789 628.161V628.169ZM392.911 632V630.753L396.84 626.627C398.407 624.994 398.858 624.387 398.858 623.427V623.403C398.858 622.246 398.062 621.393 396.766 621.393C395.437 621.393 394.552 622.263 394.552 623.559L394.543 623.583H392.821L392.804 623.567C392.812 621.401 394.486 619.876 396.865 619.876C399.071 619.876 400.696 621.278 400.696 623.231V623.255C400.696 624.601 400.072 625.634 397.923 627.767L395.413 630.269V630.433H400.884V632H392.911ZM409.375 634.969V630.654H409.235C408.768 631.598 407.759 632.147 406.487 632.147C404.239 632.147 402.796 630.351 402.796 627.554V627.537C402.796 624.715 404.223 622.935 406.504 622.935C407.701 622.935 408.735 623.559 409.268 624.568H409.375V623.091H411.146V634.969H409.375ZM407.004 630.63C408.472 630.63 409.407 629.44 409.407 627.554V627.537C409.407 625.642 408.472 624.461 406.996 624.461C405.511 624.461 404.609 625.626 404.609 627.537V627.554C404.609 629.465 405.511 630.63 407.004 630.63ZM419.842 634.969V630.654H419.702C419.235 631.598 418.226 632.147 416.954 632.147C414.707 632.147 413.263 630.351 413.263 627.554V627.537C413.263 624.715 414.69 622.935 416.971 622.935C418.168 622.935 419.202 623.559 419.735 624.568H419.842V623.091H421.614V634.969H419.842ZM417.471 630.63C418.939 630.63 419.875 629.44 419.875 627.554V627.537C419.875 625.642 418.939 624.461 417.463 624.461C415.978 624.461 415.076 625.626 415.076 627.537V627.554C415.076 629.465 415.978 630.63 417.471 630.63ZM428.332 632.221C425.805 632.221 424.157 630.835 424.001 628.874L423.993 628.776H425.748L425.756 628.858C425.871 629.933 426.864 630.687 428.332 630.687C429.776 630.687 430.752 629.875 430.752 628.71V628.694C430.752 627.357 429.784 626.61 428.209 626.61H426.765V625.183H428.152C429.505 625.183 430.424 624.387 430.424 623.288V623.272C430.424 622.123 429.653 621.451 428.316 621.451C427.003 621.451 426.084 622.148 425.97 623.263L425.961 623.345H424.239L424.247 623.255C424.427 621.262 426.002 619.941 428.316 619.941C430.67 619.941 432.212 621.204 432.212 623.034V623.05C432.212 624.519 431.162 625.503 429.718 625.806V625.847C431.457 626.003 432.622 627.053 432.622 628.71V628.727C432.622 630.761 430.842 632.221 428.332 632.221ZM435.723 632.123C435.042 632.123 434.517 631.598 434.517 630.933C434.517 630.261 435.042 629.736 435.723 629.736C436.404 629.736 436.921 630.261 436.921 630.933C436.921 631.598 436.404 632.123 435.723 632.123ZM441.022 632.123C440.341 632.123 439.816 631.598 439.816 630.933C439.816 630.261 440.341 629.736 441.022 629.736C441.703 629.736 442.22 630.261 442.22 630.933C442.22 631.598 441.703 632.123 441.022 632.123ZM446.321 632.123C445.641 632.123 445.116 631.598 445.116 630.933C445.116 630.261 445.641 629.736 446.321 629.736C447.002 629.736 447.519 630.261 447.519 630.933C447.519 631.598 447.002 632.123 446.321 632.123ZM450.333 632V619.597H452.113V626.848H452.244L455.78 623.091H457.863L454.147 626.848L458.109 632H455.944L452.876 627.997L452.113 628.76V632H450.333ZM459.939 632V620.163H467.33V621.746H461.776V625.495H466.862V627.045H461.776V632H459.939ZM468.199 632L472.473 620.163H474.458L478.732 632H476.796L475.73 628.801H471.202L470.127 632H468.199ZM473.392 622.238L471.694 627.324H475.237L473.531 622.238H473.392ZM482.292 632L479.101 620.163H481.012L483.186 629.367H483.301L485.77 620.163H487.477L489.962 629.367H490.077L492.243 620.163H494.154L490.955 632H489.224L486.681 623.149H486.566L484.031 632H482.292ZM500.282 632.287C497.903 632.287 495.671 630.613 495.671 626.258V626.241C495.671 622.238 497.419 619.876 500.347 619.876C502.439 619.876 503.998 621.106 504.391 622.894L504.408 622.993H502.587L502.554 622.911C502.226 622.008 501.455 621.434 500.339 621.434C498.346 621.434 497.517 623.378 497.427 625.741C497.419 625.831 497.419 625.921 497.419 626.011H497.575C498.009 625.06 499.076 624.215 500.692 624.215C502.948 624.215 504.564 625.888 504.564 628.152V628.169C504.564 630.548 502.767 632.287 500.282 632.287ZM497.78 628.169C497.78 629.613 498.871 630.745 500.265 630.745C501.652 630.745 502.751 629.637 502.751 628.218V628.202C502.751 626.75 501.717 625.7 500.282 625.7C498.862 625.7 497.78 626.733 497.78 628.161V628.169ZM510.642 632.172C508.034 632.172 506.459 630.392 506.459 627.57V627.562C506.459 624.781 508.066 622.919 510.552 622.919C513.037 622.919 514.563 624.715 514.563 627.39V628.013H508.247C508.28 629.719 509.215 630.712 510.683 630.712C511.823 630.712 512.504 630.146 512.718 629.686L512.75 629.621L514.465 629.613L514.448 629.686C514.153 630.86 512.923 632.172 510.642 632.172ZM510.56 624.379C509.346 624.379 508.427 625.208 508.271 626.742H512.8C512.66 625.15 511.766 624.379 510.56 624.379Z" fill="black"/>
<path fill-rule="evenodd" clip-rule="evenodd" d="M523.8 619.7H523.2V620.3V621.7H524.4V620.9H531.6V628.1H530.8V629.3H532.2H532.8V628.7V620.3V619.7H532.2H523.8ZM521.4 623.9H528.6V631.1H521.4V623.9ZM520.2 622.7H521.4H528.6H529.8V623.9V631.1V632.3H528.6H521.4H520.2V631.1V623.9V622.7Z" fill="#594AF1"/>
<path d="M372.246 662V653.211H369.054V651.854H377.006V653.211H373.821V662H372.246ZM380.62 662.148C378.377 662.148 377.006 660.65 377.006 658.189V658.175C377.006 655.721 378.384 654.216 380.62 654.216C382.849 654.216 384.227 655.714 384.227 658.175V658.189C384.227 660.65 382.856 662.148 380.62 662.148ZM380.62 660.875C381.928 660.875 382.673 659.877 382.673 658.189V658.175C382.673 656.48 381.928 655.489 380.62 655.489C379.305 655.489 378.567 656.48 378.567 658.175V658.189C378.567 659.884 379.305 660.875 380.62 660.875ZM388.931 662.049C387.251 662.049 386.562 661.459 386.562 659.989V655.566H385.366V654.364H386.562V652.437H388.116V654.364H389.754V655.566H388.116V659.623C388.116 660.446 388.425 660.784 389.177 660.784C389.409 660.784 389.543 660.777 389.754 660.755V661.972C389.508 662.014 389.227 662.049 388.931 662.049ZM393.628 662.127C392.173 662.127 391.097 661.241 391.097 659.855V659.841C391.097 658.477 392.123 657.683 393.945 657.57L396.012 657.451V656.776C396.012 655.939 395.484 655.475 394.451 655.475C393.607 655.475 393.052 655.784 392.869 656.326L392.862 656.354H391.392L391.399 656.305C391.582 655.053 392.784 654.216 394.521 654.216C396.441 654.216 397.523 655.173 397.523 656.776V662H396.012V660.917H395.892C395.442 661.691 394.641 662.127 393.628 662.127ZM392.616 659.792C392.616 660.495 393.213 660.91 394.036 660.91C395.175 660.91 396.012 660.165 396.012 659.18V658.527L394.148 658.646C393.094 658.709 392.616 659.089 392.616 659.778V659.792ZM399.745 662V651.369H401.271V662H399.745ZM411.087 662.246C408.795 662.246 407.325 661.086 407.184 659.377L407.177 659.286H408.724L408.731 659.363C408.816 660.284 409.793 660.875 411.15 660.875C412.444 660.875 413.365 660.228 413.365 659.286V659.279C413.365 658.498 412.816 657.992 411.473 657.704L410.362 657.465C408.302 657.029 407.416 656.073 407.416 654.575V654.568C407.423 652.817 408.942 651.608 411.094 651.608C413.245 651.608 414.652 652.824 414.764 654.399L414.771 654.498H413.245L413.231 654.406C413.098 653.577 412.303 652.972 411.073 652.979C409.884 652.979 409.005 653.534 409.005 654.491V654.498C409.005 655.25 409.54 655.742 410.855 656.023L411.959 656.27C414.089 656.727 414.961 657.584 414.961 659.089V659.096C414.961 661.037 413.449 662.246 411.087 662.246ZM419.742 662.049C418.062 662.049 417.373 661.459 417.373 659.989V655.566H416.177V654.364H417.373V652.437H418.927V654.364H420.565V655.566H418.927V659.623C418.927 660.446 419.236 660.784 419.988 660.784C420.22 660.784 420.354 660.777 420.565 660.755V661.972C420.319 662.014 420.037 662.049 419.742 662.049ZM424.439 662.127C422.984 662.127 421.908 661.241 421.908 659.855V659.841C421.908 658.477 422.934 657.683 424.755 657.57L426.823 657.451V656.776C426.823 655.939 426.295 655.475 425.262 655.475C424.418 655.475 423.862 655.784 423.68 656.326L423.673 656.354H422.203L422.21 656.305C422.393 655.053 423.595 654.216 425.332 654.216C427.252 654.216 428.334 655.173 428.334 656.776V662H426.823V660.917H426.703C426.253 661.691 425.452 662.127 424.439 662.127ZM423.427 659.792C423.427 660.495 424.024 660.91 424.847 660.91C425.986 660.91 426.823 660.165 426.823 659.18V658.527L424.959 658.646C423.905 658.709 423.427 659.089 423.427 659.778V659.792ZM430.556 662V651.369H432.082V657.584H432.195L435.225 654.364H437.011L433.826 657.584L437.222 662H435.366L432.736 658.569L432.082 659.223V662H430.556ZM441.427 662.148C439.191 662.148 437.841 660.622 437.841 658.203V658.196C437.841 655.812 439.219 654.216 441.349 654.216C443.48 654.216 444.787 655.756 444.787 658.048V658.583H439.373C439.402 660.045 440.203 660.896 441.462 660.896C442.439 660.896 443.023 660.411 443.205 660.017L443.234 659.961L444.703 659.954L444.689 660.017C444.436 661.023 443.381 662.148 441.427 662.148ZM441.356 655.468C440.316 655.468 439.528 656.178 439.395 657.493H443.276C443.156 656.129 442.39 655.468 441.356 655.468Z" fill="black" fill-opacity="0.5"/>
<path d="M374.17 671.276C376.541 671.276 378.78 672.949 378.78 677.297V677.313C378.78 681.325 377.033 683.687 374.105 683.687C372.005 683.687 370.446 682.457 370.061 680.668L370.036 680.57H371.865L371.89 680.652C372.226 681.554 372.997 682.128 374.105 682.128C376.098 682.128 376.935 680.184 377.025 677.822C377.025 677.732 377.033 677.641 377.033 677.551H376.869C376.443 678.503 375.368 679.348 373.76 679.348C371.504 679.348 369.88 677.674 369.88 675.41V675.394C369.88 673.015 371.685 671.276 374.17 671.276ZM374.162 677.863C375.581 677.863 376.672 676.829 376.672 675.402V675.394C376.672 673.95 375.581 672.818 374.187 672.818C372.8 672.818 371.693 673.925 371.693 675.344V675.361C371.693 676.813 372.735 677.863 374.162 677.863ZM380.06 686.476L380.782 681.661H382.677L381.315 686.476H380.06ZM389.346 683.621C386.82 683.621 385.171 682.235 385.015 680.275L385.007 680.176H386.762L386.77 680.258C386.885 681.333 387.878 682.087 389.346 682.087C390.79 682.087 391.766 681.275 391.766 680.11V680.094C391.766 678.757 390.798 678.01 389.223 678.01H387.779V676.583H389.166C390.519 676.583 391.438 675.787 391.438 674.688V674.672C391.438 673.523 390.667 672.851 389.33 672.851C388.017 672.851 387.098 673.548 386.984 674.664L386.975 674.746H385.253L385.261 674.655C385.441 672.662 387.016 671.341 389.33 671.341C391.684 671.341 393.226 672.605 393.226 674.434V674.45C393.226 675.919 392.176 676.903 390.732 677.207V677.248C392.471 677.403 393.636 678.453 393.636 680.11V680.127C393.636 682.161 391.856 683.621 389.346 683.621ZM400.01 671.276C402.381 671.276 404.62 672.949 404.62 677.297V677.313C404.62 681.325 402.873 683.687 399.945 683.687C397.845 683.687 396.286 682.457 395.9 680.668L395.876 680.57H397.705L397.73 680.652C398.066 681.554 398.837 682.128 399.945 682.128C401.938 682.128 402.775 680.184 402.865 677.822C402.865 677.732 402.873 677.641 402.873 677.551H402.709C402.282 678.503 401.208 679.348 399.6 679.348C397.344 679.348 395.72 677.674 395.72 675.41V675.394C395.72 673.015 397.525 671.276 400.01 671.276ZM400.002 677.863C401.421 677.863 402.512 676.829 402.512 675.402V675.394C402.512 673.95 401.421 672.818 400.027 672.818C398.64 672.818 397.533 673.925 397.533 675.344V675.361C397.533 676.813 398.575 677.863 400.002 677.863ZM411.068 683.621C408.541 683.621 406.893 682.235 406.737 680.275L406.729 680.176H408.484L408.492 680.258C408.607 681.333 409.6 682.087 411.068 682.087C412.512 682.087 413.488 681.275 413.488 680.11V680.094C413.488 678.757 412.52 678.01 410.945 678.01H409.501V676.583H410.887C412.241 676.583 413.16 675.787 413.16 674.688V674.672C413.16 673.523 412.389 672.851 411.052 672.851C409.739 672.851 408.82 673.548 408.705 674.664L408.697 674.746H406.975L406.983 674.655C407.163 672.662 408.738 671.341 411.052 671.341C413.406 671.341 414.948 672.605 414.948 674.434V674.45C414.948 675.919 413.898 676.903 412.454 677.207V677.248C414.193 677.403 415.358 678.453 415.358 680.11V680.127C415.358 682.161 413.578 683.621 411.068 683.621ZM416.777 686.476L417.499 681.661H419.394L418.032 686.476H416.777ZM422.314 683.4L427.532 673.244V673.113H421.33V671.563H429.394V673.154L424.242 683.4H422.314ZM435.53 683.687C433.2 683.687 431.592 682.235 431.428 680.316L431.42 680.209H433.143L433.151 680.275C433.307 681.316 434.25 682.145 435.546 682.145C437.006 682.145 438.023 681.103 438.023 679.618V679.602C438.023 678.142 436.99 677.108 435.562 677.108C434.841 677.108 434.225 677.321 433.758 677.748C433.545 677.937 433.356 678.166 433.216 678.437H431.633L432.224 671.563H439.106V673.121H433.668L433.307 676.895H433.446C433.946 676.099 434.873 675.64 435.964 675.64C438.187 675.64 439.779 677.297 439.779 679.569V679.585C439.779 682.014 438.023 683.687 435.53 683.687ZM446.464 683.687C444.086 683.687 441.854 682.014 441.854 677.658V677.641C441.854 673.638 443.602 671.276 446.53 671.276C448.622 671.276 450.18 672.506 450.574 674.294L450.591 674.393H448.77L448.737 674.311C448.409 673.408 447.638 672.834 446.522 672.834C444.529 672.834 443.7 674.778 443.61 677.141C443.602 677.231 443.602 677.321 443.602 677.412H443.757C444.192 676.46 445.259 675.615 446.875 675.615C449.13 675.615 450.746 677.289 450.746 679.553V679.569C450.746 681.948 448.95 683.687 446.464 683.687ZM443.963 679.569C443.963 681.013 445.054 682.145 446.448 682.145C447.834 682.145 448.934 681.037 448.934 679.618V679.602C448.934 678.15 447.9 677.1 446.464 677.1C445.045 677.1 443.963 678.133 443.963 679.561V679.569ZM457.883 683.4V671.563H460L463.773 681.005H463.904L467.678 671.563H469.794V683.4H468.121V674.713H467.998L464.52 683.4H463.158L459.688 674.713H459.557V683.4H457.883ZM472.764 683.4V671.563H474.601V683.4H472.764ZM477.571 683.4V671.563H479.228L485.314 680.176H485.438V671.563H487.226V683.4H485.569L479.49 674.803H479.359V683.4H477.571ZM489.293 683.4L493.567 671.563H495.552L499.826 683.4H497.89L496.823 680.201H492.295L491.221 683.4H489.293ZM494.486 673.638L492.788 678.724H496.331L494.625 673.638H494.486Z" fill="black"/>
<path d="M372.246 713.4V704.611H369.054V703.254H377.006V704.611H373.821V713.4H372.246ZM380.62 713.548C378.377 713.548 377.006 712.05 377.006 709.589V709.575C377.006 707.121 378.384 705.616 380.62 705.616C382.849 705.616 384.227 707.114 384.227 709.575V709.589C384.227 712.05 382.856 713.548 380.62 713.548ZM380.62 712.275C381.928 712.275 382.673 711.276 382.673 709.589V709.575C382.673 707.88 381.928 706.889 380.62 706.889C379.305 706.889 378.567 707.88 378.567 709.575V709.589C378.567 711.283 379.305 712.275 380.62 712.275ZM388.931 713.449C387.251 713.449 386.562 712.858 386.562 711.389V706.966H385.366V705.764H386.562V703.837H388.116V705.764H389.754V706.966H388.116V711.023C388.116 711.846 388.425 712.183 389.177 712.183C389.409 712.183 389.543 712.176 389.754 712.155V713.372C389.508 713.414 389.227 713.449 388.931 713.449ZM393.628 713.526C392.173 713.526 391.097 712.641 391.097 711.255V711.241C391.097 709.877 392.123 709.083 393.945 708.97L396.012 708.851V708.176C396.012 707.339 395.484 706.875 394.451 706.875C393.607 706.875 393.052 707.184 392.869 707.726L392.862 707.754H391.392L391.399 707.705C391.582 706.453 392.784 705.616 394.521 705.616C396.441 705.616 397.523 706.573 397.523 708.176V713.4H396.012V712.317H395.892C395.442 713.091 394.641 713.526 393.628 713.526ZM392.616 711.192C392.616 711.895 393.213 712.31 394.036 712.31C395.175 712.31 396.012 711.565 396.012 710.58V709.926L394.148 710.046C393.094 710.109 392.616 710.489 392.616 711.178V711.192ZM399.745 713.4V702.769H401.271V713.4H399.745ZM407.655 713.4V703.254H411.319C414.328 703.254 416.093 705.11 416.093 708.295V708.309C416.093 711.53 414.342 713.4 411.319 713.4H407.655ZM409.23 712.043H411.143C413.266 712.043 414.49 710.686 414.49 708.33V708.316C414.49 705.982 413.245 704.611 411.143 704.611H409.23V712.043ZM421.261 713.548C419.025 713.548 417.675 712.022 417.675 709.603V709.596C417.675 707.212 419.053 705.616 421.184 705.616C423.314 705.616 424.622 707.156 424.622 709.448V709.983H419.208C419.236 711.445 420.037 712.296 421.296 712.296C422.273 712.296 422.857 711.811 423.04 711.417L423.068 711.361L424.537 711.354L424.523 711.417C424.27 712.423 423.216 713.548 421.261 713.548ZM421.191 706.868C420.15 706.868 419.362 707.578 419.229 708.893H423.11C422.991 707.529 422.224 706.868 421.191 706.868ZM426.506 713.4V702.769H428.032V713.4H426.506ZM433.509 713.548C431.273 713.548 429.923 712.022 429.923 709.603V709.596C429.923 707.212 431.302 705.616 433.432 705.616C435.562 705.616 436.87 707.156 436.87 709.448V709.983H431.456C431.484 711.445 432.286 712.296 433.545 712.296C434.522 712.296 435.105 711.811 435.288 711.417L435.316 711.361L436.786 711.354L436.772 711.417C436.519 712.423 435.464 713.548 433.509 713.548ZM433.439 706.868C432.398 706.868 431.611 707.578 431.477 708.893H435.359C435.239 707.529 434.473 706.868 433.439 706.868ZM441.912 716.093C439.971 716.093 438.776 715.242 438.593 713.969L438.607 713.955H440.147L440.154 713.969C440.28 714.497 440.899 714.869 441.933 714.869C443.191 714.869 443.937 714.279 443.937 713.238V711.733H443.824C443.36 712.563 442.516 713.027 441.469 713.027C439.507 713.027 438.298 711.516 438.298 709.364V709.35C438.298 707.17 439.514 705.63 441.497 705.63C442.566 705.63 443.395 706.158 443.838 707.016H443.93V705.764H445.448V713.245C445.448 714.982 444.077 716.093 441.912 716.093ZM441.891 711.769C443.184 711.769 443.965 710.784 443.965 709.357V709.343C443.965 707.923 443.177 706.924 441.891 706.924C440.59 706.924 439.859 707.923 439.859 709.343V709.357C439.859 710.777 440.59 711.769 441.891 711.769ZM449.737 713.526C448.282 713.526 447.206 712.641 447.206 711.255V711.241C447.206 709.877 448.233 709.083 450.054 708.97L452.121 708.851V708.176C452.121 707.339 451.594 706.875 450.56 706.875C449.716 706.875 449.161 707.184 448.978 707.726L448.971 707.754H447.502L447.509 707.705C447.691 706.453 448.894 705.616 450.63 705.616C452.55 705.616 453.633 706.573 453.633 708.176V713.4H452.121V712.317H452.002C451.552 713.091 450.75 713.526 449.737 713.526ZM448.725 711.192C448.725 711.895 449.323 712.31 450.145 712.31C451.284 712.31 452.121 711.565 452.121 710.58V709.926L450.258 710.046C449.203 710.109 448.725 710.489 448.725 711.178V711.192ZM458.667 713.449C456.987 713.449 456.298 712.858 456.298 711.389V706.966H455.102V705.764H456.298V703.837H457.852V705.764H459.49V706.966H457.852V711.023C457.852 711.846 458.161 712.183 458.913 712.183C459.145 712.183 459.279 712.176 459.49 712.155V713.372C459.244 713.414 458.963 713.449 458.667 713.449ZM464.419 713.548C462.176 713.548 460.805 712.05 460.805 709.589V709.575C460.805 707.121 462.183 705.616 464.419 705.616C466.648 705.616 468.026 707.114 468.026 709.575V709.589C468.026 712.05 466.655 713.548 464.419 713.548ZM464.419 712.275C465.727 712.275 466.472 711.276 466.472 709.589V709.575C466.472 707.88 465.727 706.889 464.419 706.889C463.104 706.889 462.366 707.88 462.366 709.575V709.589C462.366 711.283 463.104 712.275 464.419 712.275ZM469.847 713.4V705.764H471.373V706.917H471.485C471.759 706.108 472.47 705.63 473.489 705.63C473.735 705.63 474.002 705.666 474.157 705.701V707.107C473.883 707.051 473.623 707.016 473.334 707.016C472.167 707.016 471.373 707.733 471.373 708.837V713.4H469.847ZM478.235 713.548C476.393 713.548 475.226 712.683 475.078 711.403V711.396H476.604L476.611 711.403C476.801 711.98 477.356 712.366 478.263 712.366C479.205 712.366 479.859 711.937 479.859 711.312V711.298C479.859 710.819 479.501 710.496 478.615 710.292L477.398 710.011C475.957 709.68 475.289 709.026 475.289 707.908V707.901C475.289 706.573 476.527 705.616 478.256 705.616C480 705.616 481.118 706.488 481.252 707.733V707.74H479.796V707.726C479.648 707.191 479.107 706.791 478.249 706.791C477.413 706.791 476.808 707.205 476.808 707.817V707.831C476.808 708.309 477.159 708.605 478.017 708.808L479.227 709.083C480.696 709.427 481.399 710.053 481.399 711.157V711.171C481.399 712.584 480.049 713.548 478.235 713.548Z" fill="black" fill-opacity="0.5"/>
<path d="M374.059 735.087C371.729 735.087 370.121 733.635 369.957 731.715L369.949 731.609H371.671L371.68 731.674C371.836 732.716 372.779 733.545 374.075 733.545C375.535 733.545 376.552 732.503 376.552 731.018V731.002C376.552 729.542 375.519 728.508 374.091 728.508C373.37 728.508 372.754 728.721 372.287 729.148C372.073 729.337 371.885 729.566 371.745 729.837H370.162L370.753 722.963H377.635V724.521H372.196L371.836 728.295H371.975C372.475 727.499 373.402 727.04 374.493 727.04C376.716 727.04 378.308 728.697 378.308 730.969V730.985C378.308 733.413 376.552 735.087 374.059 735.087ZM386.052 734.8V732.446H380.277V730.887C381.835 728.213 383.574 725.415 385.207 722.963H387.823V730.887H389.456V732.446H387.823V734.8H386.052ZM382.04 730.92H386.076V724.513H385.97C384.698 726.424 383.254 728.729 382.04 730.805V730.92ZM395.748 722.676C398.118 722.676 400.358 724.349 400.358 728.697V728.713C400.358 732.724 398.611 735.087 395.682 735.087C393.582 735.087 392.023 733.856 391.638 732.068L391.613 731.97H393.443L393.467 732.052C393.804 732.954 394.575 733.528 395.682 733.528C397.675 733.528 398.512 731.584 398.602 729.222C398.602 729.131 398.611 729.041 398.611 728.951H398.446C398.02 729.903 396.945 730.747 395.337 730.747C393.082 730.747 391.457 729.074 391.457 726.81V726.794C391.457 724.415 393.262 722.676 395.748 722.676ZM395.739 729.263C397.159 729.263 398.25 728.229 398.25 726.802V726.794C398.25 725.35 397.159 724.218 395.764 724.218C394.378 724.218 393.27 725.325 393.27 726.744V726.761C393.27 728.213 394.312 729.263 395.739 729.263ZM406.74 722.676C409.111 722.676 411.35 724.349 411.35 728.697V728.713C411.35 732.724 409.603 735.087 406.674 735.087C404.574 735.087 403.016 733.856 402.63 732.068L402.605 731.97H404.435L404.459 732.052C404.796 732.954 405.567 733.528 406.674 733.528C408.668 733.528 409.504 731.584 409.595 729.222C409.595 729.131 409.603 729.041 409.603 728.951H409.439C409.012 729.903 407.937 730.747 406.33 730.747C404.074 730.747 402.45 729.074 402.45 726.81V726.794C402.45 724.415 404.254 722.676 406.74 722.676ZM406.732 729.263C408.151 729.263 409.242 728.229 409.242 726.802V726.794C409.242 725.35 408.151 724.218 406.756 724.218C405.37 724.218 404.262 725.325 404.262 726.744V726.761C404.262 728.213 405.304 729.263 406.732 729.263Z" fill="black"/>
<g clip-path="url(#clip1_5395_10387)">
<circle cx="354" cy="230.3" r="8.1" stroke="black" stroke-width="1.8"/>
<path d="M353.4 226.1V230.9L356.4 233.3" stroke="black" stroke-width="1.8"/>
</g>
<path d="M374.872 236.8V223.272H383.628V225.306H377.291V228.972H383.281V230.894H377.291V234.766H383.628V236.8H374.872ZM386.384 240.203V226.553H388.719V228.156H388.878C389.441 227.041 390.556 226.384 391.991 226.384C394.559 226.384 396.2 228.428 396.2 231.672V231.691C396.2 234.953 394.587 236.969 391.991 236.969C390.584 236.969 389.412 236.275 388.878 235.169H388.719V240.203H386.384ZM391.259 235C392.853 235 393.819 233.744 393.819 231.691V231.672C393.819 229.609 392.853 228.353 391.259 228.353C389.675 228.353 388.691 229.609 388.691 231.663V231.681C388.691 233.734 389.675 235 391.259 235ZM402.978 237.006C399.903 237.006 398.047 235 398.047 231.681V231.663C398.047 228.372 399.931 226.356 402.978 226.356C406.034 226.356 407.909 228.363 407.909 231.663V231.681C407.909 235 406.044 237.006 402.978 237.006ZM402.978 235.113C404.6 235.113 405.519 233.847 405.519 231.691V231.672C405.519 229.516 404.591 228.241 402.978 228.241C401.356 228.241 400.428 229.516 400.428 231.672V231.691C400.428 233.847 401.356 235.113 402.978 235.113ZM414.65 237.006C411.566 237.006 409.747 235.009 409.747 231.663V231.644C409.747 228.334 411.556 226.356 414.641 226.356C417.275 226.356 418.85 227.819 419.112 229.938V229.975H416.909L416.9 229.947C416.684 228.953 415.925 228.241 414.65 228.241C413.056 228.241 412.119 229.497 412.119 231.644V231.663C412.119 233.838 413.066 235.113 414.65 235.113C415.859 235.113 416.6 234.559 416.891 233.481L416.909 233.444L419.112 233.434L419.094 233.509C418.756 235.609 417.247 237.006 414.65 237.006ZM421.428 236.8V222.588H423.762V228.119H423.922C424.409 227.022 425.394 226.356 426.875 226.356C429.162 226.356 430.409 227.734 430.409 230.172V236.8H428.075V230.716C428.075 229.122 427.428 228.316 426.012 228.316C424.625 228.316 423.762 229.291 423.762 230.828V236.8H421.428ZM438.528 236.8V223.272H440.947V236.8H438.528ZM444.041 236.8V226.553H446.375V228.119H446.534C447.022 227.022 448.006 226.356 449.487 226.356C451.775 226.356 453.022 227.734 453.022 230.172V236.8H450.687V230.716C450.687 229.122 450.041 228.316 448.625 228.316C447.237 228.316 446.375 229.291 446.375 230.828V236.8H444.041ZM456.528 236.8V228.363H454.85V226.553H456.528V225.541C456.528 223.497 457.569 222.494 459.847 222.494C460.344 222.494 460.766 222.522 461.141 222.588V224.219C460.962 224.191 460.672 224.172 460.344 224.172C459.247 224.172 458.825 224.697 458.825 225.672V226.553H461.047V228.363H458.862V236.8H456.528ZM467.347 237.006C464.272 237.006 462.416 235 462.416 231.681V231.663C462.416 228.372 464.3 226.356 467.347 226.356C470.403 226.356 472.278 228.363 472.278 231.663V231.681C472.278 235 470.412 237.006 467.347 237.006ZM467.347 235.113C468.969 235.113 469.887 233.847 469.887 231.691V231.672C469.887 229.516 468.959 228.241 467.347 228.241C465.725 228.241 464.797 229.516 464.797 231.672V231.691C464.797 233.847 465.725 235.113 467.347 235.113Z" fill="black"/>
<rect width="450" height="64.8" transform="translate(320.4 142)" fill="white"/>
<g clip-path="url(#clip2_5395_10387)">
<path d="M361.2 165.915L352.715 174.4L361.2 182.885" stroke="black" stroke-width="1.8"/>
</g>
<path d="M397.509 184.92C392.658 184.92 389.592 182.6 389.353 179L389.339 178.775H393.431L393.445 178.916C393.6 180.434 395.245 181.461 397.622 181.461C399.886 181.461 401.447 180.378 401.447 178.817V178.803C401.447 177.467 400.448 176.722 397.931 176.201L395.794 175.766C391.575 174.908 389.761 172.939 389.761 169.859V169.845C389.761 166.076 392.995 163.587 397.495 163.587C402.234 163.587 405.019 166.091 405.286 169.48L405.3 169.662H401.306L401.278 169.494C401.039 168.045 399.633 167.033 397.495 167.033C395.4 167.047 394.008 168.003 394.008 169.522V169.536C394.008 170.858 394.992 171.645 397.383 172.137L399.534 172.573C403.823 173.459 405.694 175.175 405.694 178.339V178.353C405.694 182.375 402.572 184.92 397.509 184.92ZM415.734 184.456C411.966 184.456 410.447 183.233 410.447 180.223V172.011H408.056V168.917H410.447V165.219H414.595V168.917H417.787V172.011H414.595V179.281C414.595 180.673 415.186 181.292 416.578 181.292C417.112 181.292 417.394 181.264 417.787 181.222V184.273C417.281 184.372 416.522 184.456 415.734 184.456ZM425.423 184.639C422.47 184.639 420.375 182.811 420.375 179.998V179.97C420.375 177.186 422.527 175.555 426.38 175.33L430.12 175.105V173.825C430.12 172.489 429.206 171.73 427.519 171.73C426.042 171.73 425.1 172.25 424.777 173.164L424.748 173.22H420.952L420.966 173.094C421.289 170.38 423.848 168.58 427.744 168.58C431.85 168.58 434.17 170.52 434.17 173.825V184.4H430.12V182.347H429.867C429.08 183.781 427.448 184.639 425.423 184.639ZM424.383 179.745C424.383 180.926 425.381 181.644 426.802 181.644C428.7 181.644 430.12 180.392 430.12 178.761V177.622L426.998 177.819C425.241 177.931 424.383 178.592 424.383 179.717V179.745ZM438.333 184.4V162.997H442.439V175.034H442.692L447.867 168.917H452.522L446.573 175.484L452.93 184.4H448.078L443.564 178.016L442.439 179.211V184.4H438.333ZM457.612 166.541C456.347 166.541 455.292 165.528 455.292 164.262C455.292 162.983 456.347 161.97 457.612 161.97C458.878 161.97 459.919 162.983 459.919 164.262C459.919 165.528 458.878 166.541 457.612 166.541ZM455.545 184.4V168.917H459.652V184.4H455.545ZM463.786 184.4V168.917H467.892V171.308H468.145C468.848 169.634 470.381 168.58 472.589 168.58C476.034 168.58 477.891 170.689 477.891 174.387V184.4H473.784V175.316C473.784 173.136 472.884 171.983 470.944 171.983C469.045 171.983 467.892 173.347 467.892 175.442V184.4H463.786ZM488.705 189.842C484.416 189.842 481.927 188.042 481.589 185.412V185.342H485.653L485.667 185.398C485.892 186.298 486.961 186.917 488.789 186.917C490.983 186.917 492.262 185.891 492.262 184.091V181.208H492.009C491.152 182.839 489.52 183.725 487.369 183.725C483.473 183.725 481.069 180.716 481.069 176.314V176.286C481.069 171.73 483.473 168.664 487.439 168.664C489.562 168.664 491.222 169.705 492.052 171.448H492.248V168.917H496.355V183.922C496.355 187.55 493.387 189.842 488.705 189.842ZM488.761 180.575C490.983 180.575 492.305 178.845 492.305 176.3V176.272C492.305 173.726 490.969 171.997 488.761 171.997C486.553 171.997 485.273 173.726 485.273 176.272V176.3C485.273 178.845 486.539 180.575 488.761 180.575Z" fill="black"/>
<path d="M346.5 490.7C346.5 490.534 346.634 490.4 346.8 490.4L360 490.4C360.166 490.4 360.3 490.534 360.3 490.7L360.3 501.371C360.3 501.443 360.274 501.513 360.226 501.568L356.98 505.297C356.923 505.362 356.84 505.4 356.754 505.4L353.4 505.4L346.8 505.4C346.634 505.4 346.5 505.265 346.5 505.1L346.5 490.7Z" stroke="black" stroke-width="1.8"/>
<path d="M349.8 495.5H357" stroke="black" stroke-width="1.8"/>
<path d="M349.8 499.1H357" stroke="black" stroke-width="1.8"/>
<path d="M375.291 504.4V490.872H380.362C384.384 490.872 386.728 493.328 386.728 497.566V497.584C386.728 501.916 384.412 504.4 380.362 504.4H375.291ZM377.709 502.366H380.044C382.734 502.366 384.262 500.659 384.262 497.622V497.603C384.262 494.631 382.697 492.906 380.044 492.906H377.709V502.366ZM393.647 504.606C390.6 504.606 388.753 502.562 388.753 499.3V499.291C388.753 496.066 390.619 493.956 393.534 493.956C396.45 493.956 398.25 496 398.25 499.094V499.862H391.087C391.116 501.7 392.109 502.769 393.694 502.769C394.959 502.769 395.681 502.131 395.906 501.662L395.934 501.597H398.156L398.128 501.681C397.8 503.003 396.431 504.606 393.647 504.606ZM393.562 495.784C392.259 495.784 391.284 496.666 391.106 498.297H395.972C395.812 496.619 394.866 495.784 393.562 495.784ZM400.678 504.4V490.187H403.012V504.4H400.678ZM410.353 504.606C407.306 504.606 405.459 502.562 405.459 499.3V499.291C405.459 496.066 407.325 493.956 410.241 493.956C413.156 493.956 414.956 496 414.956 499.094V499.862H407.794C407.822 501.7 408.816 502.769 410.4 502.769C411.666 502.769 412.387 502.131 412.612 501.662L412.641 501.597H414.862L414.834 501.681C414.506 503.003 413.137 504.606 410.353 504.606ZM410.269 495.784C408.966 495.784 407.991 496.666 407.812 498.297H412.678C412.519 496.619 411.572 495.784 410.269 495.784ZM421.697 508C418.997 508 417.375 506.847 417.141 505.122L417.15 505.094H419.484L419.494 505.122C419.653 505.778 420.431 506.237 421.734 506.237C423.328 506.237 424.256 505.497 424.256 504.184V502.225H424.097C423.506 503.322 422.391 503.922 420.975 503.922C418.378 503.922 416.766 501.916 416.766 499.009V498.991C416.766 496.028 418.378 493.984 421.022 493.984C422.437 493.984 423.544 494.678 424.125 495.841H424.247V494.153H426.581V504.147C426.581 506.509 424.687 508 421.697 508ZM421.697 502.066C423.319 502.066 424.294 500.819 424.294 499.009V498.991C424.294 497.181 423.309 495.925 421.697 495.925C420.075 495.925 419.156 497.181 419.156 498.991V499.009C419.156 500.819 420.075 502.066 421.697 502.066ZM432.234 504.569C430.284 504.569 428.869 503.369 428.869 501.503V501.484C428.869 499.656 430.266 498.587 432.759 498.437L435.394 498.278V497.397C435.394 496.375 434.728 495.812 433.472 495.812C432.403 495.812 431.709 496.197 431.475 496.872L431.466 496.909H429.262L429.272 496.825C429.497 495.1 431.147 493.956 433.584 493.956C436.219 493.956 437.7 495.231 437.7 497.397V504.4H435.394V502.994H435.234C434.672 503.987 433.584 504.569 432.234 504.569ZM431.175 501.391C431.175 502.262 431.916 502.778 432.947 502.778C434.353 502.778 435.394 501.859 435.394 500.641V499.816L433.087 499.966C431.784 500.05 431.175 500.528 431.175 501.372V501.391ZM444.534 504.447C442.181 504.447 441.216 503.659 441.216 501.681V495.962H439.622V494.153H441.216V491.641H443.587V494.153H445.753V495.962H443.587V501.128C443.587 502.15 443.991 502.581 444.966 502.581C445.294 502.581 445.472 502.572 445.753 502.544V504.344C445.416 504.409 444.984 504.447 444.534 504.447ZM449.278 492.437C448.509 492.437 447.881 491.828 447.881 491.059C447.881 490.3 448.509 489.681 449.278 489.681C450.037 489.681 450.666 490.3 450.666 491.059C450.666 491.828 450.037 492.437 449.278 492.437ZM448.106 504.4V494.153H450.441V504.4H448.106ZM457.734 504.606C454.659 504.606 452.803 502.6 452.803 499.281V499.262C452.803 495.972 454.687 493.956 457.734 493.956C460.791 493.956 462.666 495.962 462.666 499.262V499.281C462.666 502.6 460.8 504.606 457.734 504.606ZM457.734 502.712C459.356 502.712 460.275 501.447 460.275 499.291V499.272C460.275 497.116 459.347 495.841 457.734 495.841C456.112 495.841 455.184 497.116 455.184 499.272V499.291C455.184 501.447 456.112 502.712 457.734 502.712ZM465.009 504.4V494.153H467.344V495.719H467.503C467.991 494.622 468.975 493.956 470.456 493.956C472.744 493.956 473.991 495.334 473.991 497.772V504.4H471.656V498.316C471.656 496.722 471.009 495.916 469.594 495.916C468.206 495.916 467.344 496.891 467.344 498.428V504.4H465.009ZM482.109 504.4V490.872H484.528V504.4H482.109ZM487.622 504.4V494.153H489.956V495.719H490.116C490.603 494.622 491.587 493.956 493.069 493.956C495.356 493.956 496.603 495.334 496.603 497.772V504.4H494.269V498.316C494.269 496.722 493.622 495.916 492.206 495.916C490.819 495.916 489.956 496.891 489.956 498.428V504.4H487.622ZM500.109 504.4V495.962H498.431V494.153H500.109V493.141C500.109 491.097 501.15 490.094 503.428 490.094C503.925 490.094 504.347 490.122 504.722 490.187V491.819C504.544 491.791 504.253 491.772 503.925 491.772C502.828 491.772 502.406 492.297 502.406 493.272V494.153H504.628V495.962H502.444V504.4H500.109ZM510.928 504.606C507.853 504.606 505.997 502.6 505.997 499.281V499.262C505.997 495.972 507.881 493.956 510.928 493.956C513.984 493.956 515.859 495.962 515.859 499.262V499.281C515.859 502.6 513.994 504.606 510.928 504.606ZM510.928 502.712C512.55 502.712 513.469 501.447 513.469 499.291V499.272C513.469 497.116 512.541 495.841 510.928 495.841C509.306 495.841 508.378 497.116 508.378 499.272V499.291C508.378 501.447 509.306 502.712 510.928 502.712Z" fill="black"/>
<path d="M653.104 503.646C650.812 503.646 649.342 502.486 649.202 500.777L649.195 500.686H650.741L650.748 500.763C650.833 501.684 651.81 502.275 653.167 502.275C654.461 502.275 655.382 501.628 655.382 500.686V500.679C655.382 499.898 654.834 499.392 653.491 499.104L652.38 498.865C650.32 498.429 649.434 497.473 649.434 495.975V495.968C649.441 494.217 650.959 493.008 653.111 493.008C655.262 493.008 656.669 494.224 656.781 495.799L656.788 495.898H655.262L655.248 495.806C655.115 494.976 654.32 494.372 653.09 494.379C651.902 494.379 651.023 494.934 651.023 495.891V495.898C651.023 496.65 651.557 497.142 652.872 497.423L653.976 497.669C656.106 498.126 656.978 498.984 656.978 500.489V500.496C656.978 502.437 655.466 503.646 653.104 503.646ZM661.759 503.449C660.079 503.449 659.39 502.858 659.39 501.389V496.966H658.195V495.764H659.39V493.837H660.944V495.764H662.582V496.966H660.944V501.023C660.944 501.846 661.253 502.183 662.005 502.183C662.237 502.183 662.371 502.176 662.582 502.155V503.372C662.336 503.414 662.055 503.449 661.759 503.449ZM666.456 503.526C665.001 503.526 663.925 502.641 663.925 501.255V501.241C663.925 499.877 664.952 499.083 666.773 498.97L668.84 498.851V498.176C668.84 497.339 668.312 496.875 667.279 496.875C666.435 496.875 665.88 497.184 665.697 497.726L665.69 497.754H664.22L664.227 497.705C664.41 496.453 665.612 495.616 667.349 495.616C669.269 495.616 670.352 496.573 670.352 498.176V503.4H668.84V502.317H668.72C668.27 503.091 667.469 503.526 666.456 503.526ZM665.444 501.192C665.444 501.895 666.041 502.31 666.864 502.31C668.003 502.31 668.84 501.565 668.84 500.58V499.926L666.977 500.046C665.922 500.109 665.444 500.489 665.444 501.178V501.192ZM672.573 503.4V492.769H674.099V498.984H674.212L677.242 495.764H679.028L675.843 498.984L679.239 503.4H677.383L674.753 499.969L674.099 500.623V503.4H672.573ZM681.426 494.4C680.898 494.4 680.47 493.971 680.47 493.451C680.47 492.923 680.898 492.494 681.426 492.494C681.946 492.494 682.382 492.923 682.382 493.451C682.382 493.971 681.946 494.4 681.426 494.4ZM680.659 503.4V495.764H682.178V503.4H680.659ZM684.4 503.4V495.764H685.926V496.924H686.038C686.411 496.108 687.142 495.616 688.253 495.616C689.962 495.616 690.904 496.636 690.904 498.457V503.4H689.385V498.816C689.385 497.55 688.858 496.924 687.74 496.924C686.622 496.924 685.926 497.691 685.926 498.921V503.4H684.4ZM696.262 506.093C694.321 506.093 693.126 505.242 692.943 503.969L692.957 503.955H694.497L694.504 503.969C694.63 504.497 695.249 504.869 696.283 504.869C697.541 504.869 698.287 504.279 698.287 503.238V501.733H698.174C697.71 502.563 696.866 503.027 695.819 503.027C693.857 503.027 692.648 501.516 692.648 499.364V499.35C692.648 497.17 693.864 495.63 695.847 495.63C696.916 495.63 697.745 496.158 698.188 497.016H698.28V495.764H699.798V503.245C699.798 504.982 698.427 506.093 696.262 506.093ZM696.241 501.769C697.534 501.769 698.315 500.784 698.315 499.357V499.343C698.315 497.923 697.527 496.924 696.241 496.924C694.94 496.924 694.209 497.923 694.209 499.343V499.357C694.209 500.777 694.94 501.769 696.241 501.769ZM710.38 503.646C707.505 503.646 705.691 501.593 705.691 498.33V498.316C705.691 495.096 707.526 493.008 710.366 493.008C712.673 493.008 714.311 494.316 714.677 496.277L714.691 496.348H713.116L713.095 496.277C712.729 495.075 711.759 494.4 710.366 494.4C708.489 494.4 707.301 495.919 707.301 498.309V498.323C707.301 500.749 708.496 502.254 710.402 502.254C712.061 502.254 713.193 501.206 713.207 499.645V499.42H710.598V498.148H714.761V499.406C714.761 501.98 713.038 503.646 710.38 503.646ZM719.303 503.548C717.58 503.548 716.687 502.514 716.687 500.707V495.764H718.213V500.348C718.213 501.614 718.677 502.24 719.795 502.24C721.019 502.24 721.673 501.473 721.673 500.243V495.764H723.191V503.4H721.673V502.247H721.553C721.187 503.069 720.414 503.548 719.303 503.548ZM726.187 494.4C725.659 494.4 725.23 493.971 725.23 493.451C725.23 492.923 725.659 492.494 726.187 492.494C726.707 492.494 727.143 492.923 727.143 493.451C727.143 493.971 726.707 494.4 726.187 494.4ZM725.42 503.4V495.764H726.939V503.4H725.42ZM731.945 503.526C730.026 503.526 728.781 501.987 728.781 499.589V499.575C728.781 497.156 730.005 495.63 731.945 495.63C732.993 495.63 733.886 496.151 734.294 496.973H734.413V492.769H735.932V503.4H734.413V502.198H734.294C733.851 503.034 733.014 503.526 731.945 503.526ZM732.381 502.226C733.654 502.226 734.434 501.22 734.434 499.589V499.575C734.434 497.944 733.647 496.938 732.381 496.938C731.102 496.938 730.335 497.937 730.335 499.575V499.589C730.335 501.227 731.102 502.226 732.381 502.226ZM741.409 503.548C739.173 503.548 737.823 502.022 737.823 499.603V499.596C737.823 497.212 739.202 495.616 741.332 495.616C743.462 495.616 744.77 497.156 744.77 499.448V499.983H739.356C739.384 501.445 740.186 502.296 741.445 502.296C742.422 502.296 743.005 501.811 743.188 501.417L743.216 501.361L744.686 501.354L744.672 501.417C744.419 502.423 743.364 503.548 741.409 503.548ZM741.339 496.868C740.298 496.868 739.511 497.578 739.377 498.893H743.259C743.139 497.529 742.373 496.868 741.339 496.868Z" fill="#594AF1"/>
<rect x="344.4" y="253.6" width="402" height="196.8" rx="14.4" fill="#F9FAFC"/>
<rect x="344.7" y="253.9" width="401.4" height="196.2" rx="14.1" stroke="black" stroke-opacity="0.05" stroke-width="0.6"/>
<path d="M369.673 291.6V281.454H376.113V282.811H371.248V285.778H375.853V287.086H371.248V290.243H376.113V291.6H369.673ZM378.216 294.145V283.964H379.741V285.167H379.854C380.297 284.33 381.134 283.831 382.202 283.831C384.129 283.831 385.366 285.37 385.366 287.775V287.789C385.366 290.208 384.143 291.727 382.202 291.727C381.155 291.727 380.262 291.213 379.854 290.391H379.741V294.145H378.216ZM381.773 290.426C383.046 290.426 383.812 289.427 383.812 287.789V287.775C383.812 286.13 383.046 285.138 381.773 285.138C380.501 285.138 379.713 286.144 379.713 287.775V287.789C379.713 289.42 380.501 290.426 381.773 290.426ZM390.436 291.748C388.193 291.748 386.822 290.25 386.822 287.789V287.775C386.822 285.321 388.2 283.817 390.436 283.817C392.665 283.817 394.043 285.314 394.043 287.775V287.789C394.043 290.25 392.672 291.748 390.436 291.748ZM390.436 290.475C391.744 290.475 392.489 289.477 392.489 287.789V287.775C392.489 286.081 391.744 285.089 390.436 285.089C389.121 285.089 388.383 286.081 388.383 287.775V287.789C388.383 289.484 389.121 290.475 390.436 290.475ZM399.077 291.748C396.848 291.748 395.484 290.229 395.484 287.761V287.747C395.484 285.328 396.841 283.817 399.07 283.817C400.99 283.817 402.136 284.899 402.347 286.383V286.418L400.884 286.425L400.877 286.404C400.709 285.652 400.09 285.089 399.077 285.089C397.805 285.089 397.038 286.102 397.038 287.747V287.761C397.038 289.449 397.819 290.475 399.077 290.475C400.034 290.475 400.624 290.039 400.87 289.217L400.884 289.181H402.347L402.333 289.245C402.059 290.728 400.969 291.748 399.077 291.748ZM404.147 291.6V280.969H405.673V285.124H405.785C406.158 284.309 406.889 283.817 408 283.817C409.709 283.817 410.651 284.836 410.651 286.657V291.6H409.132V287.016C409.132 285.75 408.605 285.124 407.487 285.124C406.369 285.124 405.673 285.891 405.673 287.121V291.6H404.147Z" fill="black" fill-opacity="0.5"/>
<path d="M370.806 315V313.575L375.297 308.859C377.087 306.994 377.603 306.3 377.603 305.203V305.175C377.603 303.853 376.694 302.878 375.212 302.878C373.694 302.878 372.681 303.872 372.681 305.353L372.672 305.381H370.703L370.684 305.362C370.694 302.887 372.606 301.144 375.325 301.144C377.847 301.144 379.703 302.747 379.703 304.978V305.006C379.703 306.544 378.991 307.725 376.534 310.162L373.666 313.022V313.209H379.919V315H370.806ZM387.362 315.328C384.7 315.328 382.862 313.669 382.675 311.475L382.666 311.353H384.634L384.644 311.428C384.822 312.619 385.9 313.566 387.381 313.566C389.05 313.566 390.212 312.375 390.212 310.678V310.659C390.212 308.991 389.031 307.809 387.4 307.809C386.575 307.809 385.872 308.053 385.337 308.541C385.094 308.756 384.878 309.019 384.719 309.328H382.909L383.584 301.472H391.45V303.253H385.234L384.822 307.566H384.981C385.553 306.656 386.612 306.131 387.859 306.131C390.4 306.131 392.219 308.025 392.219 310.622V310.641C392.219 313.416 390.212 315.328 387.362 315.328Z" fill="#594AF1"/>
<path d="M373.104 346.246C370.812 346.246 369.342 345.086 369.202 343.377L369.195 343.286H370.741L370.748 343.363C370.833 344.284 371.81 344.875 373.167 344.875C374.461 344.875 375.382 344.228 375.382 343.286V343.279C375.382 342.498 374.834 341.992 373.491 341.704L372.38 341.465C370.32 341.029 369.434 340.073 369.434 338.575V338.568C369.441 336.817 370.959 335.608 373.111 335.608C375.262 335.608 376.669 336.824 376.781 338.399L376.788 338.498H375.262L375.248 338.406C375.115 337.577 374.32 336.972 373.09 336.979C371.902 336.979 371.023 337.534 371.023 338.491V338.498C371.023 339.25 371.557 339.742 372.872 340.023L373.976 340.27C376.106 340.727 376.978 341.584 376.978 343.089V343.096C376.978 345.037 375.466 346.246 373.104 346.246ZM378.947 346V335.369H380.473V346H378.947ZM385.978 346.148C383.735 346.148 382.364 344.65 382.364 342.189V342.175C382.364 339.721 383.742 338.216 385.978 338.216C388.207 338.216 389.585 339.714 389.585 342.175V342.189C389.585 344.65 388.214 346.148 385.978 346.148ZM385.978 344.875C387.286 344.875 388.031 343.877 388.031 342.189V342.175C388.031 340.48 387.286 339.489 385.978 339.489C384.663 339.489 383.925 340.48 383.925 342.175V342.189C383.925 343.884 384.663 344.875 385.978 344.875ZM394.289 346.049C392.609 346.049 391.92 345.459 391.92 343.989V339.566H390.724V338.364H391.92V336.437H393.473V338.364H395.112V339.566H393.473V343.623C393.473 344.446 393.783 344.784 394.535 344.784C394.767 344.784 394.901 344.777 395.112 344.755V345.972C394.866 346.014 394.584 346.049 394.289 346.049Z" fill="black" fill-opacity="0.5"/>
<path d="M370.741 369.4L376.703 357.794V357.644H369.616V355.872H378.831V357.691L372.944 369.4H370.741ZM382.291 369.4L388.253 357.794V357.644H381.166V355.872H390.381V357.691L384.494 369.4H382.291ZM397.487 369.653C394.487 369.653 392.369 368.041 392.369 365.744V365.725C392.369 364.019 393.597 362.659 395.369 362.275V362.228C393.85 361.797 392.856 360.662 392.856 359.228V359.209C392.856 357.137 394.797 355.619 397.487 355.619C400.187 355.619 402.119 357.137 402.119 359.209V359.228C402.119 360.662 401.134 361.797 399.616 362.228V362.275C401.387 362.659 402.616 364.019 402.616 365.725V365.744C402.616 368.041 400.497 369.653 397.487 369.653ZM397.487 361.525C399.006 361.525 400.037 360.644 400.037 359.406V359.387C400.037 358.15 398.997 357.287 397.487 357.287C395.978 357.287 394.937 358.15 394.937 359.387V359.406C394.937 360.644 395.978 361.525 397.487 361.525ZM397.487 367.966C399.222 367.966 400.45 366.981 400.45 365.612V365.594C400.45 364.206 399.231 363.203 397.487 363.203C395.753 363.203 394.534 364.206 394.534 365.594V365.612C394.534 366.981 395.762 367.966 397.487 367.966Z" fill="#594AF1"/>
<path d="M412.298 358.769L409.197 371.945H407.762L410.863 358.769H412.298ZM417.768 369.4L422.24 360.695V360.583H416.924V359.254H423.836V360.618L419.42 369.4H417.768ZM428.202 369.4V360.878H428.083L425.53 362.699V361.152L428.202 359.254H429.777V369.4H428.202ZM437.308 369.4V367.382H432.358V366.046C433.694 363.754 435.184 361.356 436.584 359.254H438.827V366.046H440.226V367.382H438.827V369.4H437.308ZM433.87 366.074H437.329V360.583H437.237C436.148 362.221 434.91 364.197 433.87 365.976V366.074ZM445.724 369.646C443.383 369.646 441.977 367.6 441.977 364.33V364.316C441.977 361.047 443.383 359.008 445.724 359.008C448.059 359.008 449.472 361.047 449.472 364.316V364.33C449.472 367.6 448.059 369.646 445.724 369.646ZM445.724 368.338C447.081 368.338 447.883 366.812 447.883 364.33V364.316C447.883 361.834 447.081 360.323 445.724 360.323C444.36 360.323 443.566 361.834 443.566 364.316V364.33C443.566 366.812 444.36 368.338 445.724 368.338Z" fill="black" fill-opacity="0.5"/>
<path d="M373.835 400.646C371.016 400.646 369.258 398.607 369.258 395.338V395.324C369.258 392.047 371.009 390.008 373.828 390.008C376.064 390.008 377.78 391.421 378.047 393.439L378.04 393.474H376.479V393.453C376.184 392.209 375.164 391.4 373.828 391.4C372.007 391.4 370.868 392.912 370.868 395.324V395.338C370.868 397.742 372.007 399.254 373.835 399.254C375.178 399.254 376.184 398.537 376.472 397.391L376.486 397.363H378.047V397.405C377.752 399.352 376.099 400.646 373.835 400.646ZM382.491 400.548C380.768 400.548 379.875 399.514 379.875 397.707V392.764H381.401V397.349C381.401 398.614 381.865 399.24 382.983 399.24C384.206 399.24 384.86 398.474 384.86 397.243V392.764H386.379V400.4H384.86V399.247H384.741C384.375 400.07 383.602 400.548 382.491 400.548ZM388.58 400.4V392.764H390.105V393.917H390.218C390.492 393.109 391.202 392.631 392.222 392.631C392.468 392.631 392.735 392.666 392.89 392.701V394.107C392.616 394.051 392.355 394.016 392.067 394.016C390.9 394.016 390.105 394.733 390.105 395.837V400.4H388.58ZM394.458 400.4V392.764H395.984V393.917H396.096C396.37 393.109 397.08 392.631 398.1 392.631C398.346 392.631 398.613 392.666 398.768 392.701V394.107C398.494 394.051 398.234 394.016 397.945 394.016C396.778 394.016 395.984 394.733 395.984 395.837V400.4H394.458ZM403.233 400.548C400.997 400.548 399.647 399.022 399.647 396.603V396.596C399.647 394.213 401.025 392.617 403.155 392.617C405.286 392.617 406.594 394.156 406.594 396.449V396.983H401.18C401.208 398.445 402.009 399.296 403.268 399.296C404.245 399.296 404.829 398.811 405.012 398.417L405.04 398.361L406.509 398.354L406.495 398.417C406.242 399.423 405.187 400.548 403.233 400.548ZM403.162 393.868C402.122 393.868 401.334 394.578 401.201 395.893H405.082C404.962 394.529 404.196 393.868 403.162 393.868ZM408.408 400.4V392.764H409.934V393.924H410.046C410.419 393.109 411.15 392.617 412.261 392.617C413.97 392.617 414.912 393.636 414.912 395.457V400.4H413.393V395.816C413.393 394.55 412.866 393.924 411.748 393.924C410.63 393.924 409.934 394.691 409.934 395.921V400.4H408.408ZM419.925 400.449C418.245 400.449 417.555 399.859 417.555 398.389V393.967H416.36V392.764H417.555V390.838H419.109V392.764H420.748V393.967H419.109V398.024C419.109 398.846 419.419 399.184 420.171 399.184C420.403 399.184 420.537 399.177 420.748 399.156V400.372C420.502 400.414 420.22 400.449 419.925 400.449ZM429.67 400.548C427.434 400.548 426.084 399.022 426.084 396.603V396.596C426.084 394.213 427.462 392.617 429.593 392.617C431.723 392.617 433.031 394.156 433.031 396.449V396.983H427.617C427.645 398.445 428.447 399.296 429.705 399.296C430.683 399.296 431.266 398.811 431.449 398.417L431.477 398.361L432.947 398.354L432.933 398.417C432.68 399.423 431.625 400.548 429.67 400.548ZM429.6 393.868C428.559 393.868 427.772 394.578 427.638 395.893H431.52C431.4 394.529 430.634 393.868 429.6 393.868ZM434.845 402.945V392.764H436.371V393.967H436.484C436.927 393.13 437.763 392.631 438.832 392.631C440.759 392.631 441.996 394.17 441.996 396.575V396.589C441.996 399.008 440.773 400.527 438.832 400.527C437.784 400.527 436.891 400.013 436.484 399.191H436.371V402.945H434.845ZM438.403 399.226C439.676 399.226 440.442 398.227 440.442 396.589V396.575C440.442 394.93 439.676 393.938 438.403 393.938C437.13 393.938 436.343 394.944 436.343 396.575V396.589C436.343 398.22 437.13 399.226 438.403 399.226ZM447.066 400.548C444.823 400.548 443.452 399.05 443.452 396.589V396.575C443.452 394.121 444.83 392.617 447.066 392.617C449.295 392.617 450.673 394.114 450.673 396.575V396.589C450.673 399.05 449.302 400.548 447.066 400.548ZM447.066 399.275C448.373 399.275 449.119 398.277 449.119 396.589V396.575C449.119 394.881 448.373 393.889 447.066 393.889C445.751 393.889 445.013 394.881 445.013 396.575V396.589C445.013 398.284 445.751 399.275 447.066 399.275ZM455.707 400.548C453.478 400.548 452.114 399.029 452.114 396.561V396.547C452.114 394.128 453.471 392.617 455.7 392.617C457.62 392.617 458.766 393.699 458.977 395.183V395.218L457.514 395.225L457.507 395.204C457.338 394.452 456.72 393.889 455.707 393.889C454.434 393.889 453.668 394.902 453.668 396.547V396.561C453.668 398.249 454.448 399.275 455.707 399.275C456.663 399.275 457.254 398.839 457.5 398.017L457.514 397.981H458.977L458.962 398.045C458.688 399.528 457.598 400.548 455.707 400.548ZM460.777 400.4V389.769H462.302V393.924H462.415C462.788 393.109 463.519 392.617 464.63 392.617C466.338 392.617 467.28 393.636 467.28 395.457V400.4H465.762V395.816C465.762 394.55 465.234 393.924 464.116 393.924C462.998 393.924 462.302 394.691 462.302 395.921V400.4H460.777ZM476.555 400.548C474.319 400.548 472.969 399.022 472.969 396.603V396.596C472.969 394.213 474.347 392.617 476.477 392.617C478.608 392.617 479.916 394.156 479.916 396.449V396.983H474.502C474.53 398.445 475.331 399.296 476.59 399.296C477.567 399.296 478.151 398.811 478.334 398.417L478.362 398.361L479.831 398.354L479.817 398.417C479.564 399.423 478.509 400.548 476.555 400.548ZM476.484 393.868C475.444 393.868 474.656 394.578 474.523 395.893H478.404C478.284 394.529 477.518 393.868 476.484 393.868ZM481.73 400.4V392.764H483.255V393.924H483.368C483.741 393.109 484.472 392.617 485.583 392.617C487.291 392.617 488.234 393.636 488.234 395.457V400.4H486.715V395.816C486.715 394.55 486.188 393.924 485.07 393.924C483.952 393.924 483.255 394.691 483.255 395.921V400.4H481.73ZM493.148 400.527C491.229 400.527 489.984 398.987 489.984 396.589V396.575C489.984 394.156 491.208 392.631 493.148 392.631C494.196 392.631 495.089 393.151 495.497 393.974H495.616V389.769H497.135V400.4H495.616V399.198H495.497C495.054 400.035 494.217 400.527 493.148 400.527ZM493.584 399.226C494.857 399.226 495.638 398.22 495.638 396.589V396.575C495.638 394.944 494.85 393.938 493.584 393.938C492.305 393.938 491.538 394.937 491.538 396.575V396.589C491.538 398.227 492.305 399.226 493.584 399.226ZM504.138 391.4C503.611 391.4 503.182 390.971 503.182 390.451C503.182 389.924 503.611 389.495 504.138 389.495C504.659 389.495 505.095 389.924 505.095 390.451C505.095 390.971 504.659 391.4 504.138 391.4ZM503.372 400.4V392.764H504.891V400.4H503.372ZM507.113 400.4V392.764H508.638V393.924H508.751C509.123 393.109 509.855 392.617 510.966 392.617C512.674 392.617 513.616 393.636 513.616 395.457V400.4H512.098V395.816C512.098 394.55 511.57 393.924 510.452 393.924C509.334 393.924 508.638 394.691 508.638 395.921V400.4H507.113Z" fill="black" fill-opacity="0.5"/>
<path d="M373.641 423.8V412.438H373.481L370.078 414.866V412.803L373.641 410.272H375.741V423.8H373.641ZM384.337 424.053C381.45 424.053 379.566 422.469 379.387 420.228L379.378 420.116H381.384L381.394 420.209C381.525 421.438 382.659 422.3 384.337 422.3C385.987 422.3 387.103 421.372 387.103 420.041V420.022C387.103 418.494 385.997 417.641 384.197 417.641H382.547V416.009H384.131C385.678 416.009 386.728 415.1 386.728 413.844V413.825C386.728 412.513 385.847 411.744 384.319 411.744C382.819 411.744 381.769 412.541 381.637 413.816L381.628 413.909H379.659L379.669 413.806C379.875 411.528 381.675 410.019 384.319 410.019C387.009 410.019 388.772 411.463 388.772 413.553V413.572C388.772 415.25 387.572 416.375 385.922 416.722V416.769C387.909 416.947 389.241 418.147 389.241 420.041V420.059C389.241 422.384 387.206 424.053 384.337 424.053ZM394.331 423.927C392.412 423.927 391.167 422.387 391.167 419.989V419.975C391.167 417.556 392.391 416.031 394.331 416.031C395.379 416.031 396.272 416.551 396.68 417.373H396.799V413.169H398.318V423.8H396.799V422.598H396.68C396.237 423.434 395.4 423.927 394.331 423.927ZM394.767 422.626C396.04 422.626 396.82 421.62 396.82 419.989V419.975C396.82 418.344 396.033 417.338 394.767 417.338C393.487 417.338 392.721 418.337 392.721 419.975V419.989C392.721 421.627 393.487 422.626 394.767 422.626ZM407.77 416.853C406.992 416.853 406.392 416.253 406.392 415.494C406.392 414.725 406.992 414.125 407.77 414.125C408.548 414.125 409.139 414.725 409.139 415.494C409.139 416.253 408.548 416.853 407.77 416.853ZM407.77 423.941C406.992 423.941 406.392 423.341 406.392 422.581C406.392 421.813 406.992 421.213 407.77 421.213C408.548 421.213 409.139 421.813 409.139 422.581C409.139 423.341 408.548 423.941 407.77 423.941ZM422.283 424.128C419.161 424.128 417.286 421.4 417.286 417.041V417.022C417.286 412.663 419.161 409.944 422.283 409.944C425.395 409.944 427.28 412.663 427.28 417.022V417.041C427.28 421.4 425.395 424.128 422.283 424.128ZM422.283 422.384C424.092 422.384 425.161 420.35 425.161 417.041V417.022C425.161 413.713 424.092 411.697 422.283 411.697C420.464 411.697 419.405 413.713 419.405 417.022V417.041C419.405 420.35 420.464 422.384 422.283 422.384ZM434.977 424.128C432.258 424.128 429.708 422.216 429.708 417.238V417.219C429.708 412.644 431.705 409.944 435.052 409.944C437.442 409.944 439.223 411.35 439.673 413.394L439.692 413.506H437.611L437.573 413.413C437.198 412.381 436.317 411.725 435.042 411.725C432.764 411.725 431.817 413.947 431.714 416.647C431.705 416.75 431.705 416.853 431.705 416.956H431.883C432.38 415.869 433.598 414.903 435.445 414.903C438.023 414.903 439.87 416.816 439.87 419.403V419.422C439.87 422.141 437.817 424.128 434.977 424.128ZM432.117 419.422C432.117 421.072 433.364 422.366 434.958 422.366C436.542 422.366 437.798 421.1 437.798 419.478V419.459C437.798 417.8 436.617 416.6 434.977 416.6C433.355 416.6 432.117 417.781 432.117 419.413V419.422ZM442.247 423.8V413.169H443.773V417.324H443.885C444.258 416.509 444.989 416.016 446.1 416.016C447.809 416.016 448.751 417.036 448.751 418.857V423.8H447.232V419.216C447.232 417.95 446.705 417.324 445.587 417.324C444.469 417.324 443.773 418.091 443.773 419.321V423.8H442.247ZM458.062 416.853C457.284 416.853 456.684 416.253 456.684 415.494C456.684 414.725 457.284 414.125 458.062 414.125C458.841 414.125 459.431 414.725 459.431 415.494C459.431 416.253 458.841 416.853 458.062 416.853ZM458.062 423.941C457.284 423.941 456.684 423.341 456.684 422.581C456.684 421.813 457.284 421.213 458.062 421.213C458.841 421.213 459.431 421.813 459.431 422.581C459.431 423.341 458.841 423.941 458.062 423.941ZM467.803 423.8V422.375L472.294 417.659C474.084 415.794 474.6 415.1 474.6 414.003V413.975C474.6 412.653 473.691 411.678 472.209 411.678C470.691 411.678 469.678 412.672 469.678 414.153L469.669 414.181H467.7L467.681 414.163C467.691 411.688 469.603 409.944 472.322 409.944C474.844 409.944 476.7 411.547 476.7 413.778V413.806C476.7 415.344 475.987 416.525 473.531 418.963L470.662 421.822V422.009H476.916V423.8H467.803ZM484.434 424.053C481.547 424.053 479.662 422.469 479.484 420.228L479.475 420.116H481.481L481.491 420.209C481.622 421.438 482.756 422.3 484.434 422.3C486.084 422.3 487.2 421.372 487.2 420.041V420.022C487.2 418.494 486.094 417.641 484.294 417.641H482.644V416.009H484.228C485.775 416.009 486.825 415.1 486.825 413.844V413.825C486.825 412.513 485.944 411.744 484.416 411.744C482.916 411.744 481.866 412.541 481.734 413.816L481.725 413.909H479.756L479.766 413.806C479.972 411.528 481.772 410.019 484.416 410.019C487.106 410.019 488.869 411.463 488.869 413.553V413.572C488.869 415.25 487.669 416.375 486.019 416.722V416.769C488.006 416.947 489.337 418.147 489.337 420.041V420.059C489.337 422.384 487.303 424.053 484.434 424.053ZM491.644 423.8V416.164H493.17V417.338H493.282C493.62 416.502 494.365 416.016 495.363 416.016C496.404 416.016 497.142 416.558 497.48 417.381H497.599C497.986 416.558 498.865 416.016 499.927 416.016C501.466 416.016 502.366 416.945 502.366 418.534V423.8H500.848V418.899C500.848 417.845 500.37 417.324 499.371 417.324C498.401 417.324 497.761 418.048 497.761 418.97V423.8H496.242V418.745C496.242 417.873 495.673 417.324 494.773 417.324C493.852 417.324 493.17 418.112 493.17 419.11V423.8H491.644Z" fill="black"/>
<path d="M642.067 351.21C642.01 350.173 642.115 349.213 642.384 348.33C642.653 347.446 643.066 346.688 643.622 346.054C644.198 345.402 644.909 344.893 645.754 344.528C646.598 344.163 647.558 343.981 648.634 343.981C649.517 343.981 650.342 344.115 651.11 344.384C651.898 344.634 652.579 345.008 653.155 345.507C653.731 345.987 654.182 346.592 654.509 347.322C654.854 348.051 655.027 348.896 655.027 349.856C655.027 350.758 654.883 351.555 654.595 352.246C654.326 352.938 653.962 353.562 653.501 354.118C653.04 354.656 652.512 355.146 651.917 355.587C651.322 356.029 650.707 356.451 650.074 356.854C649.44 357.238 648.806 357.622 648.173 358.006C647.539 358.371 646.954 358.765 646.416 359.187C645.898 359.61 645.446 360.07 645.062 360.57C644.698 361.05 644.458 361.606 644.342 362.24H654.826V364.4H641.491C641.587 363.19 641.798 362.163 642.125 361.318C642.47 360.454 642.902 359.706 643.421 359.072C643.939 358.438 644.525 357.882 645.178 357.402C645.83 356.922 646.512 356.47 647.222 356.048C648.086 355.51 648.845 355.021 649.498 354.579C650.15 354.118 650.688 353.658 651.11 353.197C651.552 352.736 651.878 352.237 652.09 351.699C652.32 351.162 652.435 350.538 652.435 349.827C652.435 349.27 652.33 348.771 652.118 348.33C651.907 347.869 651.619 347.475 651.254 347.149C650.909 346.822 650.496 346.573 650.016 346.4C649.536 346.227 649.027 346.141 648.49 346.141C647.779 346.141 647.165 346.294 646.646 346.602C646.147 346.89 645.734 347.274 645.408 347.754C645.082 348.234 644.842 348.781 644.688 349.395C644.554 349.99 644.496 350.595 644.515 351.21H642.067ZM670.339 346.486H662.102L661.008 352.362L661.066 352.419C661.507 351.92 662.074 351.555 662.765 351.325C663.475 351.075 664.176 350.95 664.867 350.95C665.77 350.95 666.624 351.094 667.43 351.382C668.237 351.67 668.938 352.112 669.533 352.707C670.128 353.283 670.598 354.013 670.944 354.896C671.29 355.76 671.462 356.778 671.462 357.949C671.462 358.813 671.309 359.658 671.002 360.483C670.714 361.29 670.272 362.01 669.677 362.643C669.082 363.277 668.333 363.786 667.43 364.17C666.547 364.534 665.51 364.717 664.32 364.717C663.437 364.717 662.602 364.592 661.814 364.342C661.046 364.074 660.365 363.699 659.77 363.219C659.174 362.72 658.704 362.106 658.358 361.376C658.013 360.646 657.83 359.821 657.811 358.899H660.259C660.298 359.418 660.422 359.907 660.634 360.368C660.864 360.81 661.162 361.203 661.526 361.549C661.91 361.875 662.352 362.134 662.851 362.326C663.37 362.499 663.936 362.586 664.55 362.586C665.126 362.586 665.674 362.49 666.192 362.298C666.73 362.086 667.19 361.779 667.574 361.376C667.978 360.973 668.294 360.474 668.525 359.878C668.755 359.264 668.87 358.554 668.87 357.747C668.87 357.075 668.755 356.461 668.525 355.904C668.314 355.328 668.006 354.838 667.603 354.435C667.2 354.013 666.71 353.686 666.134 353.456C665.578 353.226 664.954 353.11 664.262 353.11C663.456 353.11 662.736 353.293 662.102 353.658C661.488 354.003 660.941 354.464 660.461 355.04L658.358 354.925L660.259 344.326H670.339V346.486ZM679.812 355.866C679.812 356.112 679.823 356.381 679.845 356.672C679.879 356.952 679.946 357.215 680.047 357.462C680.148 357.697 680.288 357.898 680.467 358.066C680.657 358.223 680.909 358.302 681.223 358.302C681.548 358.302 681.805 358.223 681.996 358.066C682.186 357.91 682.332 357.714 682.433 357.478C682.545 357.232 682.617 356.963 682.651 356.672C682.685 356.381 682.701 356.106 682.701 355.849C682.701 355.602 682.685 355.339 682.651 355.059C682.629 354.768 682.567 354.505 682.466 354.27C682.365 354.023 682.22 353.822 682.029 353.665C681.85 353.497 681.598 353.413 681.273 353.413C680.96 353.413 680.708 353.497 680.517 353.665C680.327 353.822 680.176 354.023 680.064 354.27C679.963 354.505 679.896 354.768 679.862 355.059C679.829 355.339 679.812 355.608 679.812 355.866ZM678.552 355.899C678.552 355.44 678.597 355.009 678.686 354.606C678.776 354.191 678.927 353.827 679.14 353.514C679.353 353.2 679.633 352.954 679.98 352.774C680.327 352.584 680.758 352.489 681.273 352.489C681.8 352.489 682.231 352.578 682.567 352.758C682.914 352.937 683.189 353.178 683.39 353.48C683.603 353.782 683.749 354.141 683.827 354.555C683.917 354.958 683.961 355.39 683.961 355.849C683.961 356.286 683.911 356.711 683.81 357.126C683.721 357.529 683.564 357.887 683.34 358.201C683.127 358.503 682.853 358.75 682.517 358.94C682.181 359.13 681.766 359.226 681.273 359.226C680.769 359.226 680.344 359.142 679.997 358.974C679.649 358.794 679.369 358.554 679.157 358.251C678.944 357.949 678.787 357.596 678.686 357.193C678.597 356.79 678.552 356.358 678.552 355.899ZM688.111 361.242C688.111 361.488 688.122 361.757 688.145 362.048C688.178 362.328 688.245 362.591 688.346 362.838C688.447 363.073 688.587 363.274 688.766 363.442C688.957 363.599 689.209 363.678 689.522 363.678C689.847 363.678 690.105 363.599 690.295 363.442C690.485 363.286 690.631 363.09 690.732 362.854C690.844 362.608 690.917 362.339 690.95 362.048C690.984 361.757 691.001 361.482 691.001 361.225C691.001 360.978 690.984 360.715 690.95 360.435C690.928 360.144 690.866 359.881 690.765 359.646C690.665 359.399 690.519 359.198 690.329 359.041C690.149 358.873 689.897 358.789 689.573 358.789C689.259 358.789 689.007 358.873 688.817 359.041C688.626 359.198 688.475 359.399 688.363 359.646C688.262 359.881 688.195 360.144 688.161 360.435C688.128 360.715 688.111 360.984 688.111 361.242ZM686.851 361.275C686.851 360.816 686.896 360.385 686.985 359.982C687.075 359.567 687.226 359.203 687.439 358.89C687.652 358.576 687.932 358.33 688.279 358.15C688.626 357.96 689.057 357.865 689.573 357.865C690.099 357.865 690.53 357.954 690.866 358.134C691.213 358.313 691.488 358.554 691.689 358.856C691.902 359.158 692.048 359.517 692.126 359.931C692.216 360.334 692.261 360.766 692.261 361.225C692.261 361.662 692.21 362.087 692.109 362.502C692.02 362.905 691.863 363.263 691.639 363.577C691.426 363.879 691.152 364.126 690.816 364.316C690.48 364.495 690.065 364.585 689.573 364.585C689.069 364.585 688.643 364.501 688.296 364.333C687.949 364.154 687.669 363.918 687.456 363.627C687.243 363.325 687.086 362.972 686.985 362.569C686.896 362.166 686.851 361.734 686.851 361.275ZM689.203 352.27H690.631L681.609 364.753H680.165L689.203 352.27Z" fill="black"/>
<circle cx="662.4" cy="353.2" r="48" stroke="#E7EBF0" stroke-width="9.6"/>
<path d="M710.4 353.2C710.4 326.69 688.91 305.2 662.4 305.2" stroke="url(#paint0_angular_5395_10387)" stroke-width="9.6" stroke-linecap="round"/>
</g>
<rect x="668.4" y="604" width="255" height="80" rx="19.2" fill="#685DF2" fill-opacity="0.9"/>
<path d="M702.713 653.464C697.26 653.464 693.908 649.687 693.908 643.706V643.68C693.908 637.686 697.311 633.935 702.713 633.935C708.127 633.935 711.504 637.686 711.504 643.68V643.706C711.504 649.687 708.139 653.464 702.713 653.464ZM702.713 650.589C706.025 650.589 708.114 647.882 708.114 643.706V643.68C708.114 639.478 706.013 636.809 702.713 636.809C699.413 636.809 697.298 639.478 697.298 643.68V643.706C697.298 647.882 699.361 650.589 702.713 650.589ZM714.984 653V638.911H718.194V641.063H718.413C719.084 639.555 720.437 638.64 722.474 638.64C725.619 638.64 727.334 640.535 727.334 643.886V653H724.124V644.634C724.124 642.443 723.234 641.334 721.288 641.334C719.38 641.334 718.194 642.675 718.194 644.789V653H714.984ZM737.156 653.284C732.967 653.284 730.427 650.473 730.427 645.987V645.975C730.427 641.54 732.993 638.64 737.002 638.64C741.011 638.64 743.486 641.45 743.486 645.704V646.761H733.637C733.676 649.287 735.042 650.757 737.221 650.757C738.961 650.757 739.954 649.88 740.263 649.236L740.302 649.146H743.357L743.318 649.262C742.867 651.079 740.985 653.284 737.156 653.284ZM737.04 641.154C735.248 641.154 733.908 642.365 733.663 644.608H740.353C740.134 642.301 738.832 641.154 737.04 641.154ZM753.863 653V633.458H757.072V644.686H757.291L762.486 638.911H766.199L760.527 644.866L766.586 653H762.718L758.194 646.903L757.072 648.05V653H753.863ZM774.307 653.284C770.118 653.284 767.578 650.473 767.578 645.987V645.975C767.578 641.54 770.143 638.64 774.152 638.64C778.161 638.64 780.636 641.45 780.636 645.704V646.761H770.788C770.827 649.287 772.193 650.757 774.371 650.757C776.112 650.757 777.104 649.88 777.414 649.236L777.452 649.146H780.507L780.469 649.262C780.018 651.079 778.136 653.284 774.307 653.284ZM774.191 641.154C772.399 641.154 771.059 642.365 770.814 644.608H777.504C777.285 642.301 775.983 641.154 774.191 641.154ZM785.019 657.95C784.632 657.95 784.181 657.937 783.795 657.898V655.436C784.052 655.462 784.413 655.475 784.748 655.475C786.063 655.475 786.85 654.934 787.198 653.657L787.365 653.013L782.325 638.911H785.831L789.118 649.919H789.363L792.638 638.911H796.015L790.962 653.296C789.75 656.829 788.139 657.95 785.019 657.95ZM811.136 653.284C807.552 653.284 805.386 651.634 805.116 649.249V649.223H808.3L808.313 649.249C808.648 650.229 809.589 650.912 811.187 650.912C812.786 650.912 813.894 650.19 813.894 649.133V649.107C813.894 648.282 813.275 647.741 811.729 647.393L809.447 646.877C806.766 646.284 805.489 645.021 805.489 642.945V642.932C805.489 640.393 807.81 638.64 811.136 638.64C814.564 638.64 816.614 640.341 816.82 642.623V642.649H813.804L813.791 642.61C813.559 641.721 812.631 640.999 811.123 640.999C809.692 640.999 808.661 641.695 808.661 642.752V642.765C808.661 643.59 809.254 644.093 810.775 644.441L813.056 644.943C815.815 645.562 817.117 646.735 817.117 648.785V648.811C817.117 651.492 814.603 653.284 811.136 653.284ZM825.792 653.064C822.557 653.064 821.229 651.982 821.229 649.262V641.398H819.038V638.911H821.229V635.456H824.49V638.911H827.468V641.398H824.49V648.501C824.49 649.906 825.045 650.499 826.385 650.499C826.836 650.499 827.081 650.486 827.468 650.448V652.923C827.004 653.013 826.411 653.064 825.792 653.064ZM834.506 653.232C831.825 653.232 829.879 651.582 829.879 649.017V648.991C829.879 646.477 831.799 645.008 835.228 644.802L838.85 644.582V643.371C838.85 641.966 837.935 641.192 836.208 641.192C834.738 641.192 833.784 641.721 833.462 642.649L833.449 642.7H830.42L830.433 642.584C830.742 640.212 833.011 638.64 836.363 638.64C839.985 638.64 842.021 640.393 842.021 643.371V653H838.85V651.066H838.631C837.858 652.433 836.363 653.232 834.506 653.232ZM833.05 648.862C833.05 650.061 834.068 650.77 835.486 650.77C837.42 650.77 838.85 649.507 838.85 647.831V646.696L835.679 646.903C833.888 647.019 833.05 647.676 833.05 648.836V648.862ZM846.005 653V633.458H849.214V644.686H849.434L854.629 638.911H858.341L852.669 644.866L858.728 653H854.861L850.336 646.903L849.214 648.05V653H846.005ZM862.84 636.552C861.783 636.552 860.919 635.714 860.919 634.657C860.919 633.612 861.783 632.762 862.84 632.762C863.884 632.762 864.748 633.612 864.748 634.657C864.748 635.714 863.884 636.552 862.84 636.552ZM861.229 653V638.911H864.438V653H861.229ZM868.383 653V638.911H871.593V641.063H871.812C872.482 639.555 873.836 638.64 875.872 638.64C879.018 638.64 880.732 640.535 880.732 643.886V653H877.522V644.634C877.522 642.443 876.633 641.334 874.686 641.334C872.779 641.334 871.593 642.675 871.593 644.789V653H868.383ZM890.58 657.95C886.868 657.95 884.638 656.364 884.316 653.993L884.329 653.954H887.538L887.551 653.993C887.77 654.895 888.84 655.527 890.632 655.527C892.823 655.527 894.1 654.508 894.1 652.704V650.009H893.88C893.068 651.518 891.534 652.343 889.588 652.343C886.017 652.343 883.8 649.584 883.8 645.588V645.562C883.8 641.489 886.017 638.679 889.652 638.679C891.599 638.679 893.12 639.632 893.919 641.231H894.087V638.911H897.296V652.652C897.296 655.9 894.693 657.95 890.58 657.95ZM890.58 649.79C892.811 649.79 894.151 648.076 894.151 645.588V645.562C894.151 643.074 892.798 641.347 890.58 641.347C888.35 641.347 887.087 643.074 887.087 645.562V645.588C887.087 648.076 888.35 649.79 890.58 649.79Z" fill="white"/>
<defs>
<filter id="filter0_f_5395_10387" x="56" y="0" width="980" height="980" filterUnits="userSpaceOnUse" color-interpolation-filters="sRGB">
<feFlood flood-opacity="0" result="BackgroundImageFix"/>
<feBlend mode="normal" in="SourceGraphic" in2="BackgroundImageFix" result="shape"/>
<feGaussianBlur stdDeviation="80" result="effect1_foregroundBlur_5395_10387"/>
</filter>
<radialGradient id="paint0_angular_5395_10387" cx="0" cy="0" r="1" gradientUnits="userSpaceOnUse" gradientTransform="translate(662.4 353.2) scale(48)">
<stop stop-color="#594AF1"/>
<stop offset="0.75" stop-color="#FF7870"/>
<stop offset="1" stop-color="#594AF1"/>
</radialGradient>
<clipPath id="clip0_5395_10387">
<rect x="320.4" y="130" width="450" height="720" rx="38.4" fill="white"/>
</clipPath>
<clipPath id="clip1_5395_10387">
<rect width="19.2" height="19.2" fill="white" transform="translate(344.4 220.7)"/>
</clipPath>
<clipPath id="clip2_5395_10387">
<rect width="36" height="36" fill="white" transform="translate(339.6 156.4)"/>
</clipPath>
</defs>
</svg>
